/* XPM */
static char *_[] = {
/* columns rows colors chars-per-pixel */
"41 66 210 2 ",
"   c #000086",
".  c #0B0887",
"X  c #02008E",
"o  c #000095",
"O  c #01019D",
"+  c #0A059E",
"@  c #0D089F",
"#  c #18159E",
"$  c #191898",
"%  c #0001A5",
"&  c #070AA2",
"*  c #0C0AA3",
"=  c #0000AD",
"-  c #0B05AB",
";  c #0F09A8",
":  c #0E11AA",
">  c #1817A9",
",  c #1E17AC",
"<  c #0100B2",
"1  c #0E05B3",
"2  c #0B0BB3",
"3  c #0101BA",
"4  c #0C05BA",
"5  c #0B0ABC",
"6  c #1207BA",
"7  c #1208B8",
"8  c #1613B3",
"9  c #1E16B5",
"0  c #1615BD",
"q  c #1C1AB8",
"w  c #221AB2",
"e  c #2223A7",
"r  c #383AAB",
"t  c #2824B8",
"y  c #2E36B9",
"u  c #3534B6",
"i  c #3139B7",
"p  c #3A3DB2",
"a  c #3D41B6",
"s  c #3740B8",
"d  c #3F42B8",
"f  c #4B48B2",
"g  c #4245BB",
"h  c #454ABD",
"j  c #0403C0",
"k  c #0C0AC2",
"l  c #130BCA",
"z  c #1514C4",
"x  c #1618C5",
"c  c #1814CA",
"v  c #1C1CCB",
"b  c #150CD0",
"n  c #251EC2",
"m  c #201DD7",
"M  c #1F21C6",
"N  c #2A26C6",
"B  c #2223CE",
"V  c #272ACB",
"C  c #2F35C2",
"Z  c #383BC9",
"A  c #2322D4",
"S  c #2926D3",
"D  c #2E2DD5",
"F  c #2B2CD9",
"G  c #3227DE",
"H  c #3636D9",
"J  c #3A3ADD",
"K  c #312DE4",
"L  c #3A35E2",
"P  c #3B3BE2",
"I  c #3F3FED",
"U  c #413ED6",
"Y  c #4336EA",
"T  c #4639EB",
"R  c #4B3EF4",
"E  c #4138F8",
"W  c #4345C5",
"Q  c #4549C0",
"!  c #5B5ACC",
"~  c #4341DB",
"^  c #4649D9",
"/  c #4D51DE",
"(  c #5E5DD3",
")  c #5257DC",
"_  c #5956DD",
"`  c #555CDE",
"'  c #6363DE",
"]  c #6E6DDD",
"[  c #716CDD",
"{  c #7A77D5",
"}  c #7B79D4",
"|  c #7E7ADD",
" . c #4D4BE4",
".. c #4242ED",
"X. c #4948E8",
"o. c #534BE9",
"O. c #5254E4",
"+. c #5E55E6",
"@. c #555BE0",
"#. c #5A5BE4",
"$. c #555BED",
"%. c #4E45F7",
"&. c #4D4EF9",
"*. c #5B4CFB",
"=. c #5655F7",
"-. c #5B56F3",
";. c #5D5DF4",
":. c #5253F9",
">. c #5D5DFE",
",. c #655DE4",
"<. c #615CED",
"1. c #685DEF",
"2. c #615BF4",
"3. c #6057FE",
"4. c #635CFD",
"5. c #685CFD",
"6. c #5B60FE",
"7. c #6866EA",
"8. c #666DEF",
"9. c #6C6AEA",
"0. c #736DE7",
"q. c #6972E8",
"w. c #7677E4",
"e. c #7171EA",
"r. c #7E7EEE",
"t. c #6665F6",
"y. c #6E6EF6",
"u. c #6362FC",
"i. c #6963FD",
"p. c #6F68F9",
"a. c #736DF3",
"s. c #746CFD",
"d. c #6D71FD",
"f. c #7473F2",
"g. c #7B7CF4",
"h. c #7675FB",
"j. c #7A74FC",
"k. c #787AF8",
"l. c #827EDE",
"z. c #817FEB",
"x. c #827FF5",
"c. c #827DFE",
"v. c #8281DE",
"b. c #8587E4",
"n. c #8B8BE4",
"m. c #8383EC",
"M. c #8C8CED",
"N. c #8D93E9",
"B. c #9495ED",
"V. c #8381F2",
"C. c #858CF3",
"Z. c #8D8DF3",
"A. c #8484FF",
"S. c #8A87FB",
"D. c #8289FB",
"F. c #928CF4",
"G. c #938FFD",
"H. c #8791FF",
"J. c #8E93FF",
"K. c #9292F2",
"L. c #9A9AF2",
"P. c #9694FC",
"I. c #9893FF",
"U. c #959CFD",
"Y. c #9C9BFD",
"T. c #A097F3",
"R. c #A39DF7",
"E. c #A39DFD",
"W. c #9FA2E7",
"Q. c #97A5FB",
"!. c #A9A9F3",
"~. c #A4A2FE",
"^. c #AAA5FB",
"/. c #A5A9FE",
"(. c #ACABFD",
"). c #B1AFFF",
"_. c #AFB0F0",
"`. c #ADB2FE",
"'. c #B2B6F6",
"]. c #B9BCF1",
"[. c #B4B4FD",
"{. c #B8B6FF",
"}. c #B5BAFC",
"|. c #BBBDFF",
" X c #B7C5FF",
".X c #BCC2FB",
"XX c #BDC5F9",
"oX c #D6DCEF",
"OX c #C4C5F5",
"+X c #CCCEF6",
"@X c #C3C4FD",
"#X c #C5CAFD",
"$X c #CBCDFE",
"%X c #D3CEF6",
"&X c #D3CEFC",
"*X c #CDD2F5",
"=X c #CBDCF5",
"-X c #CED2FE",
";X c #C6DAFF",
":X c #CBDEFD",
">X c #D2D5F5",
",X c #D6DCF5",
"<X c #D8DCF5",
"1X c #D3D5FE",
"2X c #D9D6FF",
"3X c #D5D9FD",
"4X c #D9DBFD",
"5X c #D8E0F6",
"6X c #DCE2FE",
"7X c #E0E8FF",
/* pixels */
"= = = = = = < = = < < < < < < < < = < < < 3 < 3 3 3 < < = = = = = = = < = = = = = ",
"< = = < = = = < < < = < < < < < = < < < = = = < 3 3 3 3 < < = < = < = = = < = < = ",
"= < < < < < = < < = = = = = < = = % % % o o % = < 3 3 3 < < < < < < < < = < < < < ",
"< < = < = < < < = = = = = = = = x v v V i Z C : % = < < < < = < < = = < < < = < = ",
"< < < < < = < = < = % = % % % x ..&.&.d.Q.Q.D.C o % = = = = < < < < = < < < < < = ",
"< < < < < < < < = % % = = = % M =.4.4.D.`. X/.g   o % = = = < < < < < < = < = = = ",
"< < < = = = = = = & % = < < = q O.7.0.F.|.|.~.f . X % % 3 < j 3 3 3 < = = = = = = ",
"= < = < = = < < = % % = x F V X.j.S.F.(.#X$X{.l.! _ U 8 1 < 3 < = < = = = = = = < ",
"< = < = = = = = = = = 2 L >.=.h.~.(.[.@X1X3X1X|.(.(.h.t % = - % % = % = = = = < < ",
"< < = < = < = = = = = - J ;.$.g.~.|.|.$X4X4X3X#X.X|.r.e   o % % % % % = = < = = < ",
"= = = = = = = = = 5 4 0 o.y.' b.[.|.].+X>X,X=X#X.X.XN.r $ # ; = = < = < < = = = = ",
"= = = = < = = < x ..P  .j.Y.Q.`.#X-X*X+X>X4X3X*X$X#X|.n.w.V.Z k 3 3 3 3 3 < = = % ",
"= = = = < = < 2 v u.;.y.U.{.{.|.1X3X1X1X3X3X6X3X3X3X-X|.|.|.<.k 3 3 3 3 3 < = = % ",
"< = < = < = < < B ;.#.e.Y.|.@X$X1X2X3X1X4X1X-X-X-X=X+X.X|.|.( % % = < 3 3 < = = % ",
"< = = < < < < < H k.g.Z.(.|.OX%X%X1X1X$X#X|..X$X6X6X*X#X#X@Xb.p C C : % = < < < < ",
"= < = = < = = 3 I /.~.(.@X&X%X%X2X2X$X|.K.B.W.].3X6X>X>X$X1X}.Q.Q.D.y o % < < < < ",
"= = = < < < = < o. X}.|.$X2X>X1X4X4X$X{.m.m.M.'.6X3X=X4X3X3X$X.X X`.s o = = = = < ",
"= % = < < < % & ) @XXX#X1X2X3X6X<X2X&X'.r.g.S.[.5XoX,X2X2X1X+X+XOX'.p o < = % % = ",
"= = = < < < = & ) $X$X$X1X3X1X<X3X4X1X(.f.j.x.`.3XoX3X3X1X%X>X>X*X}.p O 3 < % % = ",
"% % = = 3 < % & ) 3X$X-X3X3X>X4X3X4X-X/.9.t.f.^.3X,X,X3X2X2X1X1X*X Xp O 3 < % % < ",
"= % = < < < = & @.4X2X1X3X3X>X,X3X4X&X!.t.u.a.~.3X5X4X1X2X<X2X4X3X.Xg O 3 < % % = ",
"% = = < < 3 = & @.6X3X1X1X3X3X4X3X4X$X~.+.3.p.~.3X5X5X3X2X2X<X4X:X.Xd O < < % % = ",
"= = < < < < % & @.6X3X1X1X3X3X,X3X4X$Xz.n 7 t I.6X5X<X2X3X2X2X1X3X.Xg O < < % % = ",
"= = < < 3 < = & @.6X3X3X-X1X3X4X3X4X1X| - % w Z.4X5X<X3X2X2X2X1X4X.Xg O 3 < % % = ",
"% = = < < < = & ` 6X3X1X-X1X3X,X4X4X-Xw.- = w F.6X5X,X3X2X4X4X1X6X.Xg O < < % % = ",
"= % = < 3 < = & ` 6X3X1X1X1X3X3X3X4X&Xl.; % , Z.6X5X,X3X2X4X4X3X3X.Xg O 3 < % % = ",
"= = = < 3 < % & @.4X3X1X-X1X=X,X4X2X$X{ - % , Z.7XoXoX3X2X4X4X-X6X}.g O < < % % = ",
"= = < < < < % & ` 6X3X1X1X3X1X4X3X2X1X{ ; = , M.6XoX1X3X2X4X2X1X6X Xg % < = % % = ",
"= = = < < < % & ` 6X3X3X3X3X3X4X3X4X1X{ * = 9 M.6X3X3X1X4X2X2X3X5XXXW % < % = < = ",
"= = = < < < % & ` 6X3X3X1X3X3X<X3X4X1X{ * = 9 M.6X>X1X1X<X4X2X1X6X.XW % < % % < = ",
"= = = < < < % & ` 4X2X3X1X3X1X<X3X4X3X{ + = w M.6X3X3X3X4X2X2X1X6X.XW % = % = = = ",
"= % = < < < % & ` 7X3X3X3X3X1X<X3X4X1X{ + = 9 Z.7X5X3X3X<X2X2X3X5X.XW % < % = < = ",
"= = < < < < % @ ` 6X3X3X1X3X3X6X3X2X1X{ + - 9 M.7X3X1X3X4X4X2X1X5X XW % = = % < % ",
"= = < < < = % & ` 6X1X1X3X3X3X4X2X7X1X} + < 9 F.7X>X3X2X<X2X2X1X5XXXW % = % % < = ",
"= = = < < < % & ` 6X3X3X1X3X4X<X4X6X1X{ + < 9 Z.6X3X3X1X4X4X2X1X6X.XW % = % = = = ",
"= = = < < < % & ` 6X1X3X1X3X3X<X4X2X&X} o = w M.6X3X1X3X<X2X2X1X6XXXW % < % = < = ",
"= = = < < < % & ` 6X3X3X1X3X1X<X6X4X-Xv., 4 n K.6X,X3X1X<X2X2X3X5XXXW % = = % < - ",
"= = = < < = % & ` 6X1X3X3X3X3X<X3X3X1Xn.U G T R.6X,X1X3X<X2X2X3X6XXXW % < % = = = ",
"= < < < < = % + @.4X3X&X&X3X1X2X2X2X&XL.R Y +.~.3X3X3X4X<X2X1X1X3XXXQ % < = % % < ",
"< < 3 < = % % + O.4X3X1X1X2X2X&X2X2X%XR.R Y ,.E.3X3X,XoX<X>X1X-X6X.Xh O 3 < % % = ",
"= < < < < % % & / #X@XOX&X3X3X1X2X2X&X^.*.R ,.^.2X4X5X<X<X4X3X1X3X Xh O < < % % = ",
"= < < < < = % % ^ ~.R._.#X2X<X1X2X2X&X^.5.1.0.^.4X3X4X,X<X4X3X1X6X.Xh O 3 < % % = ",
"< < < < = = % & ~ ~.E.!.@X1X,X<X2X2X&XR.1.,.[ ^.4X3X,X<X<X2X2X1X6X.Xh O 3 < % % = ",
"= < < < < = = % J I.G.~.|.3X3X>X6X2X&X(.0.[ l.).2X1X3X>X4X4X2X3X4X.Xg % < = % O = ",
"= = = = = < = = D j.j.V.^.$X+X+X3X3X&X@XT.Y.^.|.1X3X3X3X2X2X3X3X3X#Xd % < < % % < ",
"= = < < = = - = S 5.2.a.I.{.}.@X3X2X&X#X{.{.|.&X3X3X3X3X2X2X3X1X3X#Xa O < < % % = ",
"= = = < = = = < m 5.4.s.I.{.{.|.1X3X1X$X}.'..X$X3X3X3X3X2X2X3X3X3X#Xa % 3 < % % = ",
"= = = = = < = 5 z Y Y o.c.E.E.).$X1X1X-XOX@X#X$X3X3X3X2X2X2X3X1X-X Xa % 3 < % % = ",
"= = = = - = < < < 6 2 N / 9.[ B.#X4X6X3X3X-X-X1X4X3X3X3X2X2X3X-X-X|.p O < = % % = ",
"< < < = < < < < < % + % H ;.` C. X:X:X=X3X3X4X3X4X3X2X3X2X4X1X}.[./.u o = = = = = ",
"< < < < < < < < = % O - P 6.$.D. X;X;X:X3X3X3X1X3X3X3X3X3X3X#X{.[./.u o % = = = = ",
"= = < = = < = = < % = 2 M F V O.H.Q.Q. X3X3X3X1X1X1X1X1X$X$X_.K.G.D.t o = = = = = ",
"< < < = < < < < = = = < 3 3 < M $.8.q.N.3X3X3X1X3X1X-X$X#X|.L.9.7.<.q % = = = = % ",
"= = < = = = = < = = = < < 3 < v :.6.u.J.3X3X3X:X-X1X$X X|.|.P.p.4.-.0 = = < = = = ",
"= = < = = < = = = = = = = < < z I :.:.A.#X.X#X*X-X-X#X}.).).c.4.:.%.0 < = = = = % ",
"< = = < < = = < = % % % = = = 5 x B M  .r.n.n.`..X@X`.K.z.A. .A m n 3 = = = % % = ",
"< < < < = < = < = % % % % % = = % % % V #.' ] U.}.}.Y.w.@.2.S < = < = % = = % = = ",
"= = = = < = < < = % % = = % % % % - = D 4.2.y.U..X|.U.f.4.i.K 5 = = % = % % % = < ",
"< < < < < < < < < < < = = = % = = < = c E R  .f.C.C.9.O...%.m 3 = % % O O % = = < ",
"< < = < < < < = < < < < = = % = = < % 5 b l - w e > > 8 1 b 3 = = % & % % % = = < ",
"< < = < < = < < = < < < = = < = < < < < = < = = = % = = = < < < = = < = = = < < < ",
"< < < 2 < < < < < < < < 2 < < < < < < = < = < < < < < = < < = < < < < < < < < < < ",
"= < = = = < < = = < = = < = = < = = < = = < = = = = = < = < = < < = < = = = = = = ",
"< = < < < = < < = < < < = < = < < < = < = < < < < < < = = < < = < < = < < < < < < ",
"= = = = < = = < = = = = 2 = = = < = < = 2 = = = = = = = < = < 2 = = = < = = = = < ",
"< = = = = = = = < = = < = = = = = = = = < = = = < = = = = = = = = = = = < = = = = "
};
