/* XPM */
static char *_[] = {
/* columns rows colors chars-per-pixel */
"37 63 97 2 ",
"   c #0A0785",
".  c #09048E",
"X  c #090593",
"o  c #0C0A96",
"O  c #00009B",
"+  c #09079D",
"@  c #0C0A9D",
"#  c #120E9F",
"$  c #2A2787",
"%  c #2C2490",
"&  c #25219E",
"*  c #2D2999",
"=  c #0001A5",
"-  c #0C07A0",
";  c #0C08A2",
":  c #0101AE",
">  c #110BA5",
",  c #0100B1",
"<  c #0E06B6",
"1  c #0200BC",
"2  c #1314BF",
"3  c #2B1EAA",
"4  c #2D21A4",
"5  c #2A20AB",
"6  c #3128A1",
"7  c #0200C0",
"8  c #2E27C7",
"9  c #2325CE",
"0  c #3637CD",
"q  c #2F31D9",
"w  c #3334D4",
"e  c #4945C9",
"r  c #4B4DDC",
"t  c #5557D5",
"y  c #5C59D4",
"u  c #5754DB",
"i  c #5A57D9",
"p  c #6765CD",
"a  c #7279CC",
"s  c #6B69D6",
"d  c #6664DF",
"f  c #6B69DC",
"g  c #767BD4",
"h  c #7776DE",
"j  c #7578DC",
"k  c #7878DD",
"l  c #5857E7",
"z  c #5A5BEA",
"x  c #5A5CF5",
"c  c #595CFD",
"v  c #605BE8",
"b  c #6664E3",
"n  c #6867E2",
"m  c #6C6BE1",
"M  c #6363EA",
"N  c #676CE9",
"B  c #6E6EE8",
"V  c #7577E4",
"C  c #7779E6",
"Z  c #6466F1",
"A  c #6B6FF7",
"S  c #6264FF",
"D  c #797EF2",
"F  c #918DE7",
"G  c #9A99F2",
"H  c #9297FF",
"J  c #9C9EFF",
"K  c #A79EF9",
"L  c #AB9FF8",
"P  c #9EA4FE",
"I  c #A9A3EC",
"U  c #A8A8E9",
"Y  c #AAA0F4",
"T  c #A4ABF5",
"R  c #A2A7FD",
"E  c #AFB4FF",
"W  c #B4B6FF",
"Q  c #B6BDFF",
"!  c #BAC2E9",
"~  c #BCC3F6",
"^  c #BDC3FE",
"/  c #D6DAED",
"(  c #DADDED",
")  c #C4C5FF",
"_  c #C6C9FF",
"`  c #C8CAFF",
"'  c #CCD2F1",
"]  c #CED3FE",
"[  c #D4D6F4",
"{  c #D5DAF5",
"}  c #D9DBF5",
"|  c #D3D4FF",
" . c #D9D6FF",
".. c #D6DAFC",
"X. c #D9DBFC",
"o. c #E1DCFF",
"O. c #DEE4F6",
/* pixels */
": : = : = = : : , : : , : , : : : : : : , , , , , , , , : : : : : : : : : ",
": : : = : : : : : : , : : : : : : : , : : : : : : : : : : : : : : : : : : ",
"= = : : : = : : : : , : : : : : : , , : : : : : : : : : < , : , < , , , : ",
": : : : : : = : : : : : : : : = = : : : = + = = : , = : , , , , , , , , , ",
": , : , , , , : : , : , : : : : = O = + .   X : 1 7 : : , : , , , : , : : ",
", , , , : , , , , : : , 2 9 9 q r t u i y p y 8 , , = : , , , , , , , , , ",
": , : , : , , , , : : : q c x S H E E W ) _ W v < : = = , : : : , : , : : ",
", , , , , : : , : : = : w x z A R ^ Q ) ] ] ` n O = O = , , , , : , , , , ",
": : : : : : , : , : : = 0 Z N D T ! ~ _ ] .._ m O = + : : : : : : , : : : ",
": : : : : : : : , : = - l J P R ^ ' ] ] [ { _ m O : = = : : : : : : : : < ",
", : , , : : : : , : = + M E ^ ^ ] { | ......_ m = , : : , : : , : : : , : ",
", , : , : : : : , : = + b E ^ ~ ] X........._ m = : : : : , , , , , , , : ",
", : , , , : : : , : = @ B ) ) ! [ .. . .{ .._ f = : = : , , , , , , , , , ",
", , , , , : = : , : = o m _ ] ' { | |  .{ } _ s O : = : , , , , , , , , , ",
", , , , , , , : : : : # C | ..{ .. .|  ...X._ f O = = = , , , , , , , , , ",
", , , , , , , : = : : @ j ] X. ..... . ...O._ f + : = : , , , , , , , , , ",
", , , , , , , = = : , @ j ] X.|  .| .. ...X._ f O : = : : , , , , , , , , ",
": , : : , , , : : : : @ j ] X. . ...|  ...{ ` f O : = : : : : : : : : : : ",
", , , , , , , = = : , @ j ] .. . ..... .X.X._ f O : : : , , , , < : , , , ",
": : : , , , , : : : , @ j ] X. ....... .X. ._ f O : = = : : : : : : : : : ",
": : : : , , , = = : , @ j ] .. ....... .....` f O : = = , : : : : : : : : ",
", , , , , , 1 : = : , @ j ] X. . ... . ...X.` f O : = : , , , , : , , , , ",
": : : : , , , = = : : @ j ] X. . .| |  .{ .._ f O , = : , : : , : , : : , ",
", , , , , , , = : : , @ j ] .. . .........X.` f O : = : , , : , , , , , , ",
", , , , , , < : = : , @ j ] X.| ...... ...X.` f O , = : : , , , , , , , , ",
", , , , , , , = : , , - k ] X. . .X... ...X._ f O , : : , , , , , , , , , ",
", , , , , , : = = , , ; h |  .X.X.X... .....` s O , , , , , , , , , , , , ",
", , , , , , : = = , , ; h | X. .X.X. . .....` s O : , : , , , , , : , , , ",
", : , , , , , = = , , ; h | X. .X.X. . . .{ _ s O , , : , , , , , , , , , ",
", , , , : , : = = , , ; h | o. .X.O.X. ....._ s + , , : , : , : , , : , , ",
": : : : : , , = = : , - h ] X.X.X.X.X. ....._ s O : , : , : : : , : , : : ",
": : : : : : : = : , , + h ] X.X.X.X.X. ...{ ] s O : , : : : : : , ; , : : ",
", , , , , , , = = : , ; h ]  . .X.X.X. ...X._ s O , : : , : , , , , , , , ",
", : : : , , : = = , , ; h | X. . .O.X. .....` s O : , : , : : , : : : : , ",
", , , , : , : = = , , ; h | X. .X.X.X. ....._ s O , , : , , , , , , , , : ",
", , , , , , , O = , , > h | }  .X.X.X. .....` s O , , , , , , , , , , , , ",
", , , , , , < = = , , ; h | X. .X.}  . .....` s O : , : , , , , , , , , , ",
", , , , , , : = : , , ; h | X. .X.X.X. .....` s O : , : , , , , , , , , , ",
", , , : , , , = = : , ; h | X. .X.X. . .....` s O : , : , , , , , : , , , ",
", : , , , , , = = , , - h | }  .X.O. . .....` s O : , : , , , : , , , , , ",
", , : , : , : = = , , ; V ] X. .X.X.X. .....` s + , : : : , , : , , : , : ",
": : : : : , : = = , , ; h | X. . .O.X. .....` s + , , : : : : : : : : : : ",
"< : : : : , : = = , , ; h | X. .X.X. . ....._ s O : , : : , : : : : : : : ",
": : , , , , : = = , , ; h | X. . .O.X. .....` s O : , : , , , , , , , , , ",
": : : , , , , = = , , ; h ]  . .X.X.X. .X.X.` s O : : : , , : , : , : , : ",
", , , , , , : = = , , ; h | }  .X.} X. ...X._ s O : , : , , , , , , , , , ",
", , , , , , : = : : , ; j | o. .X.X... ...{ ` s O , , : , , , , , , , , , ",
", , , , , , 1 : : , , @ g | } [ { O.....{ [ ` s O , : : , , , , , , , , , ",
", , , , , , 1 : : : , @ j ] .. . ..... .{ } _ f O : = = , , , , , , , , , ",
", , , : : , , : : : , ; C ] ..|  ...|  ....._ f O : = : , : , : : , : : , ",
", , , , : , , : : , , ; C ] X.|  . .|  .....` f O : = : , , , , , , , , , ",
": : : , : , , : : , , @ j ] X. . ... . .....` f O : = : : , : : , : : , : ",
": : : : : , 1 : : : : o g ] } [ } [ .. .[ [ _ f = , , , : : : : : : : : : ",
": , , : : 1 1 , : : : o a [ ( / ( / { } / } _ m = 1 , , : , , : , : , : , ",
", , , , , , 1 : : , : @ g O.O.O.O.{  .X.}  ._ d = 1 , , , , , , , , , , , ",
", : , , , , , : : , , = C ..X. .o. . . .X.o.` b : , , , , : , , : : , : : ",
", , , , , , : = = , 7 < u G I K L K K Y I U F e = , = : , , , , , , , , , ",
", , , , , : ; = = 1 7 , > & 6 4 3 5 3 4 % $ * > = , = : , , , , , , , , , ",
", , , , , , : , , , , , : = = : = : : = = = = : , , : : , , , , , , , , , ",
", , , , , , , , , , , , , , , , , , : , , , , , , , , : , , , , , , , , , ",
", , : , : : , : , , : , : , : : : : : , : , : : , : : , : , : : , , , : , ",
", , , , , , , , , , , , , , , , , , , , , , , , , , , , : , , , , , : , , ",
": : : : : : : : : : : : : : : : : : : : : : : : : : : : : : : , : : : , : "
};
