/* XPM */
static char *_[] = {
/* columns rows colors chars-per-pixel */
"37 67 101 2 ",
"   c #02029E",
".  c #1D1D9D",
"X  c #262694",
"o  c #212199",
"O  c #32339C",
"+  c #0100A5",
"@  c #0100A8",
"#  c #0C0CAD",
"$  c #0F10AA",
"%  c #1212A5",
"&  c #1A1AA2",
"*  c #1011AA",
"=  c #0C0CB1",
"-  c #1A1BB0",
";  c #1F20AB",
":  c #2524A6",
">  c #2C2DA1",
",  c #2020AA",
"<  c #3837E4",
"1  c #3938E4",
"2  c #3B3BEC",
"3  c #3E3EF2",
"4  c #423FFA",
"5  c #4F4EDB",
"6  c #4F50D8",
"7  c #5A5BD7",
"8  c #5B5BD9",
"9  c #7577DD",
"0  c #787ADA",
"q  c #4546E4",
"w  c #4845E4",
"e  c #4B4CE4",
"r  c #4749E8",
"t  c #4B4BEC",
"y  c #514FE9",
"u  c #4F53E2",
"i  c #4E51E8",
"p  c #5152E2",
"a  c #5557ED",
"s  c #5559ED",
"d  c #585BEF",
"f  c #4C4CF0",
"g  c #4241FC",
"h  c #595DF5",
"j  c #5A5EF8",
"k  c #5D61FB",
"l  c #6466E5",
"z  c #6669E2",
"x  c #6A6DE5",
"c  c #6163E9",
"v  c #666AEB",
"b  c #6A6DEE",
"n  c #6D70E9",
"m  c #7174E2",
"M  c #686CF0",
"N  c #6164FF",
"B  c #B2B2DA",
"V  c #8787EB",
"C  c #9292EB",
"Z  c #9897EB",
"A  c #9798EB",
"S  c #9B9CF6",
"D  c #9494FA",
"F  c #9C9DFB",
"G  c #9FA0FB",
"H  c #A1A4EA",
"J  c #ABADEB",
"K  c #B0AFE9",
"L  c #AEB0EA",
"P  c #BBBCE9",
"I  c #A4A5F2",
"U  c #A8A7F4",
"Y  c #A7A8F4",
"T  c #A1A2FC",
"R  c #A6ABF9",
"E  c #ADAFF9",
"W  c #AEB3FA",
"Q  c #B4B6F7",
"!  c #B4B8F7",
"~  c #BFBFF7",
"^  c #B2B6FA",
"/  c #B3B8F8",
"(  c #BBBEFC",
")  c #BEC0F7",
"_  c #BDC1FB",
"`  c #C6C5EA",
"'  c #C9C7EA",
"]  c #C7C9EA",
"[  c #C9C9EA",
"{  c #C2C3F5",
"}  c #CDCDF7",
"|  c #C1C3FA",
" . c #CCCCF9",
".. c #CED1FA",
"X. c #D4D5FC",
"o. c #D8D7FD",
"O. c #D6D8FD",
"+. c #DBDBFF",
"@. c #E0DFFF",
"#. c #DFE2FF",
"$. c #E1E1FF",
/* pixels */
"+ @ + + + + + + @ @ + @ + @ @ @ + + @ + + + + + + @ + + + + @ @ + + + + + ",
"+ + + @ + + + @ + + + + + + @ @ + + @ @ + + + + + + + @ + + @ @ + @ @ @ + ",
"+ @ @ @ @ + + + + + + +     + +     +   +   + + + + + + + + + + + + @ @ + ",
"+ + @ @ + + $ * * % o o o o X X X X X X X X X X X o % * * * + + @ + @ @ @ ",
"+ + @ @ + % u d s c H J J L ` ] [ [ ' [ ' ' ' ' [ P l s d u * + + + + @ + ",
"+ @ @ + + * d N k M W _ ( ) +.@.+.#.+.$.@.@.@.+.#.X.x k k d * + + @ + + + ",
"+ @ + + + * s k k v W ( ( ~ O.+.+.+.+.+.+.+.+.+.+.} x h k a * +   + @ @ + ",
"+ + @ @ + % c b v m ! ) ~ { O.+.+.o.+.O.+.+.+.+.+.} 0 x n z , * * * @ + + ",
"+ + + + @ . H ^ W ! X.O.O.O.+.+.+.+.+.O.+.+.+.+.+.O.} ....) v i d p $ + + ",
"+ + + + + o J _ _ ) O.+.+.O.+.+.+.+.+.+.+.O.+.+.O.#.O.O.#...x k N d * + + ",
"+ @ + + + o J ~ ( ) O.+.+.+.@.+.+.+.+.+.+.+.+.o.+.+.+.#.+.} x k k s * + + ",
"+ + + +   o K { ~ ) X.O.O.O.} } } } O.O.O.O.+.+.+.+.+.O.#.} 0 x x z %   + ",
"@ @ + @   o ` +.O.X.{ ) ) ! 9 x z 9 ! ) ) { o.+.+.o.+.+.+.O.} ....P o   + ",
"+ + + +   X ' @.+.O.) ( _ W l k k v W ( ( _ o.+.+.+.+.+.+.+.+.+.$.[ X   + ",
"+ + @ +   X [ +.+.+.) _ _ W M k k M ^ _ ( ) O.+.+.O.+.+.+.+.@.o.+.] X     ",
"+ + @ @   X ` +.O.X.W W W T c s s c R W W ! X.O.O.O.+.O.+.+.o.@.$.] X     ",
"+ @ + + + o L { | Q 8 e a q - * % ; c b v m ^ ) ~ { O.+.+.o.+.o.+.] X   + ",
"+ + + +   o J _ ( E e 3 g 2 = + + $ s k j b W ( ( ~ O.+.+.+.o.+.#.] X + + ",
"@ + + + + o L | | ^ y g g 3 = + + * s k k v W _ ( ( O.#.o.o.o.+.+.] X     ",
"+ + + +   o A L K A e 2 3 1 = + + $ p h s c W _ ( _ O.O.+.@.@.+.#.] X +   ",
"@ + @ + +   o o o . $ # = = + + + + * * $ > L _ ( ( X.+.+.+.+.+.+.] X +   ",
"+ + @ @ + +   + + + + + + + + + + + + +   o J _ ( ~ O.O.+.+.+.+.@.] X     ",
"+ + @ @ @ @ + + + + @ + + @ + + + + + + + o J _ ( ~ O.+.+.+.+.+.#.` X   + ",
"+ @ + + + @ + + @ + + + @ + + @ + + # = # > L ) ~ { O.+.+.o.O.X.O.` X   + ",
"+ + +   + + + @ + + @ + @ + + + + = 1 4 2 6 { o.o.o.o.+.+.O.) _ { L o + + ",
"@ + + + + + + + @ + @ + + @ + @ + $ 4 g 4 p } @.+.+.+.+.+.O._ ( _ J o + + ",
"@ + + + + + + + @ + + + + @ @ @ + = 1 g 4 5  .@.+.+.+.+.+.O._ ( _ L . + + ",
"+ + @ + + + + + @ + + + + + @ @ + $ q t t 8 { @.+.+.+.o.+.X.Q W ^ H . + + ",
"+ @ + +   + + + + @ + + + + + @ + & V D D S X.o.+.+.+.o.+.} 9 v M c % + + ",
"+ + + +   + + + + + + + @ @ + +   . C T F I o.o.+.o.+.+.+.} x h k s * + + ",
"@ + + + @ + + + @ @ + + + @ + + + . C F F I X.@.@.@.+.+.#. .n k k d * + + ",
"+ @ @ + + + + @ + + + + + @ # = # : A I U J X.o.o.o.o.o.+. .z s d u $ + + ",
"+ + @ + + + + + + + + +   # < 4 2 5 { O...X.+.O.+.O._ _ ) L > $ * * + + + ",
"+ + + + @ @ @ @ + + + +   # 4 g 4 p  .+.+.O.#.O.+.O._ _ _ L o   + + + + + ",
"+ + @ + + + + + + + + + + # 4 4 3 u  .+.#.O.+.+.+.O._ _ _ L o + + + + + + ",
"+ + + + + @ @ @   + + + + # w f r 8  .#.O.O.+.+.+.X./ W ^ H o + + + + + + ",
"+ @ + + + + + + + @ + @ + & V D D S ..+.O.+.+.+.+...9 v M c % + + + @ @ + ",
"+ + @ + + + @ + + @   + + . C T F I X.+.O.#.+.+.+. .z h k d % + + + @ + + ",
"@ @ + + + @ + @ @ @ + +   . C G S I X.+.O.+.+.+.+...n k N d * + + + + +   ",
"@ + + + + + + + @ @ # # # : Z U I J X.+.+.O.+.O.O. .z s d p * + + @ + + + ",
"@ + @ + + + + + + # 1 3 2 6 | o.X.X.o.@.+.O.{ ~ ) L > $ * $ + + + + + + + ",
"+ @ + @ + + + + + = 3 g 4 a  .+.+.o.+.o.+.O.~ ( _ J o + + + + + + + + @   ",
"+ + + + + + + + + = 2 g 3 6  .+.o.o.@.+.+.o.~ ( _ J o + + + + + @ @ @ @ + ",
"+ @ @ + @ + @ @ + $ q t r 7  .+.@.o.o.o.o.X.Q W ( H & + @ + + + + @ @ @   ",
"+ + + + @ @ + + + & V D D S X.+.+.O.{ _ _ / m v M c % + + + @ + + + + + + ",
"@ @ + + + + + + + . C G F I X.+.+.O.~ ( ( W v j k a * + @ @ + + @ + + @   ",
"+ + + + @ + + +   . C G S I X.+.+.o.| ( _ ^ v N N d * + + @ + @ + @ @ @ + ",
"+ @ + + + @ # # # : A Y H U O.+.o.X.^ W W R l a d p $ + + + + @ + @ @ @ + ",
"+ + + + + = < 3 2 6 { o.X.X.o.+.+...0 v v c , % $ $ @ @ + + + + + + + +   ",
"@ + + + + = 3 g g p  .+.o.@.@.o.+. .x h j d %   + + @ @ + + @ @ @ + + +   ",
"@ + @ + + = 2 g 3 p  .+.+.+.+.+.+...x h k s %   + + +           + + + + + ",
"+ + @ + + # r t r 8  .+.o.+.+.+.+.} 0 x b z O X X X X X X X X X X o   +   ",
"+ @ + + + & V D D S X.+.+.+.+.+.+.+.} } } } [ ] ' [ ] ] [ ] [ [ [ B X + + ",
"+ + + +   . C T F I X.+.+.+.+.o.+.+.@.+.+.+.@.#.@.@.+.#.+.#.+.#.$.[ X + + ",
"+ + @ + + . C G F I X.+.+.o.o.@.+.+.+.+.+.+.+.O.+.O.+.+.+.#.O.+.+.] X + + ",
"+ @ + + + . Z I I J O.+.+.o.@.o.+.+.+.+.+.+.+.+.+.+.+.+.+.O.+.+.$.] X   + ",
"+ + + +   X ` +.X.X.o.+.+.+.o.+.+.+.+.+.+.+.+.O.+.+.o.+.o.@.o.+.+.] X   + ",
"+ + + +   X [ $.+.o.@.+.+.+.+.+.+.+.+.+.+.o.O.+.+.+.+.o.o.o.@.+.@.[ X + @ ",
"+ + + +   X [ $.+.+.+.+.+.+.+.+.+.+.+.+.+.+.+.+.+.+.@.@.@.o.+.+.@.[ X   @ ",
"+ + + +   X [ $.@.@.@.@.#.$.@.@.$.$.$.$.@.@.$.$.@.$.@.$.@.@.$.$.$.[ X   @ ",
"+ + + @ + o B [ ' ' ] ' ] ] ` ] ` ] ' ] ' ' ' ' ' [ ' [ ` ] ' ] ] B o + + ",
"@ + + + +   o X X X X X X X X X X X X X X X X X X X X X X X X X X X   + + ",
"@ + @ + + + + +       + + + +   +     +   + +   + + +   +   +   + + + @ + ",
"+ + @ + + + + + + + + + + + + + + + + + + + + + + + + + + + + + + + + + @ ",
"+ @ @ @ @ + + @ + + @ + + @ @ + + + @ + + @ + + + @ @ + + + @ + + @ + + + ",
"+ + + + + @ + + @ + + @ + + + + @ + + + @ + + @ + + + + @ + @ + @ + + @ @ ",
"+ + + + @ + @ + @ + + + @ + + @ + + + + @ + + + @ + + @ @ + + @ @ + @ @ + "
};
