/* XPM */
static char *_[] = {
/* columns rows colors chars-per-pixel */
"42 63 215 2 ",
"   c #020074",
".  c #02017D",
"X  c #00008D",
"o  c #090B8A",
"O  c #09118C",
"+  c #000093",
"@  c #0A0E96",
"#  c #00019C",
"$  c #09079E",
"%  c #0A0A9E",
"&  c #0B1192",
"*  c #0A109B",
"=  c #141396",
"-  c #1A1C94",
";  c #221F87",
":  c #231E9B",
">  c #23289C",
",  c #353295",
"<  c #0101A5",
"1  c #0905A2",
"2  c #0708A2",
"3  c #0A0BA4",
"4  c #0000AD",
"5  c #0904AF",
"6  c #0C0DA9",
"7  c #110EAC",
"8  c #1212A4",
"9  c #1E19A4",
"0  c #1D18A7",
"q  c #0100B1",
"w  c #0905B3",
"e  c #0C0AB4",
"r  c #0200BB",
"t  c #0C07B9",
"y  c #0C0CBB",
"u  c #110EB2",
"i  c #1210B2",
"p  c #1D1AB3",
"a  c #1313BC",
"s  c #211BA7",
"d  c #1E21A0",
"f  c #2226A9",
"g  c #2826B3",
"h  c #342FBC",
"j  c #3939B7",
"k  c #4040A6",
"l  c #4747BF",
"z  c #4847BE",
"x  c #4A4BBD",
"c  c #5558B5",
"v  c #625DB9",
"b  c #0100C1",
"n  c #0D05C1",
"m  c #0E0CC4",
"M  c #120CC8",
"N  c #1C1BC3",
"B  c #1B16C9",
"V  c #231EC5",
"C  c #231DCC",
"Z  c #221AD3",
"A  c #2725C6",
"S  c #2325CB",
"D  c #2B2ACB",
"F  c #322DCC",
"G  c #3333C2",
"H  c #3B3BC2",
"J  c #3233CD",
"K  c #3A3CCA",
"L  c #2A25D5",
"P  c #2B29D8",
"I  c #322FDD",
"U  c #2E30D7",
"Y  c #3331DC",
"T  c #3937D9",
"R  c #2E29E4",
"E  c #3B3AE9",
"W  c #3D36F2",
"Q  c #423DCD",
"!  c #413ED3",
"~  c #413CDC",
"^  c #423BEC",
"/  c #413AF4",
"(  c #474AC5",
")  c #4B4ACC",
"_  c #504FCE",
"`  c #5856C9",
"'  c #4A46D3",
"]  c #4C4ADA",
"[  c #4F56DC",
"{  c #5552D2",
"}  c #5959D6",
"|  c #615BC7",
" . c #625CD2",
".. c #5E64CD",
"X. c #6567CA",
"o. c #7A78CF",
"O. c #6468D5",
"+. c #6968D6",
"@. c #6662DC",
"#. c #6D6BDB",
"$. c #6D79D9",
"%. c #7578D7",
"&. c #4441EA",
"*. c #4845EB",
"=. c #534FEA",
"-. c #5857E3",
";. c #5C5AEB",
":. c #4B4BF7",
">. c #4A44FA",
",. c #524CF9",
"<. c #4B50F2",
"1. c #5754F7",
"2. c #5F5CF3",
"3. c #5B56FE",
"4. c #5C5AFE",
"5. c #605DE4",
"6. c #625EEC",
"7. c #605EF4",
"8. c #635DFC",
"9. c #5E66EC",
"0. c #5F65FC",
"q. c #6A67E4",
"w. c #6565ED",
"e. c #716BEE",
"r. c #6E77E9",
"t. c #7577E4",
"y. c #7C7CEB",
"u. c #6761F6",
"i. c #6C6AF3",
"p. c #6263FD",
"a. c #6768FD",
"s. c #6B6BFC",
"d. c #736EF5",
"f. c #736BFA",
"g. c #6B75F1",
"h. c #7475F1",
"j. c #7A7AF3",
"k. c #7A76FE",
"l. c #7578FA",
"z. c #7B7AFD",
"x. c #817EFD",
"c. c #7180D9",
"v. c #7E81FB",
"b. c #8986DD",
"n. c #8788D9",
"m. c #948FDE",
"M. c #8B8AE2",
"N. c #8787EA",
"B. c #9188EF",
"V. c #8C91E9",
"C. c #969AE6",
"Z. c #868AF3",
"A. c #8988F5",
"S. c #8483FE",
"D. c #8B8DFE",
"F. c #928EFA",
"G. c #8E90FC",
"H. c #9C9CF5",
"J. c #9594FE",
"K. c #9995FF",
"L. c #9C9BFE",
"P. c #A39EFE",
"I. c #9AA3EE",
"U. c #9EA2F5",
"Y. c #ACADEC",
"T. c #BCBAE8",
"R. c #A3A4F3",
"E. c #ADA6F0",
"W. c #A5AAF5",
"Q. c #ABACF7",
"!. c #A5A5FE",
"~. c #A8A7FE",
"^. c #A6AAFC",
"/. c #ABACFD",
"(. c #B1AFF3",
"). c #B3ADFF",
"_. c #ADB1FE",
"`. c #B4B7F5",
"'. c #BABCF4",
"]. c #B3B4FD",
"[. c #B9B6FD",
"{. c #B5BBFE",
"}. c #BBBBFE",
"|. c #C2BDFF",
" X c #BDC3F6",
".X c #BDC2FE",
"XX c #BFCBFD",
"oX c #C8CDEC",
"OX c #D1D7ED",
"+X c #D2DCED",
"@X c #C1C7F3",
"#X c #C4C9F4",
"$X c #CAC9F3",
"%X c #C3C3FE",
"&X c #C9C3FF",
"*X c #C5CBFD",
"=X c #CACCFE",
"-X c #D6CDFF",
";X c #D9CEFF",
":X c #CBD3FE",
">X c #CBD8F9",
",X c #D3D3F5",
"<X c #D9D4F5",
"1X c #D5DAF5",
"2X c #D9DCF6",
"3X c #D4D5FE",
"4X c #D9D6FE",
"5X c #D5DAFD",
"6X c #DADCFE",
"7X c #E0DCFF",
"8X c #D5E1EB",
"9X c #D4E0F0",
"0X c #D6E0FF",
"qX c #DBE1FE",
"wX c #E1E2FF",
/* pixels */
"q q 4 4 4 4 4 4 q q q q 4 4 4 4 q q q 4 4 4 q 4 q q q q q q 4 4 4 4 4 4 4 4 4 4 < 4 ",
"q q 4 4 4 < < 4 q q q q q q q 4 q q 4 4 4 4 4 q 4 q 4 4 q 4 < 4 4 < 4 < < 4 4 4 4 4 ",
"q q 4 4 4 < 4 < 4 4 4 q q 4 4 4 4 4 4 4 4 4 4 4 4 4 4 4 4 4 4 < < 4 4 < 4 < 4 < q q ",
"q 4 4 4 4 4 4 4 4 4 4 4 q 4 4 4 < 4 4 q 4 4 4 4 4 4 < 4 < < 4 4 4 4 4 4 4 4 4 4 q q ",
"q 4 4 4 4 4 4 4 5 4 4 < 4 q 4 q 4 4 4 4 4 4 4 4 4 4 4 4 4 4 q 4 < 4 4 4 4 4 4 4 r r ",
"q q q 4 4 4 q 4 < 5 1 < < w q q 4 < 1 $ 1 5 w 5 < 4 t q b r q 4 < 4 4 4 q 4 < < 4 q ",
"q q q q q q q w C T ! K ]  .} } ....X.+.@.@.+.O...O.} J P I B 4 < < 4 4 q 4 < < 4 q ",
"4 4 q 4 4 q 4 w E k.z.S.L.].].}.*X=X:X*X*X*X*X*X*X:X_.h.2.4.U 4 < 4 4 4 q 4 4 < 4 4 ",
"q q q 4 q q q 4 F z.S.V.!.}.'.%X3X<X5X5X5X0X9X8X9X0X'.y.6.u.J < < q q 4 q 4 < 4 4 q ",
"4 q 4 4 4 q 4 2 H S.N.V.Q.|.}.|.-X4X4X5X5X1X1X1X1X5X}.A.e.a.K 6 < q q 4 4 4 4 4 q 4 ",
"4 4 q 4 4 4 4 < ) !.^.].}.6X-X-X4X;X,XOX1X3X5X3X>X3X*X}.[.{.9.2 < q q 4 < 4 < 4 4 4 ",
"q q 4 q q 4 4 1 _ _.]..X#X6X5X3X4X4X1X+X1X5X4X3X3X5X4X4X6X0Xg.* 4 r r 4 4 < 4 q q q ",
"q q q q 4 q q 1 { ].{.@X$X1X1X3X<X<X2X5X5X3X3X5X4X6X2X1X2X0Xr.& < r r 4 < < 4 q q q ",
"q 4 4 q q q q % { }.*X*X X#X*X%X`.Q._.^.]._._.*X>X1X+XOX1X0X$.O < r r 4 < < 4 q q q ",
"q q q q q q q % | %X-X:X.XW.!.D.d.6.u.s.z.j.N._.5X5X5X5X6X0Xc.& < r r 4 < < 4 r q 4 ",
"q q q q q q q %  .3X5X=X{.L.K.z.,.W / >.4.-.O.W.qX6X1X3X4X0Xc.& 4 r q 4 < 4 q q q q ",
"q q q q q q q $ } -X>X:XQ.K.L.x.1.&.>.>.4.7.t.^.6X1X1X<X4X0Xc.O q r q < 4 q q q q q ",
"q 4 q q q q q % ` *X:X.Xn.( =.^ L V P W ,.2.i.!.6X5X1X1X<X0X$.@ q r 4 < q q q 4 q q ",
"4 q 4 q 4 q q $ ` }..XW.c o 7 t w 4 w P 3.8.d.!.4X3X3X1X5X0Xc.* q q 4 < 4 q q 4 q 4 ",
"4 q q 4 q q q 2 { [..X^.x X < w q q < V 4.u.e.^.6X5X5X5X5X5Xr.3 q q < < q r r 4 4 q ",
"4 4 q 4 4 q 4 1 ' ~./.L.K 1 4 r n b w F u.q.X.(.6X>X>X>X:X>Xg.$ q q < < q r q 4 4 q ",
"q 4 4 4 4 4 q < 6 J T D a q q M / >.^ f.K.P.Y.T.1X5X*XC.v.G.! 6 q 4 < < q r q < 4 4 ",
"4 q q q q q 4 4 4 4 < 4 q q 4 B ,.8.8.F.|.|.|.oX9X>X{.t.5.9.h 4 q 4 < < q r q < 4 q ",
"q q 4 q 4 q q 4 5 q q r r w < p =.5. .B.).).|.|.0X>X{.z.0.0.D e 4 < # < r b q # 4 4 ",
"q 4 q q q 4 q 4 < q r r M N p j q.Z.b.E.|.}.|.).U.U.D.;.^ <.S r 4 < # < r r q # 4 q ",
"q q q q q q q 4 < q q m &.s.g.Z._.*X%X$X&X-X).#.- d p u e a 4 q q < # < r b q # 4 q ",
"q q q 5 q q q 4 < < < y <.z.S.L.*X5X2XqX4X7X|.` X X # < < 4 < 4 4 < # < 4 q 4 < 4 4 ",
"q q q q q q 5 4 4 < < u &.k.z.J.*X:X1XqXwX7X|.v   o $ # < 4 < < < < < < 4 4 4 q q q ",
"q 4 q 4 q q q 4 4 4 4 5 A *.Q #.}.*X$X,X6X6X-Xm.| q.[ F S D a 4 < 4 < < < < 4 4 q q ",
"q q q q 4 q q q q 4 4 < 5 5 + j L.{. X$X4X4X6X-X<X4X).k.0.1.Y y 4 4 4 4 4 4 4 4 4 q ",
"q 4 q q q q 4 5 q 4 4 4 < 5 # h L.}.}.*X4X3X4X6X4X4X[.y.-.4.U q < 4 4 4 4 4 4 < 4 q ",
"q 4 5 4 4 4 q q q q 4 w q 4 # D G././.[.-X4X4X<X7X4X}.M.#.s.] i 5 t w 4 4 4 4 < 4 4 ",
"4 4 4 4 4 4 q q r q 4 q q q 4 A s.v.h.J./.Q.T.oX7X3X&X|.[.~.f.] ~ Y a 5 4 4 4 < 4 4 ",
"q q q q q q q q q q 4 4 4 q q N <.a.w.v.L.R.Y.$X<X<X4X<X3X3XP.w.6.=.V 4 q 4 < 4 4 q ",
"4 q 4 q q 4 q q r q 4 4 4 q q B :.0.0.l.K.L.^.'.3X4X6X6X6X6XU.X.5.-.p 4 q 4 4 < 4 q ",
"q 4 q q q q q q q 4 4 < 4 q r m E *.<.0.v.D.H.].5X4X6X6XqX6X`.n.A.h.A < 4 q 4 4 4 q ",
"q q q q q 5 q q q 4 4 < 4 q b r y y e T p.w.y./.6X3X5X1X1X6X3X%X&X~.] # q q 4 4 q q ",
"q q q q q q 5 4 4 4 2 < 4 q r q 4 < # S 4.1.d.E.6X4X5X3X1X2X6X3X6X|.) + 4 q 4 4 4 q ",
"q q 5 q q q q 4 4 < 4 4 q r r q < < # S 3.4.f.~.6X4X4X4X5X2X2X1X6X%Xz + w q 4 < 4 q ",
"q 4 q q q q q 4 4 4 4 4 4 q q q 4 < # a R P ' H.6X5X5X6X4X6X6X5X6X%Xl + q q q 4 4 4 ",
"q q 4 q 4 q q q q q q q 4 4 4 4 4 4 4 < r < s b.6X5X4X4X5X6X5X4X6X|.( + r r q 4 q q ",
"4 4 q q q q q q q r q 4 4 < < 4 4 q 4 < r q s b.wX4X5X5X6X6X2X1X6X%Xl # r r q 4 4 4 ",
"4 q q 4 4 4 4 q r r q 4 6 8 8 6 < w 4 < r 4 9 M.wX6X4X5X1X2X2X1X6X.Xx + 5 q 4 < 4 4 ",
"4 4 4 4 q 4 4 q w w 4 3 ] j.j.-.i 4 4 4 r 5 9 b.wX4X4X4X1X6X2X,XqX}.x X 5 4 < < 4 q ",
"q q q q q q 4 w 3 4 # 8 j..X.XD.g w 4 4 r q 9 M.qX4X6X3X1X4XqX3X6X}.z + w 4 < # 4 q ",
"q 4 4 4 q q q 4 # # + - $.{. Xv.9 # # < r 4 9 b.wX4X4X5X4X4XwX3X6X*X) # w q 4 # 4 q ",
"q q q q q q q < p J J _ V.XXXXI.x D P N r 4 s b.6X4X4X5X5X6X&XI.P.B.G < b r 4 4 4 q ",
"q q q q q q q 5 K L.G.U..X>XXXXXD.S.z.<.m 4 s M.6X5X3X4X6X7XM., ; : 1 w b b q 4 4 q ",
"q q q q q q q 3 { |.|.|.=X5X5X*X).P.L.[ 3 X = N.wX0XqX5XqXqXq.O . + < 4 q q 4 4 q q ",
"q q q q 5 q q 3 { |.[.}.=X4X4X*X(.P.L.} & . - N.5X5X5X5X3XqXg.& + # < 4 4 4 4 4 4 q ",
"4 4 q 4 q 4 q 2 ! K.F.C.'.5X5X=X|.`.[.H.%.| %.Q.:X:X`.n.o.y.h @ + < 4 4 4 4 4 < 4 q ",
"q q q q q q q 5 F f. .o.Q.5X5X4X,X3X3X3X-X*X=X=X*X%Xb., o @ + # < < 4 4 4 4 4 < 4 q ",
"q q q 4 4 q 4 w L p.6.t./.6X5X5X5X6X<X3X5X4X=X*X.X.XA.g # $ # < 4 4 4 q q 4 < 4 4 q ",
"4 4 4 4 4 4 4 q Z 3.1.w.J.*X%X*X:X:X5X<X,X,X3X'.Q.!.z.A 4 4 < 4 4 q q 4 4 4 4 < 4 q ",
"4 q 4 q 4 q 4 q n Z V F ;.D.V.R.}.@X#X,X7X<X=Xx.k H F t q r 4 q q q 4 4 4 4 < 4 4 4 ",
"q q q q q q q q 4 q < e J 6.} t.!.{.[.$X3XoXoXc . + q q b q q q q 4 4 4 4 4 < 4 4 q ",
"4 4 q 4 4 q q 4 # 4 4 y I p.2.z.^.{.}.*X5X5X.X` + < r q 4 4 4 4 4 4 4 4 4 4 < 4 4 4 ",
"q q q q q q q 4 2 < < r R :.*.;.j.Z.Z.V.R.W.Z.K < q r q < < 4 4 4 4 4 < 4 < 4 4 q q ",
"q q q q 5 q q 4 < < 4 q r M t i p f 9 - > f d 3 q b q 4 < < 4 4 4 4 4 < 4 4 4 4 q q ",
"q q q q q q q 4 4 4 q q q q 4 4 4 < < < < 4 q 4 q q q q 4 4 q q 4 q 4 4 q q q q q q ",
"q q q q q q q q q q q q 4 q q q q q q q q q q q q q q q q q q q q q q q q q q q q q ",
"q 4 q 4 q 4 q 4 q 4 q 4 q 4 q 4 q q q 4 4 q 4 4 4 4 4 4 4 q 4 q 4 q 4 q q 4 q 4 q 4 ",
"q q 4 q q 4 q q q 4 q q q q 4 q q 4 q q q q q q q q q q q q 4 q q q 4 q q q 4 q q q "
};
