/* XPM */
static char *_[] = {
/* columns rows colors chars-per-pixel */
"25 58 90 1 ",
"  c #000094",
". c #00009C",
"X c #0000A5",
"o c #0404AA",
"O c #0606B0",
"+ c #090AB2",
"@ c #1717B0",
"# c #1F20B2",
"$ c #2626B4",
"% c #2728B8",
"& c #3131B5",
"* c #3737BB",
"= c #3B3BBD",
"- c #4544BD",
"; c #1D1DD2",
": c #2121D5",
"> c #2727DC",
", c #3B3DD0",
"< c #2828FF",
"1 c #3535FF",
"2 c #3837FF",
"3 c #3A3AFF",
"4 c #3F42F0",
"5 c #4747C2",
"6 c #5151C6",
"7 c #4343D7",
"8 c #5557D0",
"9 c #5A5CD0",
"0 c #6061D0",
"q c #6B6BD1",
"w c #6E71DA",
"e c #7474D5",
"r c #7A7AD7",
"t c #4B4FF1",
"y c #4545FF",
"u c #474CFF",
"i c #4A4AFF",
"p c #4E53FF",
"a c #5156FF",
"s c #555AFF",
"d c #5A5EFF",
"f c #5D62FF",
"g c #7575E7",
"h c #7575EB",
"j c #7C7DE8",
"k c #6B6FF5",
"l c #6166FF",
"z c #666AFF",
"x c #696DFF",
"c c #7377FF",
"v c #7579FF",
"b c #797AFF",
"n c #7E82FF",
"m c #8787DC",
"M c #8385E4",
"N c #8689E5",
"B c #8B8EE8",
"V c #8C90E8",
"C c #8284FF",
"Z c #868AFF",
"A c #8A8DFF",
"S c #8E92FF",
"D c #9595FF",
"F c #9B9CFF",
"G c #9FA2F2",
"H c #9FA1FF",
"J c #A6AAF4",
"K c #A3A3FF",
"L c #A4A8FF",
"P c #ACADFF",
"I c #AFB3FF",
"U c #BDBDF2",
"Y c #B2B3FF",
"T c #B6BAFF",
"R c #BABDFF",
"E c #BEC1FF",
"W c #C6C6F6",
"Q c #C3C5FF",
"! c #C6C9FF",
"~ c #CACCFF",
"^ c #CED2FF",
"/ c #D3D5FF",
"( c #DBDBFF",
") c #E0DFFF",
"_ c #E4E4FF",
"` c #E8E7FF",
"' c #ECECFF",
"] c #F0EFFF",
"[ c #F5F5FF",
"{ c #FDFDFF",
/* pixels */
"XXXXXXXXXXXXXXXXXXXXXXXXX",
"XXXXXXXXXooXXXXXXXXXXXXXX",
"XXXXXXXX.........XXXXXXXX",
"XXXXXX>;7rrrrrrrrmXXXXXXX",
"XXXXXXi3C]__`____{XXXXXXX",
"XXXXXXi3b_((((((([.XXXXXX",
"XXXXXXy3b_((((((([XXXXXXX",
"XXXXXXy2b)((((/RR/XXXXXXX",
"XXXXXXi2b_((((!DDPXXXXXXX",
"XXXXXXy3b_((((~DFYXXXXXXo",
"XXXXXXy3b_((((!DFPXXXXXoX",
"XXXXXXxdA_(/()P<33XXoXXXX",
"XXXXXXzsA_((((Y1yy.XXXXXX",
"XXXXXXxsA_((()Y13iXXXXXXX",
"XXXXXXzaA_(((_Y3yiXXoXXXX",
"XXXXXXSnK)((YEN . XXXXXXX",
"XXXXXXSvF_((TQB.XXXXXXXXX",
"XXXXXXZcF_((T!V.XX..XXXXX",
"XXXX.XELR(()HPj.X.MNw.XXX",
"XXXXXX^E~(((DKh.X.!~J.XXX",
"XXXXXX^R!((_DLg X EEG.XXX",
"XXXXXX^R!((_ZSh#%@Q!J.XXX",
"XXXXXX^R!(/`uav/~!(_E.XXX",
"XXXXXX^R!((`pdvQET(_U XXX",
"XXXX.X^T!((`advQRT((U.XXX",
"XXo+O+/E!(/_ytk~ER(_U.XXX",
"..:iyy')~TR~  &]((((U.XXX",
"X.;y34'(^TR^ .*'((()U.XXX",
"X.;333'(^RQ/..*'((((U.XXX",
"X.,nvv_(QFFY.X*'((((U.XXX",
"X.,Ann_(QDFP X*'((((U.XXX",
"XX,Zbn__QFFP..*'(((_UXXXX",
"XX,nvv_(!FKY.X*'/(()U.XXX",
"..8RII))Yfzv X*'((((U.XXX",
"X.9!ER()Ppfz X*'((((U.XXX",
"X.9!TE()Ppsl .&'((()U XXX",
"X.0^Q!((RCZS-5q_(/((W=6$X",
"X.q'(((((___''_(((((('[e.",
"X.q`(((((((((((((((((('q.",
"X.r{[[[[[[[[[['((/((_[{rX",
"XXX. ..X... . $'((((U  .X",
".XXXXXXXXXXXXX*'((((U.XXX",
"XXXXXXXXXXXXXX*'(/()U.XXX",
"XXXXXXXXXXXXX.*'((()U.XXX",
"XXXXXXXXXXXXX.*'((((U.XXX",
"XXXXoXXXXXXXXX*]((((UXXXX",
"XXXXXXXXXXXXX.*'(/(_U.oXX",
"XXXXXXXXXXXXXX*'((((U.XXX",
"XXXXXXXXXXXXXX*[((((U.XXX",
"XXXXXXXoXXXXXX*'/(()U.XXX",
"XXXXXXXXXXXXXX*'((((U.XXX",
"XXXXXXXXXXXXXX*'((((U.XXX",
"XXXXXoXXXXXXX.*'((((U.XXX",
"XXXXXXXXXXXXXX*'(((_W.XXX",
"oXXXXXXXXXXXXX*'(/((U.XXX",
"XXXXoXXXXXXXXXXX. ...XXXX",
"XXXXXXXXXXXXXXXXXXXXXXXXX",
"XXXXoXXXXXXoXXXXXXXXXXXXX"
};
