/* XPM */
static char *_[] = {
/* columns rows colors chars-per-pixel */
"39 75 117 2 ",
"   c #000094",
".  c #00009C",
"X  c #0000A5",
"o  c #0708A6",
"O  c #0A0AA5",
"+  c #0D0DAB",
"@  c #0F10AA",
"#  c #1B1BA4",
"$  c #1213AB",
"%  c #1719AC",
"&  c #1C1CAA",
"*  c #1212B2",
"=  c #191AB1",
"-  c #2727A4",
";  c #2525AB",
":  c #2A2AAC",
">  c #3030AF",
",  c #3D3DAD",
"<  c #2324B2",
"1  c #2C2CB2",
"2  c #2929B9",
"3  c #3435B2",
"4  c #3D3DB3",
"5  c #3133BF",
"6  c #393BB9",
"7  c #4B4CBE",
"8  c #6969BF",
"9  c #3232DA",
"0  c #3535E6",
"q  c #3B3BEF",
"w  c #3D3DFF",
"e  c #4144D4",
"r  c #7A7ADA",
"t  c #4141E6",
"y  c #4141EF",
"u  c #4E52E4",
"i  c #4C50EE",
"p  c #5053E6",
"a  c #5559E6",
"s  c #5559EF",
"d  c #5A5EED",
"f  c #4B4BF0",
"g  c #4444FF",
"h  c #454AFF",
"j  c #4D4DFF",
"k  c #4E52FF",
"l  c #5256FF",
"z  c #565AFF",
"x  c #5A5DFF",
"c  c #5F63E8",
"v  c #5D61FF",
"b  c #6165EF",
"n  c #6C6FEF",
"m  c #7376EF",
"M  c #767AEF",
"N  c #7A7DEF",
"B  c #6468F0",
"V  c #6165FF",
"C  c #6569FF",
"Z  c #6A6DFF",
"A  c #6E72F2",
"S  c #6E72FF",
"D  c #7275F2",
"F  c #7376FF",
"G  c #7679FF",
"H  c #797CFF",
"J  c #7D80FF",
"K  c #A0A0DA",
"L  c #8484E4",
"P  c #8888E6",
"I  c #8687EF",
"U  c #8B8BEC",
"Y  c #908FEF",
"T  c #9999E6",
"R  c #9393EF",
"E  c #9D9DEF",
"W  c #8A8BF2",
"Q  c #8286FF",
"!  c #878AFF",
"~  c #8A8AFF",
"^  c #9797F0",
"/  c #9999F0",
"(  c #9596FF",
")  c #9D9DFF",
"_  c #A1A5EF",
"`  c #A7ABEF",
"'  c #AAAEEF",
"]  c #ADB1EF",
"[  c #B3B3E2",
"{  c #B8B8E6",
"}  c #B2B6EF",
"|  c #BCBCEC",
" . c #A4A4FF",
".. c #A7ABFF",
"X. c #AAAAFF",
"o. c #ADB1FF",
"O. c #B2B5FF",
"+. c #B6BAFF",
"@. c #BBBDFF",
"#. c #BEC1FF",
"$. c #C5C5EF",
"%. c #CBCBEF",
"&. c #D3D3EF",
"*. c #CDCDF2",
"=. c #C2C5FF",
"-. c #C5C9FF",
";. c #CECEFF",
":. c #CFD0FE",
">. c #D0D0F2",
",. c #D4D4FF",
"<. c #D8D7FF",
"1. c #D7D8FF",
"2. c #DBDBFF",
"3. c #E2E2FF",
"4. c #EEEEFF",
"5. c #F1F1FF",
"6. c GhostWhite",
/* pixels */
"X X X X X X X X X X X X X X X X X X X X X X X X X X X X X X X X X X X X X X X ",
"X X X X X X X X X X X X X X . X X X X X X X X X X X X X X X X . X X X X X X X ",
"X X X X X X X X O & ; ; : ; ; ; ; ; ; ; - ; ; ; ; ; ; ; ; ; ; ; ; o X X X X X ",
"X X X X X X X X 3 K { { { { { { { { { { { { { { { { { { { { { { K & X X X X X ",
"X X X X X X X . 4 &.5.5.4.5.4.4.4.4.4.4.4.5.4.4.5.4.5.4.4.4.4.5.>.: X X X X X ",
"X X X X X X X . 4 %.3.2.2.2.3.2.2.2.2.3.2.2.2.2.3.2.2.2.3.2.3.3.*.; X X X X X ",
"X X X X X X X . 4 *.2.2.2.2.2.2.2.2.2.2.2.2.<.2.2.1.2.<.2.1.2.3.%.; X X X X X ",
"X X X X X X X X 4 %.2.2.<.<.<.<.<.2.2.2.2.2.2.2.2.2.2.2.2.2.2.2.%.: X X X X X ",
"X X X X X X X . 4 %.3.<.=.#.#.=.,.2.2.<.2.2.<.2.2.2.2.2.2.2.2.3.%.; X X X X X ",
"X X X X X X . . 4 %.2.<.#.+.+.#.,.2.2.2.2.<.2.2.2.1.2.2.<.2.1.3.%.; X X X X X ",
"X X X X X X X . 4 %.2.<.#.+.+.#.,.2.2.2.2.2.2.2.<.2.2.2.2.1.2.3.%.; X X X X X ",
"X X X X X X X . 4 *.3.<.-.+.+.#.<.3.3.2.2.2.2.3.2.2.2.3.2.2.3.3.%.; X X X X X ",
"X X X X X X X . 4 %.2.1.-.#.#.#.3.5.5.4.4.4.4.4.4.4.4.4.4.4.4.5.&.: X X X X X ",
"X X X X X X X . 4 %.3.<.@.o.+.+.{ { { { { { { { { { { { { { { { K & X X X X X ",
"X X X X X X X . 4 %.3.,...) ) / 7 - - : ; ; ; ; : ; ; ; ; ; : < ; o X X X X X ",
"X X X X X X X . 4 %.2.,...( ) R : . X X X X . X X X X X X X X X . X X X X X X ",
"X X X X X X X X 4 %.2.,. .( ) R 1 . X X X X X X X X X X X X X X X X X X X X X ",
"X X X X X X X X 4 %.3.,.X.( ) R 1 . X X X X X X X X X X X X X X X X X X X X X ",
"X X X X X X X . 4 %.2.,. .) ) R 1 . X X X X X X X X X X X X X X X X X X X X X ",
"X X X X X X X . 4 %.3.,.X.( ) R 1 . X X X X X X X X X X X X X X X X X X X X X ",
"X X X X X X X . 4 %.2.,. .( ) R 1 . X X X X X X X X X X X X X X X X X X X X X ",
"X X X X X X X . 4 *.3.,.X.) ) R > . X X X X X X X X X X X X X X X X X X X X X ",
"X X X X X . .   , %.3.<.X.)  .R :   . . . . . . . . . . . . . . X X X X X X X ",
"X X X X o % = % 7 *.2.<.) ~ ( U 7 > 1 1 1 3 3 3 3 3 3 3 3 < < < < + X X X X X ",
"X X X X @ p s i D :.3.;.G x v Z W ^ R Y R ` ] ] ] ] ] ] ` N m N n $ X X X X X ",
"X X X X $ s v l G ;.3.;.F l l V (  .) )  .+.#.#.#.#.#.#.@.Q H Q M $ X X X X X ",
"X X X X @ d V x H ;.2.;.H V C F )  . . . .@.#.#.#.#.#.#.@.~ J ~ N % X X X X X ",
"X X X X % I ( ~ ) ,.2.2.-.@.=.-.;.;.;.;.;.,.,.,.,.,.,.<.;.O.o.+._ & X X X X X ",
"X X X X & R  .) X.<.2.2.3.3.3.3.3.3.3.2.3.2.2.2.2.2.2.3.<.=.#.-.} & X X X X X ",
"X X X X & R ) ( X.,.2.<.2.2.2.2.2.<.2.2.2.2.2.2.<.2.<.2.<.#.#.#.] ; X X X X X ",
"X X X X & ^ ) (  .<.2.2.2.2.2.2.2.2.2.2.2.2.2.<.2.<.2.2.<.#.+.#.] ; X X X X X ",
"X X X X & Y ) (  .<.2.2.2.3.3.2.2.2.2.2.2.2.2.2.2.2.2.2.<.#.+.#.' & X X X X X ",
"X X X X & ^  .) X.,.2.2.:.;.;.;.,.,.,.,.,.1.2.2.2.<.1.2.<.=.=.-.} ; X X X X X ",
"X X X . ; ' @.O.@.<.2.,.X.) )  .+.#.#.#.#.<.2.2.2.2.2.2.2.<.<.2.$.; X X X X X ",
"X X X X & ] #.+.=.<.2.<.X.( ) ) O.#.+.@.#.<.2.2.1.2.2.2.2.2.2.3.*.; X X X X X ",
"X X X X ; ] #.+.=.2.2.<.X.) )  .+.#.#.@.#.,.2.2.1.2.1.2.<.2.2.3.*.; X X X X X ",
"X X X X ; ` @.+.=.3.3.3.O. .X.o.#.-.-.#.-.<.2.2.2.<.2.1.2.2.1.3.*.; X X X X X ",
"X X X X ; } #.=.=.@.#.@.Y L L P  .o.o...X.,.2.2.2.2.2.2.1.2.2.2.%.; X X X X X ",
"X X X X ; %.3.3.#.x j f 2 # & : c S C C F =.3.2.2.2.2.<.2.2.2.3.%.; X X X X X ",
"X X X X ; %.3.3.@.g w q * . . $ u v v x Z =.3.2.1.1.2.2.1.2.2.3.%.; X X X X X ",
"X X X X ; %.3.4.#.k w y * . X $ u C v v S =.3.2.1.2.2.2.1.2.2.2.%.; X X X X X ",
"X X X X : &.5.6.-.l g y * . . $ a S C C S -.3.3.2.<.2.<.2.2.2.3.%.; X X X X X ",
"X X X X & K { $.T t 0 9 * . X @ e a u u c #.3.3.2.2.2.1.1.<.2.3.%.; X X X X X ",
"X X X X o ; ; - & + + + X X X X @ $ @ @ > { 4.3.2.1.2.2.2.2.2.2.%.; X X X X X ",
"X X X X X . X X X X X X X X X X X X X . - { 5.3.2.1.2.2.2.2.2.3.%.; X X X X X ",
"X X X X X X X X X X X X X X X X X X X X ; { 4.2.2.<.2.<.1.2.2.2.%.; X X X X X ",
"X X X X X X X X X X X X X X X X X X X X ; { 4.2.2.2.2.<.2.2.2.3.%.; X X X X X ",
"X X X X X X X X X X X X X X X X X X X X ; { 4.3.2.1.2.2.2.1.2.3.%.; X X X X X ",
"X X X X X X X X X X X X X X X X X X X X ; { 4.2.2.2.2.1.2.2.1.3.*.; X X X X X ",
"X X X X X X X X X X X X X X X X X X X X ; { 5.2.2.2.2.2.<.2.2.2.%.< X X X X X ",
"X X X X X X X X X X X X X X X X X X X X ; { 5.3.2.2.2.1.2.2.<.3.%.; X X X X X ",
"X X X X X X X X X X X X X X X X X X X X ; { 4.2.2.1.2.2.2.2.2.3.%.; X X X X X ",
"X X X X X X X X O ; : ; + X X X X X X X ; { 4.2.<.2.2.2.2.,.,.2.$.; X X X X X ",
"X X X X X X X . > [ %.[ 3 . X X X X X X ; { 4.3.2.1.2.2.,. . . .E & X X X X X ",
"X X X X X X X . 7 $.3.%., . X X X X X X ; { 4.2.2.2.2.2.,. .)  .R & X X X X X ",
"X X X X X X X   , %.3.%.,   . . X X X X ; { 4.3.2.1.<.2.<.X.X.O.E & X X X X X ",
"X X X X O , 4 , 8 %.3.*.7 % = = O X X X ; { 4.2.2.<.2.2.>.R L P r % X X X X X ",
"X X X X & [ %.%.&.2.2.>.D i s u = . X X ; { 5.2.2.2.2.3.*., & & # o X X X X X ",
"X X X X : %.3.2.2.2.2.;.H l v d = . X X ; { 4.3.2.<.2.3.%.; X X X X X X X X X ",
"X X X X ; %.2.2.2.2.2.;.F k x s = . . X - { 4.2.2.2.2.3.%.; X X X X X X X X X ",
"X X X X ; %.3.2.2.2.2.;.S h k i %   . . - { 4.3.2.2.3.3.>.; X X X X X X X X X ",
"X X X X ; %.2.2.2.2.2.:.! Z H A 5 % & = 6 | 4.2.<.;.;.<.| ; X X X X X X X X X ",
"X X X X ; %.2.2.1.2.2.1.,.;.:.=.n i s s B =.3.3.<. .) X.^ % X X X X X X X X X ",
"X X X . ; %.2.<.2.2.1.2.2.2.2.,.G l x v Z =.3.2.,.) )  .^ = X X X X X X X X X ",
"X X X X ; %.3.2.2.2.2.2.2.1.2.;.F l x x Z #.3.2.<. .)  .Y & X X X X X X X X X ",
"X X X X ; %.3.2.2.2.1.2.2.2.2.;.F k z z C =.4.2.<. . . .^ & X X X X X X X X X ",
"X X X X ; | ,.;.,.1.1.2.<.1.2.;.H v C C G @.2.2.;.^ Y ^ L # X X X X X X X X X ",
"X X X X $ b C v J :.2.2.2.2.2.2.,.;.;.,.-.X. . ./ 3 # & % o X X X X X X X X X ",
"X X X . $ s x k F :.2.2.2.<.1.2.2.2.2.2.1.X.( ) R & . X X X X X X X X X X X X ",
"X X X X @ s v l F ;.2.2.2.2.2.2.2.2.2.2.<. .( ) R & X X X X X X X X X X X X X ",
"X X X X $ d v l H ,.3.3.2.3.3.3.3.2.3.3.2.X.)  .R & X X X X X X X X X X X X X ",
"X X X X @ p s i A | %.%.%.%.%.%.%.%.%.%.$.E U ^ P % X X X X X X X X X X X X X ",
"X X X X o + @ @ $ ; ; ; ; : ; ; : ; ; ; ; & = & # X X X X X X X X X X X X X X ",
"X X X X X X X X X X X X X X X X X X X X X X X X X X X X X X X X X X X X X X X ",
"X X X X X X X X X X X X X X X X X X X X X X X X X X X X X X X X X X X X X X X "
};
