/* XPM */
static char *_[] = {
/* columns rows colors chars-per-pixel */
"33 67 109 2 ",
"   c #02029E",
".  c #1C1D9D",
"X  c #26268E",
"o  c #252594",
"O  c #282895",
"+  c #21219A",
"@  c #2E2D9E",
"#  c #3B3C93",
"$  c #34349B",
"%  c #0100A5",
"&  c #0100A8",
"*  c #0C0CAD",
"=  c #1617A3",
"-  c #1718A1",
";  c #1A1BA1",
":  c #1515A8",
">  c #0C0BB0",
",  c #2B2BA4",
"<  c #44448B",
"1  c #3938E4",
"2  c #3C3BED",
"3  c #3E3DF1",
"4  c #3E3FF8",
"5  c #403EF0",
"6  c #413EF9",
"7  c #4C4DDD",
"8  c #514FD6",
"9  c #5957DC",
"0  c #7777D6",
"q  c #4745E4",
"w  c #4E4EE5",
"e  c #4445EC",
"r  c #4D4BEB",
"t  c #4F50E7",
"y  c #5252E1",
"u  c #494AF4",
"i  c #4342FE",
"p  c #6B6EE0",
"a  c #6F71ED",
"s  c #7376EC",
"d  c #7679ED",
"f  c #7B7DEB",
"g  c #7679FB",
"h  c #7A7EFA",
"j  c #7E80EA",
"k  c #7A80F7",
"l  c #7D83FB",
"z  c #8485DE",
"x  c #9C9EDD",
"c  c #A0A0D0",
"v  c #B4B4DD",
"b  c #8485E2",
"n  c #8184E8",
"m  c #868AED",
"M  c #898CED",
"N  c #8C92E7",
"B  c #8E91EC",
"V  c #9194E4",
"C  c #989AE0",
"Z  c #9293EC",
"A  c #9598EA",
"S  c #9A9BEA",
"D  c #8285F4",
"F  c #858AF3",
"G  c #8B8EF1",
"H  c #8286FC",
"J  c #9C9CF5",
"K  c #9495FA",
"L  c #9C9EFC",
"P  c #9EA1F7",
"I  c #9EA1FC",
"U  c #A6A7EB",
"Y  c #ABADEB",
"T  c #ADB0EB",
"R  c #B1B3E9",
"E  c #A5A5F3",
"W  c #A6A8F2",
"Q  c #A2A3FC",
"!  c #ACADFD",
"~  c #ADB0F7",
"^  c #ACB0F9",
"/  c #B2B2F6",
"(  c #BDBFF7",
")  c #B3B6FB",
"_  c #B6BAFC",
"`  c #BABDFC",
"'  c #BEC0F7",
"]  c #BDC1FB",
"[  c #C5C5EA",
"{  c #C9C7E9",
"}  c #C7C9E9",
"|  c #CACAE9",
" . c #D2D2EA",
".. c #C1C2F5",
"X. c #CACAF6",
"o. c #C1C3FA",
"O. c #C5C8FF",
"+. c #CBCBFA",
"@. c #D1CFFD",
"#. c #CFD1FB",
"$. c #D4D5FC",
"%. c #D8D7FD",
"&. c #D6D8FD",
"*. c #DBDBFE",
"=. c #E0DEFF",
"-. c #DFE0FF",
";. c #E3E2FF",
":. c #E7E9FF",
">. c #ECECFF",
/* pixels */
"% % & % % % % % % % & % % % & & % % & & %   % & % & % & & & % % % ",
"& % & & %   & & & % % % & % & % % % % & & & % % & % & % % & % & & ",
"& % % % % % % & % % % & % % % % & & % & % % % % & & % % % % & % % ",
"% % % % % % % & & % %   %   %       % % % % % % & & & % & % % % & ",
"% % % % %   & & & % . + + + . . . ; % & % % % % & & % % % % % & & ",
"% % % & % % & & & . x T Y Y V M Z b ; & & % % % % % % % & & & % % ",
"& % % & % & & & % o T o.] ` Q Q Q Z ; % & % % % & & & % & & & & & ",
"% % & & & % % % % o Y ] ` _ Q L I B . % % % % % % % & % & % % % % ",
"% % % % & % ; + + # R ..o.` I L I B ; % % % % & % & & % & % % % % ",
"% & % % % . x T Y R $.%.%.+.M D H d = % % % % % % % % % % % % % & ",
"% % % %   o T o.' o.%.*.*.$.M h l d - % % % % % & % & % % % % % % ",
"% % % % % o Y ] ` ' %.*.*.@.G h l d -   % % & & & % % % % % % % % ",
"% & > > * @ Y ` ` o.%.*.*.@.D g g a : % % % & & & & % & % % %   % ",
"% > 1 3 2 7 ~ ` ` ' %.%.*.+.9 e u e * % % % & & & & & % % % % % % ",
"% > 5 i i t ^ ] ` ` &.*.*.X.y 6 i 2 * % % % % & & & & % & % % % % ",
"% > 2 i 4 w ! ` ` ' %.*.*.X.y 4 i 3 * % % % & & & % % & % % % % % ",
"% * q r r 9 / o.' [ %.*.*.+.t 4 i 2 > % %   % % % % % % % % % % % ",
"% ; m K K J @.%.$.$.%.*.-.X.9 4 i 2 * % % % % % % % % % % % & % % ",
"% . Z Q L E $.*.*.*.*.*.&.X.t 4 i 5 > % % % & & % % % % % % % & % ",
"% . B I L E $.*.*.*.*.*.-.X.y 4 i 5 * %       % %   % % % % % % % ",
"% ; Z Q P E $.*.*.*.*.*.-.X.8 1 2 q , o o o . . ; ; % % % % % % % ",
"% + Y ` ` ` %.*.%.%.*.*.*.} @ * * , v | | [ A M Z z . % & & & & % ",
"% + Y ] ` ..&.%.*.*.*.%.-.} X   % o } ;.-.$.W I Q Z .   % & & & % ",
"% + Y o.` ` %.*.*.*.*.*.=.} X     X } -.*.$.E L I B .     % & & % ",
"  + Y ` ` ' %.*.*.*.%.*.-.| < X X < | -.*.$.Y U E S $ . . ; ; % % ",
"  + Y ] _ ] &.&.-.&.*.*.*.&.| } } | *.*.*.*.$.$.$.+.S N Z S 0 ; % ",
"% + Y ] ` ' &.*.&.*.*.*.*.*.-.-.-.-.*.*.*.*.=.%.=.$.E J Q ! b ; % ",
"% + Y ` ` ' $.*.*.*.*.*.*.*.*.-.*.*.*.*.%.*.%.=.%.$.E L Q ! b ; % ",
"% + Y ..' ..&.*.*.*.*.*.*.*.#.#.#.#.*.*.*.%.*.*.=.$.W P Q ^ b + % ",
"  o [ *.%.%.*.*.*.*.*.%.*.$.V m n x $.*.*.*.*.*.*.$._ _ ` O.C + % ",
"  o } ;.*.%.%.*.*.*.%.*.&.#.m k k m #.*.*.*.%.*.*.$.' ` ] +.C +   ",
"  o } *.*.=.*.*.*.*.%.*.*.$.M l k B #.*.*.*.*.*.*.%.' ` ] +.C +   ",
"  o } -.*.*.&.*.=.*.*.*.*.#.j s s n +.%.&.%.*.&.*.%.' ' o.@.x + % ",
"  o { -.%.*.*.*.%.%.*.*.-.| $ . : $ R o.' ..&.*.*.*.&.%.*.:.v O   ",
"% o } *.*.*.*.*.=.%.*.*.*.| o   % + Y o.` ' &.*.*.*.*.*.=.>.v O % ",
"% o } -.*.*.&.-.=.%.*.*.*.} o %   + Y ] ` ' %.&.%.*.%.%.=.>.v X   ",
"  o [ *.&.%.%.*.%.%.=.%.=.} X   % + Y ` _ ' &.-.*.*.%.*.=.>.v X   ",
"% + T ' ' ' %.&.=.%.*.*.*.{ O %   + Y ] ] ' &.&.*.*.&.*.=.>.v O % ",
"& + Y ' ` ] &.*.*.*.%.%.;.} o % % + Y ] _ ' &.&.*.*.*.*.=.>.R o % ",
"% . Y ] ] ] &.*.%.%.*.*.*.| o   % + Y ] ] ] &.*.*.*.*.*.;.>.v O   ",
"% o Y ] _ ] &.&.*.*.*.&.-.} O % % + Y ] _ ] &.&.*.*.*.*.*.>.v o % ",
"& . T ] ] ] &.&.*.%.&.-.-.} o % % + Y ] ] ] &.*.*.%.*.*.-.>.v o   ",
"% + Y ] _ ' &.-.*.*.&.-.-.} o %   + Y ] _ ' &.*.*.*.*.*.*.>.v o % ",
"% o Y ] ] ' &.*.*.*.*.&.*.} X %   + Y ] ` ] %.*.*.%.*.*.;.>.v o % ",
"% + W _ _ ` #.%.&.&.%.*.-.| $ - : $ Y ] ` ] %.*.*.*.*.*.-.>.v O   ",
"% - f F D M ` ] ] ' %.*.-.$.j s s j ) _ _ ' %.*.*.%.*.*.-.>.v o % ",
"  - d l k F ) _ ` ' &.*.*.#.G l l F ) ] _ ' %.*.*.*.*.&.-.:.v o   ",
"% = d H l F _ ] ` ' *.*.*.#.F k l j ) ] ] ' %.*.*.*.*.-.:.>.v X % ",
"% = p d s j ) ] _ ] %.*.*.$.V m m N ( ( ( ..%.*.*.*.| | |  .c o % ",
"% % = = : $ T ] _ ] &.*.&.&.#.$.#.$.&.$.$.&.*.*.*.| < X o O .   % ",
"& % % %   o T ] ] ] &.*.&.*.*.*.*.*.*.%.*.*.*.*.*.} X     % % % % ",
"% % % % % . T o.] ] %.*.*.*.*.*.*.*.*.%.*.*.*.-.;.} X   % % % % % ",
"% % % & % . x T T R #.-.%.%.*.*.*.*.*.*.*.*.| | | v o   % % % % % ",
"% & % & &   . o + # R ] ' ..&.*.*.*.*.*.*.| < o O +   % % % & & % ",
"% % % % & & %     o T ] ] ' &.-.*.*.*.*.-.{ X   % % % % % & & & & ",
"& % & & & & % %   + T ] ] ' &.&.*.*.*.;.;.{ o % % % % % & & & % % ",
"% % % % & & % % % . x T T T &.*.*.*.| | | v o % % % % % & & & % % ",
"% % % % % % % % %   ; o + < | *.*.| < X o o   % % % % % % % % % % ",
"%   % % % % % % & % % %   X | -.-.} X     % % % % % % % % & % % % ",
"& % % % % & % % % % & & % X [ ;.*.} o   % % % % % % % % % % % % % ",
"% % % % & & & % % % & &   X } ;.;.| O   % % & & % % & & % & % % % ",
"% & & % & & & & % % & % % + v | | v +   % & & & & % & % % % % % & ",
"% & % % & & % % % % & & %   o o O +   % % % % & % & % % % & % % % ",
"% % % & % % & % % % % % % % % %   % & % & % % & % % % & % & % & % ",
"& % % % & & % % % % & & % % % & % % % & % % & % % % % % & % & & & ",
"& % & % % % % & & % % % % & % & % & % % & % % % % % & % % % % & & ",
"% % & % & % & % & % % % % & % % & % & % & % % % % % & % % & % % & "
};
