/* XPM */
static char *_[] = {
/* columns rows colors chars-per-pixel */
"36 66 128 2 ",
"   c #01019F",
".  c #17189F",
"X  c #1D1D9F",
"o  c #1F209C",
"O  c #262694",
"+  c #21219A",
"@  c #32329B",
"#  c #0100A5",
"$  c #0100A8",
"%  c #0D0DAB",
"&  c #0F10A9",
"*  c #1516A5",
"=  c #1719A5",
"-  c #1919A2",
";  c #1112AA",
":  c #1B1CAE",
">  c #0606B5",
",  c #0808B0",
"<  c #0606B8",
"1  c #0C0DB9",
"2  c #2B2CA1",
"3  c #3639CE",
"4  c #2D2FDC",
"5  c #2E33DD",
"6  c #3235D7",
"7  c #3436DB",
"8  c #3439DA",
"9  c #1A1FF1",
"0  c #1E21E3",
"q  c #1D21EC",
"w  c #1D22F5",
"e  c #1E24FA",
"r  c #2121E2",
"t  c #2A2DE2",
"y  c #2123EE",
"u  c #262DEA",
"i  c #2B2FED",
"p  c #2F35E4",
"a  c #3135E1",
"s  c #2022F1",
"d  c #2125FE",
"f  c #3840D7",
"g  c #4849C7",
"h  c #4044CE",
"j  c #4548CA",
"k  c #494CDA",
"l  c #6064D8",
"z  c #696ADE",
"x  c #7477DE",
"c  c #4D50E4",
"v  c #5053E4",
"b  c #5658EC",
"n  c #595BEF",
"m  c #595EF6",
"M  c #5A5DFA",
"N  c #5E62EF",
"B  c #5E62FB",
"V  c #6669E3",
"C  c #696DE4",
"Z  c #666CEC",
"A  c #6B6EEA",
"S  c #6E70E8",
"D  c #7174E2",
"F  c #7276ED",
"G  c #7479EE",
"H  c #7B7FEB",
"J  c #6165FD",
"K  c #656AFE",
"L  c #6F76F9",
"P  c #757BFB",
"I  c #7D82EE",
"U  c #7C82F6",
"Y  c #7C82FC",
"T  c #9C9EDF",
"R  c #ADADDF",
"E  c #B3B4DC",
"W  c #8486EC",
"Q  c #868AEC",
"!  c #898DEF",
"~  c #8E92E7",
"^  c #9294E2",
"/  c #9292EC",
"(  c #8287F1",
")  c #858AF3",
"_  c #8C8EF0",
"`  c #8187FF",
"'  c #878CFE",
"]  c #8E8EF8",
"[  c #9798F4",
"{  c #9395FA",
"}  c #9D9EFC",
"|  c #9FA1F7",
" . c #A5A9EB",
".. c #AAADEB",
"X. c #AFB1EB",
"o. c #A5A6F5",
"O. c #A6A8F0",
"+. c #A9ADF7",
"@. c #A2A2FC",
"#. c #ABAEF8",
"$. c #AEB1F4",
"%. c #AFB2FA",
"&. c #BEBFF7",
"*. c #B3B6FB",
"=. c #B6BAFC",
"-. c #BABDFC",
";. c #BEC0F7",
":. c #BEC1FB",
">. c #C6C7EA",
",. c #C9C7EA",
"<. c #C7C9EA",
"1. c #C9C9EA",
"2. c #C4C5F6",
"3. c #C8C7F4",
"4. c #C6C8F5",
"5. c #C8C8F4",
"6. c #C1C2F9",
"7. c #CCCEFB",
"8. c #CFD1FB",
"9. c #D4D5FC",
"0. c #D8D7FE",
"q. c #D6D8FD",
"w. c #DBDBFF",
"e. c #E0DFFF",
"r. c #DEE1FF",
"t. c #E1E1FF",
"y. c #E6E9FF",
"u. c #ECEDFF",
/* pixels */
"# $ # # # # # # # # # # # # # # # # # # # # # # # # # $ # # # # # # $ # ",
"# # $ # # # # # # # # # # # # # # # # $ # # # # # # $ $ # # # $ # $ # # ",
"$ # # #   # #   #   #         # #             #   # # # # # # # # $ $ $ ",
"# # #   + O O O O O O O O O O O O O O O O O O O O O O + - * * = * # $ $ ",
"# # # O E 1.,.,.,.1.,.,.,.1.1.1.,.,.,.<.1.1.1.,.1.1.<.>.H D G W l * # # ",
"$ #   O 1.t.e.e.e.e.w.w.w.e.e.w.e.e.w.w.w.e.w.e.w.r.r.9._ ( ` ' C - # # ",
"# $   O 1.w.w.w.w.0.w.w.w.w.w.w.0.w.w.w.w.w.w.w.w.w.w.8.W U ` ' C * # # ",
"$ $ # O 1.e.w.w.w.w.w.w.w.w.w.w.w.w.q.w.w.w.0.e.w.w.w.8.^ W ! { D .   # ",
"# #   O <.r.q.w.w.w.w.w.w.w.w.w.w.w.q.q.w.w.0.0.q.w.w.9.9.8.9.t.R O # $ ",
"$ #   O <.r.w.w.w.q.q.w.q.w.w.w.w.w.w.w.0.w.e.0.w.w.w.w.w.w.e.u.E O # # ",
"# # # O 1.t.w.r.r.w.r.e.e.e.w.e.w.r.w.w.e.e.e.e.w.w.w.w.q.w.t.u.E O   # ",
"$ #   O E 1.1.,.1.>.1.1.,.<.,.<.<.1.<.>.3.2.2.2.q.w.w.w.w.w.w.u.E O   # ",
"$ $ #   + O O O O O O O O O O O O O O 2 3 7 6 g 5.w.w.w.w.w.w.u.E O   # ",
"$ $ # # # #     # # # #           # # % q w 9 6 4.w.w.w.w.w.w.u.E O     ",
"# # # # # # # # # # # # # #   # # $ # < s d e 7 4.w.w.w.w.w.r.u.E O     ",
"# # # # # # $ # # # # # # # # # # $ $ < s e e 7 4.w.w.q.q.q.w.y.E O     ",
"# # # # $ $ # # # # # $ # # # # $ $ $ < y d e 8 2.e.0.0.2.&.6.7.T +     ",
"# # # # # # # # # # $ $ # # # # # $ # > q d w 8 2.e.0.0.&.-.-.7.T o # # ",
"# # # $ # # # $ # # $ # # # # # # # $ > q e w 6 2.e.w.0.6.&.6.7.T +   # ",
"  # # $ # # $ # $ # # $ # # # # > > > 1 5 5 5 j 3.e.w.9.*.%.*.-.T X #   ",
"# # $ # # # # # # # # $ # # $ > 0 s q 5 | +.+.$.9.w.w.8.x Z Z L v * #   ",
"# # # # # $ # $ # # $ # # $ # < w e e 7 +.:.:.;.q.w.w.7.C m B K c & # # ",
"$ $ # # $ # # $ # # # # # $ # > q w w 5 $.:.-.;.q.w.w.7.S B B K c ; #   ",
"$ $ # # $ # # # # # # $ > > > 1 5 a 5 f $.;.;.;.9.q.q.7.V b m N k &   # ",
"$ # $ # # # # # # # # , r y y 7 | $.+.$.9.9.9.9.;.;.6.X.2 * ; ; ; $ # # ",
"$ $ # $ # #   # # $ $ > y d s a +.;.:.6.w.w.w.9.;.:.:.X.+   # # # # # # ",
"# # $ # # $ # $ $ $ $ , q d w 5 +.-.-.6.9.w.w.9.:.:.:.X.+ # # # $ $ # # ",
"# $ # # # $ # # # $ $ , t i u f $.6.&.6.q.w.w.9.=.*.*. .+ # $ $ # # # # ",
"# # # # # $ # # # # # ; A P L U 7.q.9.q.w.w.w.9.~ ( ) I *   # # # # # # ",
"$ # # # # $ # # # # # - G ` Y ) 9.w.w.w.w.w.w.8.Q U Y F - # # # $ $ # # ",
"#   # # $ $ $ $ $ $ # - F Y Y Q 8.w.w.w.w.w.w.7.) Y Y G * # # $ # # # # ",
"# # # # # # $ $ , > , : H ) ( ~ 8.w.w.w.w.0.w.9.Q P Y F * # # $ $ # # # ",
"# $ # # # # # > 0 w q 6 o.=.*.=.q.w.w.w.w.q.w.7.D J J n *   # # # # # $ ",
"# # # # # #   > q e w a #.:.:.;.q.w.w.w.r.w.r.7.A M B b ;   # # # $ # # ",
"# # # # # # # > w e w p +.:.-.;.9.w.q.w.q.w.e.7.A M J n ; # #   # #   $ ",
"# # # # # # # > w e w a #.:.;.;.q.w.q.w.w.w.w.7.z b n c ; # # # # # # # ",
"# # # $ # # # > u e e a 6.w.w.9.w.w.w.w.w.w.e.1.@ * & & # # # # # $ $   ",
"# $ $ # # # # > q e d 8 4.w.w.w.w.w.w.w.w.w.w.1.O   # # # # # # $ $ $ # ",
"$ $ # # # # # > q d w 6 4.w.w.w.w.w.0.w.w.w.w.,.O # # # # # $ # # # #   ",
"$ $ # # # # # , 4 p t h 4.w.w.w.w.0.e.0.q.w.r.1.O   # # $ # # # # $ $   ",
"$ # # # # #   - W { ] [ 9.w.0.w.w.w.w.w.w.w.w.1.O   $ # $ #   # # # #   ",
"$ # # # # # # X / @.} o.9.w.w.w.w.0.w.w.q.w.r.1.O   $ # $ # # # # # # # ",
"# # $ # # # # X / | } o.9.w.w.0.q.w.q.w.w.w.w.1.O # $ # # # # # $ $ $   ",
"# # # # $ # # X / @.| O.9.0.0.e.w.w.w.w.w.w.w.1.O   # # # $ # # $ $ #   ",
"$ $ # # # $ # +  .-.=.-.0.w.w.w.w.w.w.w.w.w.w.1.O   $ $ # # # $ $ # # # ",
"$ $ # # # # # + ..:.-.:.9.w.w.w.w.w.w.w.w.w.r.1.O   $ # $ $ # # # # #   ",
"# # # # # # # o ..:.-.&.0.w.w.w.w.0.w.w.w.w.r.1.O # $ # # # # # $ $ # # ",
"# # # # # # # + ..:.-.&.9.w.0.w.w.w.w.w.w.q.r.<.O   # # # $ $ # # # $ # ",
"# # # # # #   + ..:.-.;.9.w.w.w.0.w.w.w.w.w.r.1.O   # # $ $ $ # # # # # ",
"# # # # # #   o ..:.-.;.q.w.q.w.w.w.w.w.w.w.w.<.O # # # # # $ # # # #   ",
"# # $ $ # # # + ..:.-.;.9.w.w.w.0.w.w.w.w.w.w.1.O   $ # # $ # $ # # # # ",
"$ # $ $ # #   O X.6.&.6.q.q.w.w.w.w.w.w.0.w.e.1.O # $ # # $ # # # # #   ",
"# # # # # #   O ;.w.9.9.w.w.w.w.w.w.w.w.w.w.r.<.O # $ # # # # # # $ $ # ",
"# $ # # $ #   O <.r.w.w.w.w.q.w.w.w.0.w.w.w.w.<.O   # # # $ # # # $ # # ",
"$ # # # $ #   O <.r.q.w.w.w.w.w.w.w.w.w.w.w.r.1.O   # # # # $ $ $ # # # ",
"# $ # $ $ #   O <.r.w.q.w.w.w.w.w.w.w.w.w.w.r.1.O # # # $ # # # # # # $ ",
"$ # $ $ # #   O <.w.w.w.w.w.w.w.w.w.w.w.w.w.w.1.O   $ # # $ $ # # # # $ ",
"# # $ $ # #   O 1.e.w.0.w.w.w.w.w.w.w.w.w.0.r.1.O   # # # # # # $ # # $ ",
"# # # # # #   O 1.e.w.w.w.w.w.w.w.w.w.w.w.w.w.1.O # # $ $ # # $ # # # $ ",
"# # # # # #   O 1.y.e.t.e.e.e.e.t.t.e.t.e.e.y.1.O   # $ # # # # # # # $ ",
"# # # # $ # # O E 1.,.<.,.1.,.,.,.1.1.,.1.1.1.E + # # # # $ $ $ # # # $ ",
"# # # # # # #   + O O O O O O O O O O O O O O O   # # # # # $ $ # $ # # ",
"# $ # # # $ # #     # #           #     # # # # # # # # # $ # $ # # # # ",
"# # $ $ # $ # # # # # # # # # # # $ $ $ # # # $ # # # # # $ # # # # # # ",
"$ # # $ # # # $ # # $ $ # # # # # # # $ # # $ $ # # # # # $ $ $ # # # $ ",
"$ # # # # $ # # # $ # # # # # # # $ # # # $ # # # $ $ # $ # # $ $ # $ $ "
};
