/* XPM */
static char *_[] = {
/* columns rows colors chars-per-pixel */
"41 66 212 2 ",
"   c #010084",
".  c #00008D",
"X  c #0B0888",
"o  c #1A188E",
"O  c #000093",
"+  c #090296",
"@  c #01009C",
"#  c #08019C",
"$  c #10099A",
"%  c #171399",
"&  c #1D1A9C",
"*  c #211B96",
"=  c #252698",
"-  c #37389A",
";  c #0101A4",
":  c #0904A3",
">  c #0E0CA5",
",  c #0000AC",
"<  c #0A03AD",
"1  c #0608AE",
"2  c #0809AC",
"3  c #100BAA",
"4  c #1715A6",
"5  c #1C19A1",
"6  c #1513AB",
"7  c #1C15AC",
"8  c #0101B1",
"9  c #0902B3",
"0  c #0A0AB4",
"q  c #0201BA",
"w  c #0B02BD",
"e  c #0C0CBA",
"r  c #1208BF",
"t  c #1B15B2",
"y  c #1B1BBD",
"u  c #231CA3",
"i  c #211DAE",
"p  c #231DB7",
"a  c #251EB9",
"s  c #1E20B9",
"d  c #2424A3",
"f  c #2921AA",
"g  c #322FA1",
"h  c #3234AD",
"j  c #2423B2",
"k  c #2924B4",
"l  c #2A27BB",
"z  c #2F32B9",
"x  c #3333B4",
"c  c #3A3BB7",
"v  c #3534BB",
"b  c #3939BB",
"n  c #453FB9",
"m  c #3A42AB",
"M  c #5257AC",
"N  c #4B45B7",
"B  c #4143BE",
"V  c #5E67B3",
"C  c #0501C6",
"Z  c #0A06C2",
"A  c #100BC4",
"S  c #1612C3",
"D  c #1C1AC9",
"F  c #140FD0",
"G  c #1C1CD6",
"H  c #261FC9",
"J  c #2521C5",
"K  c #2A27CB",
"L  c #2F30C7",
"P  c #3736C7",
"I  c #2B2CD4",
"U  c #3A37D2",
"Y  c #3D39D6",
"T  c #3E38D8",
"R  c #2922E0",
"E  c #413FCD",
"W  c #423FDE",
"Q  c #443FEA",
"!  c #443EF6",
"~  c #4343C3",
"^  c #4846C9",
"/  c #4C46CA",
"(  c #5756C7",
")  c #4542D4",
"_  c #544DDA",
"`  c #5A59D6",
"'  c #5655DB",
"]  c #5E5BDC",
"[  c #6359C2",
"{  c #605FD7",
"}  c #625EDA",
"|  c #6264CD",
" . c #6B6BD4",
".. c #6967DA",
"X. c #6F71D4",
"o. c #6E71DA",
"O. c #7773D2",
"+. c #7073D6",
"@. c #7172D9",
"#. c #797AD8",
"$. c #5047ED",
"%. c #5D58E7",
"&. c #4E4EF7",
"*. c #5857F3",
"=. c #625CE0",
"-. c #645DEC",
";. c #615DF5",
":. c #6561E7",
">. c #6E6CE4",
",. c #6D6CEE",
"<. c #736CED",
"1. c #6E72EC",
"2. c #7879E7",
"3. c #6D6CF5",
"4. c #6563FF",
"5. c #686AF9",
"6. c #736FFB",
"7. c #6E72F4",
"8. c #7D7DF3",
"9. c #7676F8",
"0. c #7A74FE",
"q. c #7C7BFC",
"w. c #8375DE",
"e. c #827EE9",
"r. c #8A7FF2",
"t. c #817AFD",
"y. c #7C82DF",
"u. c #8586D5",
"i. c #9193DD",
"p. c #8383E4",
"a. c #898AE6",
"s. c #8483EC",
"d. c #8D8BEC",
"f. c #8B91E2",
"g. c #9798E6",
"h. c #9394EB",
"j. c #9C93EF",
"k. c #9A9BED",
"l. c #8482F2",
"z. c #8885F4",
"x. c #8789F4",
"c. c #8E8CF3",
"v. c #8581FD",
"b. c #8A85FC",
"n. c #8989FA",
"m. c #918CF6",
"M. c #9286FF",
"N. c #918DF8",
"B. c #8F94FB",
"V. c #9491F4",
"C. c #9A97F3",
"Z. c #9C9CF2",
"A. c #9492FD",
"S. c #9A98F8",
"D. c #9C9CFF",
"F. c #A19EE9",
"G. c #A19EF3",
"H. c #A39DFB",
"J. c #9BA0E7",
"K. c #9FA3F5",
"L. c #9DA0FF",
"P. c #A6AAEB",
"I. c #AEB0EB",
"U. c #A4A3F4",
"Y. c #ABA0F6",
"T. c #ABAFF6",
"R. c #A4A4FC",
"E. c #AAA4FE",
"W. c #A5A8FE",
"Q. c #ACADFD",
"!. c #AEB3F5",
"~. c #AFB4FE",
"^. c #AFB8FA",
"/. c #B6B7F5",
"(. c #B7BCF5",
"). c #BBBDF5",
"_. c #B3B4FE",
"`. c #BAB5FF",
"'. c #B6BAFF",
"]. c #BBBCFE",
"[. c #C2BDFF",
"{. c #BDC3EF",
"}. c #BCC2F4",
"|. c #BEC3FD",
" X c #BFC9FF",
".X c #D6DAEC",
"XX c #DBDAEC",
"oX c #C2C3F5",
"OX c #C7CAF4",
"+X c #C9CAF3",
"@X c #C3C4FD",
"#X c #CAC5FF",
"$X c #C5CAFD",
"%X c #CCCCFE",
"&X c #D2CEFF",
"*X c #D9CFFF",
"=X c #CED5F5",
"-X c #CDD2FD",
";X c #CFD9FD",
":X c #D4D5F5",
">X c #D5DAF5",
",X c #D9DBF3",
"<X c #D4D5FE",
"1X c #D9D6FE",
"2X c #D5DAFD",
"3X c #DADBFE",
"4X c #E2DFF4",
"5X c #E0DFFE",
"6X c #D8E0F6",
"7X c #D7E0FF",
"8X c #DBE1FF",
"9X c #E3E3FD",
/* pixels */
", , ; 8 , 8 , 8 8 8 q 8 8 8 8 , 8 8 8 , , , ; ; ; , ; , , , ; ; ; , , 8 q 8 8 8 , ",
", , , 8 , , , , 8 8 8 8 8 8 8 , 8 8 8 , , ; ; ; ; 1 , , , ; , , , 8 8 q q q 8 8 , ",
", , , , , , ; , , , , , , ; , , 8 q , 1 ; ; ; ; , 8 , , , , , , 8 8 8 q q 8 , , , ",
", , , , , , , ; , , ; ; , , ; , , 8 @ ; @ O @ @ ; 8 8 , , , , , 8 8 8 8 8 8 , , , ",
", , , ; , , , , ; , , ; , 1 , , y ^ P ~ ~ B ~ P l J H e , , , , , , 8 , 8 , , , , ",
"; , , ; ; , 8 8 , , , , ; 8 , , ..Q.'.].|.]._.D.8.<.6.J 1 ; ; , , , , , , , , ; , ",
", , , , , , 8 8 , , , , ; , ; < #.%X3X2X2X2X<X].j.s.b.U < ; , , , , , ; , ; , , , ",
"8 8 , 8 , 8 8 8 8 8 < ; @ > O $ u.$X<X<X%X<X&X[.j.w.z.P : @ , , 8 8 , ; ; ; , , , ",
"8 8 , 8 8 ; ; ; 8 8 8 ; k ] }  .T.<X3X9X2X1X&X@X`.Y.H.3.E U L e , , , , ; ; 8 8 8 ",
", , 8 8 1 ; O ; 8 8 , @ ) Q.#X$X-X2X2X8X,X2X<X<X*X*X*XH.y.q.5.y ; , , , ; ; , 8 , ",
"8 8 8 8 8 ; @ ; , , @   ^ ].8X2X2X<X;X3X>X,X>X3X1X1X1XR.v.q.7.s @ , , , , , 8 8 8 ",
"8 , , , , 1 ; ; : > 5 o V ].;X=X-X%X%X3X:X,X>X>X:X&X2X~.d.y.9.j @ ; , , , , , , , ",
", 8 , , 8 q 8 ; 6 1.c.f.P.|.@X@XW.Z.i.I.oX2X3X3X:X<X1X<X@X].W.z O , , 8 8 , , 8 , ",
", , 8 8 8 q q ; d K.7X2X-X@X]._.N.z.#.g.].2X2X3X3X<X1X3X1X3X].b O ; , 8 8 , 8 , 8 ",
"8 , 8 8 8 8 ;   = J.7X;X$X].`.`.D.b.r.d.'.3X2X2X3X<X<X,X<X1X`.h . ; , 8 8 , 8 8 8 ",
", , 8 , 1 s m m V P.2X2X-X].].`.b.-.%...Q.%X%X;X<X<X<X5X1X1X'.x . , , 8 , , 8 8 8 ",
", 8 8 ; e ` ^.^.|.$X7X-X-X}.[.].-.p 5 g h.@X$X%X<X:X2X4X:X1X`.x O , 8 8 , 8 8 8 8 ",
"8 8 1 , e o.7X7X7X;X;X7X-X}.].'.] #   % s.|.}.OX<X:X,XXX1X3X`.v O 8 8 8 8 8 8 , 8 ",
"8 q 8 , 2 +.7X2X>X2X2X2X$X}.]._.] : ; 7 l.@X{.+X1X,XXXXX1X1X`.v @ 8 q C q q 8 8 8 ",
"8 8 8 , 2 o.2X2X2X;X2X2X-X|.]._.` : @ 7 l.@X}.#X*X5X3X4X,X1X`.x O , 8 8 8 8 8 8 8 ",
"8 8 1 , 2 o.8X2X2X2X2X<X&X].]._.` : @ i z.].].#X&X3X3XXX:X3X'.h . ; , , , , , , , ",
"8 8 8 , 0 o.3X2X2X2X2X;X-X@X]._.` # @ 7 e.].).@X&X1X1X3X<X<X].c . ; , , , , 8 8 8 ",
"8 q 8 , 1 o.3X2X2X2X2X2X-X@X]._.{ # # 5 s.).oX$X<X3X3X-X@X@X~.z O ; , 8 8 8 8 , , ",
"8 8 , , 1 X.2X2X=X>X>X>X=X%X$X#XN.-.%.<.~.<X=X=X<X:X8XO.N N x > @ , 8 8 8 8 8 , 8 ",
"8 8 8 , 1 o.2X3X2X>X>X6X>X=X-X;XE.t.0.b.].2X>X2X8X<X3X( X   . ; , 8 8 q q q 8 8 8 ",
"8 8 , , 9 o.<X2X;X2X>X>X>X;X=X2XY.a.r.j.|.>X6X2X2X;X2X' : : : ; , 8 8 8 8 8 8 , , ",
"8 8 8 , 1 { [.].|.-X2X2X2X;X<X2X).g.C.Z.@X2X2X@XR.G.E.$.< : ; , , , , , , , 8 8 , ",
"8 8 8 , 0 / C.g.P.|.2X7X2X2X<X<X8X#X#X@X3X8X2XC.n * f < ; , , , ; ; ; , ; , , 8 8 ",
"8 8 8 , 1 U s.2.f._.2X2X2X2X<X<X3X2X2X2X8X3X;Xs.& . : : , ; @ 1 , ; , , , , 8 8 8 ",
"8 8 8 , 1 Y q.9.B.Q.<X-X<X3X2X2X3X3X3X,X6X2X;Xa.= + : < < < , 1 , , , , 8 8 8 8 8 ",
"8 8 , , , D $.W %.c.~._.).%X3X,X3X3X3X3X8X3X2XT.#...>.K 9 8 8 8 , , , , , , 8 8 8 ",
"8 8 8 , 8 q q , t %.z.p.P.@X<X3X3X1X3X3X2X2X3X<X%X<X3X&.r 8 9 q 8 , , , : , , 8 8 ",
", , , , 8 8 , ; 3 -.v.s.H.#X<X<X1X1X1X1X<X<X1X1X:X3X5X%.: @ , , 8 , , ; ; ; , 8 8 ",
", , , , ; , ; : 6 :.v.s.E.%X1X<X&X&X<X&X<X<X3X:X:X,X5XO.* % 4 : ; , , , , , , , 8 ",
", 8 , , 8 9 , @ a r.'.[.#X<X<X<X:X+X+X+X1X1X3X5X5X,X,X/.F.h.z.j @ , , 8 8 , 8 , , ",
"8 , 8 8 , q w ; j N.2X2X3X,X.X.X+X[.$XoX<X1X3X1X3X1X3X3X<X<X].c . ; , 8 8 8 8 8 , ",
"8 , 8 8 8 1 ; O = C.2X2X>X>X,X>XOX].|.|.%X<X2X3X3X3X1X.X,X<X'.c . ; , 8 , , 8 , 8 ",
"8 , 8 , 8 y z h M !.;X;X<X#X@X[.W.s.d.g.|.2X2X2X1X1X1XXX3X1X[.c O ; , , , , 8 8 8 ",
"8 8 0 , 0 ] ^. X{.7X>X-X`.H.M.M._ 5 o - u.$X%X<X2X3X3X:X1X<X].b O , , , ; ; 8 8 8 ",
", , , , 2 >.2X7X2X>X:X;X`.m.t.0.U @ . & y.|.{.OX<X3X:X1X2X<X].P @ , , ; , , 8 8 8 ",
", 9 , ; 2 X.3X<X1XXX:X<X`.m.q.0.Y < ; t s.|.{.$X<X3X:X1X<X2X].v ; 8 , ; , , 8 8 8 ",
"1 8 , ; 2  .3X<X5X,X:X*X`.c.q.0.T < , t s.|.{.$X<X2X:X<X3X2X|.b ; 8 , ; , , 8 8 , ",
", 8 , ; 2  .3X<X3X:X1X<X`.m.t.0.T 9 , t s.|.{.@X-X3X:X3X<X2X].b ; 8 , ; , , 8 8 8 ",
", 8 ; ; 2 +.3X2X3X:X:X<X].d.r.0.U < ; t r.|.}.}.%X2X:X1X,X2X].b ; 8 , ; , , 8 , , ",
", 9 , ; 2 X.3X2X3X,X1X<X'.h.s.q.) ; ; t y.@X}.@X%X3X>X3X2X2X|.b ; 8 , ; , , 8 , 8 ",
", , , ; 2 X.3X<X3X1X<X1X#XW.R.L._ < ; 7 8.@X}.@X%X<X,X1X2X2X'.b ; 8 , ; , , 8 , , ",
", 8 ; ; 2 +.3X3X5X1X1X3X<X].'.'.( # @ i s.@X}.@X<X3X3X1X<X2X|.v ; 8 , ; , 8 8 8 8 ",
", 9 , ; 2 @.3X<X3X1X1X<X%X|.'.^.(     % p.|.}.@X%X2X,X1X>X2X].b @ 8 , ; ; , , 8 , ",
", 1 , ; 2  .1X%X1X<X1X%X%X$X@X Xy.B L ^ S. X).@X%X<X,X1X<X2X].b ; 8 , ; , 8 8 8 8 ",
", 8 , ; 2 | #X@X&X&X<X<X:X-X$X;X~.L.L.D.'.|.}.$X%X3X3X3X3X2X|.v @ 8 , ; ; , 8 8 8 ",
", 8 , , e } [.`.`.%X<X<X;X2X2X;XOX}.(.].}.(.(.OX<X1X>X>X3X3X'.b O , , 8 , 8 8 8 8 ",
", 8 , , 9 %.`._.`.%X<X<X=X2X>X2X$X}./.].].].].%X&X1X1X>X2X<X_.b . ; , , 8 8 8 8 8 ",
"8 8 8 , 0 ) N.N.U.|.<X2X2X2X=X<X&X#X@X@X#X#X#X&X&X1X3XoX_._.A.z O ; , 8 8 , 8 8 , ",
"8 8 8 , 0 K 3.=.2.~.;X2X:X:X:X<X<X<X<X<X&X<X<X1X1X3X5X!.h.c.7.j @ , , , , , , 8 8 ",
"8 , , , 8 I 4.*.2._.2X2X<X<X<X2X3X.X:X:X,X,X,X5X9X4X5XE.x.v.3.l @ , 8 , 8 1 , 8 8 ",
", 8 8 , 8 I &.&.7.W.@X@X$X%X&X&X3X,XXX.X,X:X1X1X#X[.[.n.q.9.*.y , , , 8 , , 8 , , ",
"8 , , 8 , Z G D U ,.x.f.k.!._._.&X,X3X:X<X3X3XR.[ N / P L L J 2 ; , , 8 , , 8 , , ",
"8 8 8 , 8 8 8 , 0 Y *.` 1.c.D.C.).:X,X:X<X<X3Xd.*   O @ @ ; ; , , , 8 , 8 , 8 8 8 ",
", 8 , 8 , 8 9 8 S Q 4.;.9.B.L.L.[.<X3X3X2X2X8XV.* + : , , , , , , , , 8 8 8 , 8 8 ",
"8 8 8 8 8 , ; < A R ! ! &.5.1.1.c.S.R.Z.k.U.R.] 4 , q 8 8 8 8 , , , , 8 8 8 8 8 8 ",
"8 8 8 8 8 ; ; 9 q Z F Z A y 6 4 t a k u d d k 6 , C C q 8 8 8 , , , , 8 8 8 8 8 8 ",
"8 8 8 8 8 8 8 8 8 8 8 , 1 , 1 ; , , , ; ; ; , , 8 8 8 8 8 8 8 , , 8 8 8 8 8 8 8 8 ",
"8 8 8 8 8 8 8 8 8 8 8 8 8 8 8 8 8 8 8 8 8 8 8 8 8 8 8 8 8 8 8 8 8 8 8 8 , 8 8 8 8 ",
", 8 , , , 8 , 8 , , , 8 , 8 , 8 , 8 , 8 , 8 8 , , 8 8 , 8 , 8 , 8 , 8 , 8 8 , 8 , ",
"8 8 8 8 8 8 8 , 8 8 8 8 8 8 8 8 , 8 8 , 8 8 8 8 8 8 8 8 8 8 8 8 8 8 8 8 8 , 8 8 8 ",
", , , 8 , , 8 , , , , , , , 8 , , 8 8 , 1 , , , , , , , , , , , , 8 , , 8 , , , , "
};
