/* XPM */
static char *_[] = {
/* columns rows colors chars-per-pixel */
"40 68 103 2 ",
"   c #03029D",
".  c #08069D",
"X  c #1C1C9D",
"o  c #1F209C",
"O  c #26268F",
"+  c #252594",
"@  c #212199",
"#  c #2D2D9E",
"$  c #33349B",
"%  c #0100A5",
"&  c #0100A8",
"*  c #0C0CAD",
"=  c #1616A4",
"-  c #1718A2",
";  c #1B1BA1",
":  c #0C0BB0",
">  c #2B2BA2",
",  c #44448C",
"<  c #3839E4",
"1  c #3C3BED",
"2  c #3E3DF2",
"3  c #3E3FF8",
"4  c #413EDE",
"5  c #413FF9",
"6  c #3F40F0",
"7  c #4C4CDC",
"8  c #4F50D8",
"9  c #5B5AD6",
"0  c #5352DD",
"q  c #5658DA",
"w  c #5958DB",
"e  c #4745E5",
"r  c #4D4DE6",
"t  c #4444EC",
"y  c #4C4BEC",
"u  c #5252E2",
"i  c #4445F0",
"p  c #4B4BF2",
"a  c #4342FD",
"s  c #6B6DE0",
"d  c #6F70ED",
"f  c #7376ED",
"g  c #767AEE",
"h  c #7A7EEB",
"j  c #767AFB",
"k  c #7A7EFA",
"l  c #7A80F7",
"z  c #7C82FB",
"x  c #8585DE",
"c  c #9B9DDC",
"v  c #B2B2DA",
"b  c #8184E8",
"n  c #868AEC",
"m  c #888CED",
"M  c #8E92E6",
"N  c #8E91EA",
"B  c #9193E3",
"V  c #9293EC",
"C  c #9698EA",
"Z  c #999AEA",
"A  c #8286F2",
"S  c #858AF4",
"D  c #8B8EF1",
"F  c #9B9CF5",
"G  c #9395FA",
"H  c #9D9DFB",
"J  c #A09FFD",
"K  c #9DA1FB",
"L  c #A3A7EB",
"P  c #A7A9ED",
"I  c #AAADEB",
"U  c #AEB0EA",
"Y  c #B9B8E7",
"T  c #A4A4F3",
"R  c #A9A7F3",
"E  c #A2A4FC",
"W  c #AEAFF9",
"Q  c #ADB0F7",
"!  c #ADB1F9",
"~  c #B2B3F6",
"^  c #BEBFF7",
"/  c #B3B6FC",
"(  c #B6BBFC",
")  c #BABDFC",
"_  c #BDC0F7",
"`  c #BDC1FB",
"'  c #C5C5EA",
"]  c #C9C7EA",
"[  c #C7C9E9",
"{  c #CACAE9",
"}  c #C1C3F5",
"|  c #CACAF7",
" . c #C1C4FA",
".. c #CBCBF9",
"X. c #D0CEF8",
"o. c #CFD1FB",
"O. c #D4D5FC",
"+. c #D8D7FE",
"@. c #D6D8FD",
"#. c #DBDBFE",
"$. c #E1DFFE",
"%. c #DEE0FF",
"&. c #E2E2FE",
/* pixels */
"% & & & % % & % % & & & % % % % % % %   % % % % % & & & & & % & % % % % % % % % ",
"% & & & % & % % % % % & % % % . + O + @ . % % % & & & & & & % % % % % & & % % & ",
"% % % % % % % % % % % & & % % @ v { { v @   % % & & % % % % % % & % % % % % % % ",
"% % % & % % & % % & % & % %   O { &.&.[ + % % % & & % % % %     % % % % & % % & ",
"& % & % % % % & % % % % % %   O [ %.%.[ O   % % % % & & % % % % % % & & % & % % ",
"& % % % & % % % % % % . @ + O , [ #.%.{ , O + @ . % % % % % % % % % & & % % % % ",
"% % % % % & % % % % % @ v { [ { #.#.#.#.{ [ { v @ % % % % % % % % % % % % % & % ",
"% % % & % % & % % %   O { &.$.#.#.#.#.#.%.%.%.{ + % % % % % % % % % & % % & % % ",
"% % & % % % % % %     O [ $.#.#.#.#.@.#.@.#.%.[ O   % % % % & & & % % & % % % % ",
"% % % % % % % . @ + O , { $.#.#.#.#.#.#.#.@.%.[ $ + @ ; . % & % % & % % & % % & ",
"% % % % % % % @ v [ [ { @.#.#.#.@.#.#.#.#.#.#.@.Y U U c X   % % % % % % % % % % ",
"% % % % % %   + { &.#.$.#.#.#.@.#.#.#.#.#.#.#.@._ _  .U o   % % % % % & & % % & ",
"% % & % %     O { #.#.#.#.#.#.#.#.#.#.%.#.#.#.@._ _ ` I o   % % % % & % % % % % ",
"& % % . + O O , { #.#.#.@.@.+.+.o.o.o.o.#.#.#.@.} _ _ U $ = = = % % & % % & % & ",
"% % % @ v { [ { #.#.#.@.} } } ( M n n B o.#.#.@.@.@.@.o.b g g s - % % % % & % % ",
"% % % + { &.%.#.#.#.#.+.^ ) ) ~ S l l m X.#.@.%.@.#.#.o.D z z g - % % % % % % % ",
"% %   + ] $.#.#.#.#.#.O.) ) ` / S z z D O.#.#.#.+.#.#...m k z f ; % % % % & % & ",
"% % % + ] #.#.#.#.#.#.@.^ ) ) / A j j A ..#.#.#.#.#.#.X.B S S h -   & % % % % % ",
"% % % + { #.#.@.#.#.+.@.^ ) ` Q u i i 0 | #.#.#.#.#.#.@.( / ( L o % % & % % % % ",
"% %   + ] $.#.#.#.#.#.@.) ) ` W r 5 3 u ..#.#.#.#.#.#.@.` ) ` U @   % % % & % & ",
"% %   + ] $.@.#.#.#.#.@.` ) ` ! r a 5 u ..#.#.#.#.#.#.@.` ) ` I @   % % % % & % ",
"% %   + ] $.#.#.#.#.#.@.` ) ` ! 7 1 1 0 | #.#.#.#.#.#.@.` ) ` I @ % % % % % % % ",
"% &   O [ $.#.#.#.#.#.@.` ( ` U > * * > { $.#.#.#.#.@.@._ ) ` I o % % % % & % % ",
"% %   O [ $.#.#.#.#.#.@._ ( ` I o   % + { #.#.#.#.@.%.@.` ( ` I @ % % % % % & % ",
"% % % + ] #.#.#.#.#.@.@.` ( ` I o %   + ] #.#.#.#.#.#.O._ ` ` I o   % % % % % & ",
"% & % + ] &.#.#.#.#.#.@._ ) ` I o % % + [ &.#.#.#.#.#.@._ _  .U o   % % % % % % ",
"% %   + ] #.#.#.#.#.#.O.` ) ` I o   % + ] #.+.#.@.#.#.@.@.@.#.' + % % % & % % % ",
"% %   + { %.#.#.#.#.#.@.` ) ` I o %   + ] #.#.#.#.#.#.#.#.#.#.[ O   % % % % % & ",
"& %   + ] #.#.#.#.#.#.+.^ ^ ` U o     + ] #.#.#.#.#.#.#.@.#.%.{ + % % & % & % % ",
"% %   + ] #.@.@.#.#.#.+._ ^ _ U # X X $ { #.#.$.#.#.#.@.#.#.#.[ + % % % % % & % ",
"% %   @ U _ _ _ +.#.#.#.O.#.+.X.l f f b O.#.#.#.#.@.@.#.#.#.#.[ +   % % % % % % ",
"% % % o P ` ` _ O.#.#.#.#.#.#.X.M l l N ..#.#.#.#.@.#.%.#.#.%.{ + % & % % & % % ",
"% % % @ I ` ) _ @.#.+.#.#.#.#...N l l m o.%.#.#.#.#.#.#.#.#.%.[ +   % % % % % % ",
"% % % o P ) ( ) @.#.+.#.#.#.#.O.M n n B o.@.#.#.#.#.#.#.@.@.@.' +   % % % % % & ",
"% % % X V E J R O.#.#.+.#.#.#.@.X.o.o.X.@.%.#.@.@.#.@.@.} `  .U X % % % % % % % ",
"& & % ; V E H T O.#.#.#.#.#.#.#.#.%.#.@.#.#.#.%.#.#.#.@._ ) ) I @   % % & % % & ",
"% & % ; V E H R O.#.#.#.#.#.#.#.%.$.#.#.#.@.#.@.#.#.#.@.` ) ` I @ % & % % % & % ",
"% % % ; x V V Z X.@.O.O.#.#.#.+.{ [ { { #.#.@.#.#.+.#.@.` ) ` I @ % % % % % % % ",
"% % % % ; X ; $ C T T I O.#.&.{ , O O , { #.#.#.+.#.#.@.` ) ) I @   % % % & & % ",
"% % % % % % % X N K F T +.#.$.[ O     O [ #.#.#.#.#.#.@.` ) ` I X   & % % % % % ",
"% % % % % & % X V E H T @.&.&.{ O     + [ #.#.#.#.+.#.@.` ) ` I @   % % & % % & ",
"% % % % % & % X x V V C ' [ { v > * * > [ #.#.#.#.#.#.O.) ( ) I @ % % % % % % % ",
"% % % % % % % . ; X X X @ + + > 4 i 1 8 | #.#.#.#.#.#.O.P J T V X % % % & % % & ",
"% % % % % % % %   % % % % % % * 1 a 3 u ..#.#.#.+.#.#.O.T H J V X % % % % % % % ",
"% & % % % % % % % % & % % % % : 2 a 3 u ..#.#.#.#.#.#.@.R H E V X % % % % % % % ",
"& % % % % % % % % % % % & % % : 2 a 3 u ..#.#.#.@.@.#...H G G m X % % % % % & % ",
"% % % % % % % % & % % & % % % : 2 5 2 u ..#.#.#.} ^ ^ Q w y y e * % % % & % & % ",
"& % % % % % % % % % % % % % % : 3 5 5 u ..#.#.@.^ ) ) W r 3 a 1 * % % % % % % % ",
"% % & % % & % & % % % % % % % * 1 a 3 r | #.#.@.) ) ) W r 5 a 2 * % % % & & & % ",
"% % % % % % % % % % & % % & % * t p t q | #.#.@.` ) ` W 7 1 2 < * % % & & % % % ",
"% & & % & % & % & % % % & % % = d k j A O.#.#.@. .)  .I > * * * & & % % & % % % ",
"% % % % % % % % % % & % % & & ; g z z m o.#.#.@.) ) ) I o   % % % & % % & % & % ",
"% & % & % % % % % % % % % & % X f z z n X.#.#.+. .)  .I o % % % % % % % % % % % ",
"% % & & % % & % % % % % % % % - h S A M o.#.#.+.) ( ) P @ % % % % & % & % & & % ",
"% % % % & % % % % % % % % %   X L ( / ( O.#.#.O.R T E V X % % % % % % % % % % % ",
"% & & & % % & % % & % % % % % @ I ` ) } +.#.#.O.T H H N ; % % % % % & % % & % % ",
"% & & & % % % % % % % % % % % @ I ) ) ^ @.#.#.O.T H E V o % % % % % & % % % % % ",
"% & % & & % & % & % % & & %   @ I  .} } +.#.#.O.F G G m ; % & % & % % % % & & % ",
"% % % % % % & % % & % % % % % + ] #.+.+.#.#.#.| 9 r y e * % % & % % % % % % % % ",
"% & % & % % % % % % % % % %   + ] #.$.#.#.#.#.| u 2 a 1 * % % & % % & % % % & % ",
"% % % % % % % % % % % % % % % + [ %.#.#.#.#.#.| u 2 a 2 : & % % & % % % & % % & ",
"% & & % % % % % % % % % % % % + { &.&.$.&.$.&.O.u a a 6 : & % & % % % % % % % % ",
"% % % % % % % % % % % % % % % @ v { ] ] { ] { Y 7 1 6 < * & % % % % & % & % % & ",
"% % % % % % & % % % % % % % % . @ + + + + + + @ * : : * % % % % & % % % % % % % ",
"% % %   % % % % % & % % % % & % %     % % %   % % % % % % % % % % & % % & % % & ",
"% & & & & % % % % % % % %     % % % % % % % % % % % % % % % % % % % % % % % % % ",
"% % % % & % % & % % % % % %   % % % % % % & & % % % % % & % % & % & % % & % % & ",
"& % % % % % % % % % % % % % & % % % % % % % % % % % % % % % % % & & & & & & % % "
};
