/* XPM */
static char *e1[] = {
/* columns rows colors chars-per-pixel */
"128 136 91 1 ",
"  c black",
". c #070000",
"X c #0F0000",
"o c #1B0700",
"O c #230B00",
"+ c #2B1700",
"@ c #2B230F",
"# c #372300",
"$ c #3F3300",
"% c #3B2F17",
"& c #232323",
"* c #2F2F2F",
"= c gray20",
"- c #373737",
"; c gray23",
": c #43331B",
"> c #4B3B1B",
", c #573F1F",
"< c #3F7300",
"1 c #377B00",
"2 c #434300",
"3 c #4B4300",
"4 c #4F5F00",
"5 c #535300",
"6 c #476700",
"7 c #5F4323",
"8 c #6F4B27",
"9 c #774F2B",
"0 c #004343",
"q c #005B5B",
"w c #006F6F",
"e c #007373",
"r c #007777",
"t c #007B7B",
"y c #007F7F",
"u c #434343",
"i c #4B4B4B",
"p c gray34",
"a c #5B5B5B",
"s c #676767",
"d c gray45",
"f c #7B7B7B",
"g c gray50",
"h c #880015",
"j c #83532F",
"k c #875333",
"l c #8B5B33",
"z c #935F37",
"x c #9F633B",
"c c #A3673F",
"v c #AB6B43",
"b c #B77347",
"n c #BF7B4B",
"m c #CB7F4F",
"M c #178F00",
"N c #079B00",
"B c #278700",
"V c #D38353",
"C c #DF8B57",
"Z c #EB8F5B",
"A c #F3975F",
"S c #FFAB5F",
"D c #FF9F63",
"F c #FFA773",
"G c #0000BF",
"H c #4343FF",
"J c #008787",
"K c #008F8F",
"L c #009B9B",
"P c #009F9F",
"I c #00A7A7",
"U c #00B7B7",
"Y c #23B3B3",
"T c #008FE7",
"R c #00CFCF",
"E c gray56",
"W c #9B9B9B",
"Q c gray67",
"! c #B7B7B7",
"~ c #FFB383",
"^ c #FFBB93",
"/ c #FFBF9F",
"( c #FFC7A7",
") c #FFCFB3",
"_ c #FFD7BF",
"` c #C3C3C3",
"' c LightGray",
"] c #DFDFDF",
"[ c #FFEBDF",
"{ c #EFEFEF",
"} c white",
/* pixels */
"hhhhhhhhhhhhhhhhhhhhhhhhhhhhhhhhhhhhhhhhhhhhhhhhhhhhhhhhhhhhhhhhhhhhhhhhhhhhhhhhhhhhhhhhhhhhhhhhhhhhhhhhhhhhhhhhhhhhhhhhhhhhhhhh",
"hhhhhhhhhhhhhhhhhhhhhhhhhhhhhhhhhhhhhhhhhhhhhhhhhhhhhhhhhhhhhhhhhhhhhhhhhhhhhhhhhhhhhhhhhhhhhhhhhhhhhhhhhhhhhhhhhhhhhhhhhhhhhhhh",
"hhhhhhhhhhhhhhhhhhhhhhhhhhhhhhhhhhhhhhhhhhhhhhhhhhhhhhhhhhhhhhhhhhhhhhhhhhhhhhhhhhhhhhhhhhhhhhhhhhhhhhhhhhhhhhhhhhhhhhhhhhhhhhhh",
"hhhhhhhhhhhhhhhhhhhhhhhhhhhhhhhhhhhhhhhhhhhhhhhhhhhhhhhhhhhhhhhhhhhhhhhhhhhhhhhhhhhhhhhhhhhhhhhhhhhhhhhhhhhhhhhhhhhhhhhhhhhhhhhh",
"hhhhhhhhhhhhhhhhhhhhhhhhhhhhhhhhhhhhhhhhhhhhhhhhhhhhhhhhhhhhhhhhhhhhhhhhhhhhhhhhhhhhhhhhhhhhhhhhhhhhhhhhhhhhhhhhhhhhhhhhhhhhhhhh",
"hhhhhhhhhhhhhhhhhhhhhhhhhhhhhhhhhhhhhhhhhhhhhhhhhhhhhh8kkkkkkkkkkkkkkkkkkkkkk8hhhhhhhhhhhhhhhhhhhhhhhhhhhhhhhhhhhhhhhhhhhhhhhhhh",
"hhhhhhhhhhhhhhhhhhhhhhhhhhhhhhhhhhhhhhhhhhhhhhhhhhhhh,88kzxxxxxxxxxxxxxxxxzk88,hhhhhhhhhhhhhhhhhhhhhhhhhhhhhhhhhhhhhhhhhhhhhhhhh",
"hhhhhhhhhhhhhhhhhhhhhhhhhhhhhhhhhhhhhhhhhhhhhhhhhhhh:,8kzzxxxxxxxxxxxxxxxxzzk8,:hhhhhhhhhhhhhhhhhhhhhhhhhhhhhhhhhhhhhhhhhhhhhhhh",
"hhhhhhhhhhhhhhhhhhhhhhhhhhhhhhhhhhhhhhhhhhhhhhhhhhh::,8kzzxxxxxxxxxxxxxxxxzzk8,::hhhhhhhhhhhhhhhhhhhhhhhhhhhhhhhhhhhhhhhhhhhhhhh",
"hhhhhhhhhhhhhhhhhhhhhhhhhhhhhhhhhhhhhhhhhhhhhhhhhhh::,88888jjxxxxxxxxxxjj88888,::hhhhhhhhhhhhhhhhhhhhhhhhhhhhhhhhhhhhhhhhhhhhhhh",
"hhhhhhhhhhhhhhhhhhhhhhhhhhhhhhhhhhhhhhhhhhhhhhhhhhh::,>>>77778zxxxxxxk87777>>>,::hhhhhhhhhhhhhhhhhhhhhhhhhhhhhhhhhhhhhhhhhhhhhhh",
"hhhhhhhhhhhhhhhhhhhhhhhhhhhhhhhhhhhhhhhhhhhhhhhhhhh::>>lll777779jzzj977777lll>>::hhhhhhhhhhhhhhhhhhhhhhhhhhhhhhhhhhhhhhhhhhhhhhh",
"hhhhhhhhhhhhhhhhhhhhhhhhhhhhhhhhhhhhhhhhhhhhhhhhhhh::>lmmmnvv87>>%%>>78vvnmmml>::hhhhhhhhhhhhhhhhhhhhhhhhhhhhhhhhhhhhhhhhhhhhhhh",
"hhhhhhhhhhhhhhhhhhhhhhhhhhhhhhhhhhhhhhhhhhhhhhhhhhh::lmZFFFAAmv9>%%>9vmAAFFFZml::hhhhhhhhhhhhhhhhhhhhhhhhhhhhhhhhhhhhhhhhhhhhhhh",
"hhhhhhhhhhhhhhhhhhhhhhhhhhhhhhhhhhhhhhhhhhhhhhhhhhh:9bmZ~~~~~FAmmmmmmAF~~~~~Zmb::hhhhhhhhhhhhhhhhhhhhhhhhhhhhhhhhhhhhhhhhhhhhhhh",
"hhhhhhhhhhhhhhhhhhhhhhhhhhhhhhhhhhhhhhhhhhhhhhhhhhh:9bmZ^^~FFD~~^^^^~FDFF~^^Zmb9:hhhhhhhhQhhhhhhhhhhhhhhhhhhhhhhhhhhhhhhhhhhhhhh",
"hhhhhhhhhhhhhhhhhhhhhhhhhhhhhhhhhhhhhhhhhhhhhhhhhhh:9bmZ^^~FFD~~^^^^~FDFF~^^Zmb9:hhhhhhhhQhhhhhhhhhhhhhhhhhhhhhhhhhhhhhhhhhhhhhh",
"hhhhhhhhhhhhhhhhhhhhhhhhhhhhhhhhhhhhhhhhEhEhhhhhhhh:9mmZ^/FFFD^~A^^A~FDFFF/^Zmm9:hhhhhhhsQshhhhhhhhhhhhhhhhhhhhhhhhhhhhhhhhhhhhh",
"hhhhhhhhhhhhhhhhhhhhhhhhhhhhhhhhhhhhhhhh!h!hhhhhhhh:9mmZVD)/~AAVxAAcVAA~/)DVZmm9:hhhhhhhgQghhhhhhhhhhhhhhhhhhhhhhhhhhhhhhhhhhhhh",
"hhhhhhhhhhhhhhhhhhhhhhhhhhhhhhhhhhhhhhhh`h`hhhhhhhV:9mmb>xnD^F^Am^^bAAF^Dnx>bmm9:VhhhhhhEQEhhhhhhhhhhhhhhhhhhhhhhhhhhhhhhhhhhhhh",
"hhhhhhhhhhhhhhhhhhhhhhhhhhhhhhhhhhhhhhhh'h'hhhhhhhF:xVmz8:%cD^(VcAAcV~^Dc%:8zmVc:FhhhhhhEQEhhhhhhhhhhhhhhhhhhhhhhhhhhhhhhhhhhhhh",
"hhhhhhhhhhhhhhhhhhhhhhhhhhhhhhhhhhhhhhhE'{'Ehhhhhhm:cmczWp@@xxxj>vv>jxxx@@pWzcmc:mhhhhhsEWEshhhhhhhhhhhhhhhhhhhhhhhhhhhhhhhhhhhh",
"hhhhhhhhhhhhhhhhhhhhhhhhhhhhhhhhhhhhhhhE]{]Ehhhhhhc:cCnvsHTGp %,>zz>,, pGTHsvnCclchhhhhsWWWshhhhhhhhhhhhhhhhhhhhhhhhhhhhhhhhhhhh",
"hhhhhhhhhhhhhhhhhhhhhhhhhhhhhhhhhhhhhhhW]]]Whhhhhhc9cAAVC^bx9> @9Vn9@ >9xb^CVAAc9chhhhhdWWWdhhhhhhhh!'hhhhhhhhhhhhhhhhhhhhhhhhhh",
"hhhhhhhhhhhhhhhhhhhhhh!hhhhhhhhhhhhhhhhE`]`EhhhhhhVjcF(___/DVVjjn_/n9jVVD/___(FcjVhhhhhsEWEshhhhhhhh!`hhhhhhhhhhhhhhhhhhhhhhhhhh",
"hhhhhhhhhhhhhhhhhhhhhhQ!hhhhhhhhhhhhhhsW`'`Wshhhhh9jcD(__[_~v:VnC_/CvV:v~_[__(Dcj9hhhhidEEEdihhhhhh!'Whhhhhhhhhhhhhhhhhhhhhhhhhh",
"hhhhhhhhhhhhhhhhhhhhhhQ]!hhhhhhhhhhhhhsW!'!WshhhhhhhcZS/)_~vj7lcA})Anl7jv~_)/SZc9hhhhhidgEgdihhhhhh!`Whhhhhhhhhhhhhhhhhhhhhhhhhh",
"hhhhhhhhhhhhhhhhhhhhhhQ`]!hhhhhhhhhhhhsW!`!WshhhhhhhjmZS~~ZvjccxmAAmxccjvZ~~SZmjhhhhhhidgEgdihhhhh!'WEhhhhhhhhhhhhhhhhhhhhhhhhhh",
"hhhhhhhhhhhhhhhhhhhhhhW!']!hhhhhhhhhhhfW!!!WfhhhhhhhjjbZF~ZvjV/mljjzmAVjvZ~FZbjjhhhhhhadgggdahhhhh!`Wghhhhhhhhhhhhhhhhhhhhhhhhhh",
"hhhhhhhhhhhhhhhhhhhhhhEW!']!hhhhhhhhhsgWQ!QWgshhhh&&jzjvA~Zvzm_/mllZ~AmzvZ~Avjzj&&hhhiadgggdaihhh!'WEdhhhhhhhhhhhhhhhhhhhhhhhhhh",
"hhhhhhhhhhhhhhhhhhhhhhggW!']!hhhhhhhhsgWQ!QWgshhh&;&jvzvC^ZvlzzzzzzzzzzlvZ^Cvzvj&&&hhiadgggdaihhh!`Wgshhhhhhhhhhhhhhhhhhhhhhhhhh",
"hhhhhhhhhhhhhhhhhhhhhhdgW!!''!hhhhhhssgWQ!QWgshh&;g jvvvV^Zv,%;E']]'E;%,vZ^Vvvvj&&&&hiadgggdaihh!'WEdshhhWhhhhhhhhhhhhhhhhhhhhhh",
"hhhhhhhhhhhhhhhhhhhhhhsdgW!!''!hhhhhEsgWQ!QWgs$&*p` jvbvV^Zm: isWQQWsi :mZ^Vvbvj&&&&&iadgggdaihh!`WgdshhWWhhhhhhhhhhhhhhhhhhhhhh",
"hhhhhhhhhhhhhhWhhhhhhhssd$$$$$$$$$$$EsgWQ!QWgd$*;dW;jvVbVF~ZZVZD^^^^DZVZZ~FVbVvj&&&&&padgggdapOoooXXXXXXXXhhhhhhhhhhhhhhhhhhhhhh",
"hhhhhhhhhhhhhhEWhhhhhh$$$$$$33333333$sgWQ!QWgdo;ipspjvZVmAFFFCCAD~~DACCFFFAmVZvj&&&&&padgggdapOoooXXXXXXXXXXhhhhhhhhhhhhhhhhhhhh",
"hhhhhhhhhhhhhhgEWhhh$$$$$33333333333$$gWQ!QWg$+*iips:xZAVVF((^~ZnxxnZ~^^^FVVAZx:&&&&&2adgggda2oXXXXXXXooXXXXXXhhhhhhhhhhhhhhhhhh",
"hhhhhhhhhhhhhhdgEW$$$$333333555555533$$EQ!QE$##*;iiip:bVACC^[_~~CmmC~~^^^CCAVb:&&&&&&%2sgggs2OoXXXXXXXooXXXXXXXhhhhhhhhhhhhhhhhh",
"hhhhhhhhhhhhhhsd$$$$3333555544444455333$$$$$$3$&*;;;ii:xnZCA_[[_^FF^()(~ACZnx:&&&&&&&oooooooooooooooOOOOOOOOooXXXhhhhhhhhhhhhhhh",
"hhhhhhhhhhhhhhs$$$333355444444455555333333333333&*;;;;O%7xvmA~(/FCCF/(~Amvx7 O&&&&&&oooooooooooOOOOOOOOOOOOOOoXX.Xhhhhhhhhhhhhhh",
"hhhhhhhhhhhhhh$$3356<11<6444445533333333333333333&**;;&O%>jvbnCZmzzmZCnbvj> O&&&&&&oooooOOOOOO+++++++++OOOOOOOooXXXhhhhhhhhhhhhh",
"hhhhhhhhhhhhhh$33561MNMB<64445533333$$$$$$$$$$$$$$&&**&&O$>>>>>>>>>>>>>>>O O&&&&&&oooooo+++++++++++++++++OOOOOOoXX.Xhhhhhhhhhhhh",
"hhhhhhhhhhhh3335546<1MB16444553333$$$###############&&&&&O                O&&&&&ooooooO++++++++++++++++++++OOOOOooXXXhhhhhhhhhhh",
"hhhhhhhhhh5544455546666655555333$$$###+++++++++++iW{+O&&&&&&&&&&&&&&&&&&&&&&XXOOOOOO++++iW{+++++++++++++++++OOOOooXXXhhhhhhhhhhh",
"hhhhhhhhh5461111111<66555555333$$$##++++++++++#isg`!++OOo&&&&&&&&&&&&&&&&++++++++++++#isg`!+++++++++++++++###$333$#+++hhhhhhhhhh",
"hhhhhhh55461MM1644555533333333$$$##++++++++++$ipsgWW+OOOooooooo...XXX+#$##++++++++++$ipsgWW+++++++++++++#$$$3333333$$+Ohhhhhhhhh",
"hhhhhh553333333333333333333333$$##+++++++++++;ipsdggOOOOOOOOOooo....XX+$$#++++++++++;ipsdggOOOOO+++++++#$#+...ooooooOOOOhhhhhhhh",
"hhhhhh53$$##OOOOOOOOOOOO##$$$33$$#+++++++++++;ipssssXXOOOOOOOOoo....XX+$$#++++++++++;ipssssOXXOO++++++#$+.....ooooooXXOOohhhhhhh",
"hhhhhh$$+$541<6453$$$#+o....+#$33$#++++++++++O;iipp;XXXXooOOOOOoo...XX+$$##+++++++++O;iipp;XXXooOO++O##..................hhhhhhh",
"hhhhhh$355411<6453$$$$$#+...OOO#$33#+OOOOOOOOOO;;;;XXXXXooOOOOOoo...XX+#$$#+++++++++OO;;;;XXXXooOOOO##....................hhhhhh",
"hhhh$33333$#XXXXXXX##$$$#O....Xooo$3$+OOOOOOOOOOOOXXXXooOOOOOOOOoo..XXO+$$#++OOOOOOOOOOOOoooooOOOOOO#X....................hhhhhh",
"hhh$33$#OOXXXXXXXXXXXX+$$#+...XXXXoo#3$OOOOOOOOOOOOOOOOOOOOOOOOOoo..XXX+$$##+OOOOOOOOOOOooXXooOOOOO#XX....................Ohhhhh",
"hhh3$Ooo#$$3333$##++XXX+#$#+......XXXo$$+OOOOOOOOOOOOOOOOOOOOOOOoo..XXX+#$$#+OOOOOOOOOOOOOOOOOOOOOOX......          ....X#OOhhhh",
"hh3$OOo$5445533$$##+++XX.+#+......XXXXo+$+OOOOOOOOOOOOOOOOOOOOOOoo..XXXO+$$#+OOOOOOOOOOOOOOOOOOOOoXX....++          ....O#OOhhhh",
"hh3#OO$54645533$$##+OO++XX+#..  ....XXXo+#+OOOOOOOOOOOOOOOOOOOOOoo..XXXO+$3$+OOOOOOOOOOOOOOOOOOooo......+++...........XO#+OOhhhh",
"hh3OO$351645533$$##+OOO+#X.+..  ....XXXXoO++OOOOOOOOOOOOOOOOOOOOoo..XXXX+#33#+OOOOOOOOOOOOOOOOoo........++#+.........O##++OOhhhh",
"hh$O#$341<45533$$##+OOOO+#..XX    ....XX.XO++OOOOOOOOOOOOOOOOOOOXX..XXXX+#34$#++OOOOOOOOOOOOOoo.....oo..+####$3333$##++++O..hhhh",
"hh#O#$34B<45533$$##+OOOO#$#.XX    ....XXX..O+##$$$###+++++++OOOOXX..XXXXO+#5453$$##++++++++Ooo......oo..o++###$$$$##++++OO..hhhh",
"hhOO#$34B145533$$##+OOOO+$$...      .........OOOOOOOOOOOOOO.........................................ooO+ooooXXXXXXXX..XXXX..hhhh",
"hhOO#$34B145533$$##+OOOO+$#...      ................................................................ooO+++ooXXXXXXXX..XXXX..hhhh",
"hhOO#$34B145533$$##+OOOO#$+...        ..............................    ......................  ....ooO+#+++++OOO++OXXoo...hhhhh",
"hhOO#$34B<45533$$##+OOOO#$O...        ..............................    ......................  ....ooO+###++OOO+++OXXoo...hhhhh",
"hhhh#$341<45533$$##+OOO+$#....        &&&&&&&&&&&&&&&&&&&&&&&&&&&&&&&&&&&&&&&&&&&&&&&&&&&&&     ....ooO+##++OOO+++OXOOXX...hhhhh",
"hhhh#$34<645533$$##+OOO+$#....        &&&&&&&&&&&&&&&&&&&&&&&&&&&&&&&&&&&&&&&&&&&&&&&&&&&&&     ....ooOO#++OOO+++OXXOOXX..hhhhhh",
"hhhh#$34<645533$$##+OOO#$+....        &&&&****iiiiiiiiiiiiiiiiiiii&&&&&&ii;;;;;;;;;;;;;;;&&     ....OOOO++OOO+++OO..ooXX..hhhhhh",
"hhhh#$344445533$$##+OOO#$+....        &&&&****i;;ipsdspi;;;;******&&&&&&i****************&&     ....OOOO+OOO++OOOO..ooXX..hhhhhh",
"hhhh#$3333$$#######+OOO##X....        &&&&****i;;ipsdspi;;;;******&&&&&&-***************&&&       ..ooOOOOOOoooo..ooXX...hhhhhhh",
"hhhh#$3$#Xooooooo+++OOO#+X....        &&&&****i;;ipsdspi;;;;******&&&&&&-***************&&&       ..ooOOOOOOoooo..ooXX...hhhhhhh",
"hhhh#$#OoooooooooooqeKKLIILKeeqq}}      &&&&&&&&&&&&&&&&&&&&&&&&&&&&&&&&&&&&&&&&&&&&&&&&&&&&    ........oooooo....XX.....hhhhhhh",
"hhhh##O.o##$$#+++qqeKLLIUUILeeqq}}      &&&&&&*;ipsdgdspi;;;*&&&&&&&&&&&&&&&&&&&&&&&&&&&&&&&    ........oooooo....XX....hhhhhhhh",
"hhhoOO..o$3553#+qqeeKLIIIyyqqqeeq0&&&&&&&&&&&&*;ipsdgdspi;;;*&&&&&&&&&&&&&&&&&&&&&&&&&&&&&&&    ........................hhhhhhhh",
"hhooOO.++#$33$+qqqeeKURUIyyqqqeeqq0&&&&&&&&&&&*;ipsdgdspi;;;*&&&&&&&&&&&&&&&&&&&&&&&&&&&&&&&&   ........................hhhhhhhh",
"hhXX..o##$$$#++qqqeeKRRRIyyqqqqqtq00&&&&&&****iiippsddsspiiiiii;--------------------********&&  ....XXXX.....qwwwwwwwww.hhhhhhhh",
"hhXX..#36<4$$+qqqqeeKYRRUIyyqqqqtqq0&&&&&&****;;;;uuiiiiuuuu;;;;----********************&&&&&&  ....XXXX...qqqwwwwwwwwwwqhhhhhhh",
"hh..X#361B<5$OqqqqeeKIURRIyyqqqqeeq0&&&&&&&&&&&&&&&&********************************            ....XXOOXXqqqqwwKKrrrrwwqqhhhhhh",
"hh..X#36BM14$OqqqqeeyLIRRUyyyqqqqeqq0&&&&&&&&&&&&&&&**********************&&&&                  ....XXOOXqqqqqwwKKrrrrwwq0qhhhhh",
"hhXXXX#36114$OqqqqeeyLLURRIyyqqqqeqq0o          ..&&&&&*****************&&..o+#$3443$$$#+OOOOOXX..  ..XX00qqqqwwwwwwqqqqq0qqhhhh",
"hhXXXX+#35<5$#qqqqqeyyLLRRIyyqqqqeqqq0          ....   &&***********&&&&  ++#$$354453$$$#+OOOOOX..  ..XX00qqqqwwwwwwqqqqq00qhhhh",
"hhXXXXo+#3545$0qqqqeeyyPURUIyyqqqqeqq0ooooXXXXXXXXXX.... &&&&&&&&&&&&&..O++####+++XXXXXX....XOOOXX......00qqqqqqqqqqqqqq0000hhhh",
"hhXXXXoo+#35450qqqqeeyyPIRRIyyqqqqeqq0ooooXXXXXXXXXX....    &&&&&&&   OOO++oooooooXXXXXX....XXOOXX......000qqqqqqqqqqqq00000hhhh",
"hhhXXXXXo+#3540qqqqqeeyyIURUIyyqqqqeqq0.............XXXX......    ..OOOOO.XXoO+#$3333$$++OooXX....XX....0000qqqqqqqqq00000**hhhh",
"hhhXXXXXoo+#350qqqqqeeyyIIRRIyyqqqqeqq0.............XXXX......    .OOOO.XXXO++#$354453$#++ooXX....XX....000000qqqq00000000**hhhh",
"hhhhXXXXXXX+#30qqqqqeeyyJPURUIyqqqqeeqq0ooooooXXoo..........XX  ..OOOX..ooOO++#$354453$#++OOooXX......**--0000000000000000**hhhh",
"hhhhXXXXXXXX+#+0qqqqqeeyyPIRRIyyqqqeeqq0ooooooXXoo..........XX  ..OOXX..ooOO++#$354453$#++OOooXX......**--000000000000000***hhhh",
"hhhhhXXXXXXXXX+0qqqqqeeyyyIURUIyqqqqeeqq0oooooXXooXX..................XXooOO++#$354453$#++OOooXX......**==00000000000000**& hhhh",
"hhhhhhXXXXXXXXO0qqqqqeeeyyIIRRIyyqqqeeqq0oooooXXooXX..................XXooOO++#$354453$#++OOooXX......**==0000000000000***& hhhh",
"hhhhhhhXXXXXOOxx0qqqqqeeeyyy**********qq00ooooXXooXX............&&..XXXXooOO++#$354453$#++OOooXX......****--qq00000000***&& hhhh",
"hhhhhhhhXXXXOOxx0qqqqqee***************q00ooooXXooXX............&&..XXXXooOO++#$354453$#++OOooXX......****--qq000000****&&& hhhh",
"hhhhhhhhhXXXjjnn00qqqq*******0qeJJee0***00ooooXXooXX............gg..XXXXooOO++#$354453$#++OOooXX......ss**==00------***&&& hhhhh",
"hhhhhhhhhhXXjjnn00qqq*******0eJPPPJJe0***0ooooXXooXX............gg..XXXXooOO++#$354453$#++OOooXX......ss**==00------***&&& hhhhh",
"hhhhhhhhhhhhnnnn00qq*****000qePURRUPJq0***ooooXXooXX..........&&&&..XXXXooOO++#$354453$#++OOooXX......ii**--------****&&& hhhhhh",
"hhhhhhhhhhhhnnnn00q****00q00qePURRUPJq0***ooooXXooXX..........&&&&..XXXXooOO++#$354453$#++OOooXX......ii**--------****&&& hhhhhh",
"hhhhhhhhhhhh88xx00****0qee00qqJPURRUPJq0**ooooXXooXX..........&&&&..XXXXooOO++#$354453$#++OOooXX......**----------***&&& hhhhhhh",
"hhhhhhhhhhhh88xx00****qeee00qqePURRUPJq0**ooooXXooXX..........&&&&..XXXXooOO++#$354453$#++OOooXX......**----------***&&& hhhhhhh",
"hhhhhhhhhhhhhh,,,,***0eeqq****************ooooXXooXX............&&..XXXXooOO++#$354453$#++OOooXX......****----****&&&&& hhhhhhhh",
"hhhhhhhhhhhhhh,,,,***qeq******************&oooXXooXX............&&..XXXXooOO++#$354453$#++OOooXX......****----****&&&&  hhhhhhhh",
"hhhhhhhhhhhhhhhhhh***qq***&&&&&&&&&&&&&&&&&*ooXXooXX............gg..XXXXooOO++#$354453$#++OOooXX......ss00**&&&&&&     hhhhhhhhh",
"hhhhhhhhhhhhhhhhhh***q****&&&&&&&&&&&&&&&&&&ooXXooXX............gg..XXXXooOO++#$354453$#++OOooXX......ss00**&&&&&&    hhhhhhhhhh",
"hhhhhhhhhhhhhhhhhhhh****&&**000qJUUPJJq000&&ooXXooXX............ss..XXXXooOOXXooooooooXX......XX......ii0000**&&&&  hhhhhhhhhhhh",
"hhhhhhhhhhhhhhhhhhhh****&&*q000qJURRPPJq000&ooXXooXX............ss..XXXXooXXXXooooooooXX......XX......ii0000**&&&&**hhhhhhhhhhhh",
"hhhhhhhhhhhhhhhhhhhh**&&*qeqq000ePRRUPJqq000*oXXooXX............&&........ooO+#$355553$#++++oo..........00**&&&&&&hhhhhhhhhhhhhh",
"hhhhhhhhhhhhhhhhhhhh**&&qeeeqq00eJRRUPJqq000**XXooXX............&&........++#$$$33553$#+OOOOoo..........00**&&&&&&hhhhhhhhhhhhhh",
"hhhhhhhhhhhhhhhhhhhh**&&qeeeeq****************XXooXX............&&..XXXO+#$$######$$#O++OOOOooooXX......00**&&**&&hhhhhhhhhhhhhh",
"hhhhhhhhhhhhhhhhhhhh**&&qee********************XooXX............&&..XOO##+OOOOOO+#$$#O++OOOOooooXX......00**&&**&&hhhhhhhhhhhhhh",
"hhhhhhhhhhhhhhhhhhhhhh00qe*****&&&&&&&&&&&&&***XXoXX..........&&  ..OO+XXXooOOOO+#$$#O++OOOOooooXX......**&&&&&&&&hhhhhhhhhhhhhh",
"hhhhhhhhhhhhhhhhhhhhhh00q*****&&&&&&&&&&&&&&&&**XoXX..........&&  .OOXXXXXooOOOO+#$$#O++OOOOooooXX......**&&&&&&&&hhhhhhhhhhhhhh",
"hhhhhhhhhhhhhhhhhhhhhh00**&&&&&&&&&&JJqq00&&&&**XX..................XXXXXXooOOOO+#$$#O++OOOOooooXX......&&&&&&  hhhhhhhhhhhhhhhh",
"hhhhhhhhhhhhhhhhhhhhhh0**&&&&&&&&&&&JJqq00&&&&&**X..................XXXXXXooOOOO+#$$#O++OOOOooooXX......&&&&&&  hhhhhhhhhhhhhhhh",
"hhhhhhhhhhhhhhhhhhhhhh**&&&&JJeeqq&&qq0000&&&&&&*o..............hh......................................      hhhhhhhhhhhhhhhhhh",
"hhhhhhhhhhhhhhhhhhhhhh*&&&&&JJeeqq&&qq0000&&&&&&**..............hh......................................      hhhhhhhhhhhhhhhhhh",
"hhhhhhhhhhhhhhhhhhhhhh&&&&00ee0000&&&&&&000000&&**...............hhoooooOO++#$$$3333$$++++++OOooXX..      hhhhhhhhhhhhhhhhhhhhhh",
"hhhhhhhhhhhhhhhhhhhhhh&&&&00ee0000&&&&&&000000&&**...............hhoooooOO++#$$$3333$$++++++OOooXX..      hhhhhhhhhhhhhhhhhhhhhh",
"hhhhhhhhhhhhhhhhhhhhhh&&&&000000&&&&&&00000000&&*.................hhXXXXXXXXXX......................hhhhhhhhhhhhhhhhhhhhhhhhhhhh",
"hhhhhhhhhhhhhhhhhhhhhh&&&&000000&&&&&&00000000&&..................hhXXXXXXXXXX......................hhhhhhhhhhhhhhhhhhhhhhhhhhhh",
"hhhhhhhhhhhhhhhhhhhhhhh&&&&&&&000000&&0000&&&&&...................hhh.ooOO++#$$$3333$#OOooXXXXXX...hhhhhhhhhhhhhhhhhhhhhhhhhhhhh",
"hhhhhhhhhhhhhhhhhhhhhhhh&&&&&&000000&&0000&&&&....................hhh.ooOO++#$$$3333$#OOooXXXXXX...hhhhhhhhhhhhhhhhhhhhhhhhhhhhh",
"hhhhhhhhhhhhhhhhhhhhhhhhhh&&&&000000&&&&&&&&oooo..................hhhoOOOO++#$$$3333$#OOooXXXXXXXXhhhhhhhhhhhhhhhhhhhhhhhhhhhhhh",
"hhhhhhhhhhhhhhhhhhhhhhhhhhhh&&000000&&&&&&oooooo..................hhhhOOOO++#$$$3333$#OOooXXXXXXXXhhhhhhhhhhhhhhhhhhhhhhhhhhhhhh",
"hhhhhhhhhhhhhhhhhhhhhhhhhhhhhhhhhhhhhh33++ooooooooOOooXX..........hhhhooOOXXXXXXXXXXXXXXXX.......hhhhhhhhhhhhhhhhhhhhhhhhhhhhhhh",
"hhhhhhhhhhhhhhhhhhhhhhhhhhhhhhhhhhhhhh33++ooooooooOOooXX..........hhhhooOOXXXXXXXXXXXXXXXX......hhhhhhhhhhhhhhhhhhhhhhhhhhhhhhhh",
"hhhhhhhhhhhhhhhhhhhhhhhhhhhhhhhhhhhhhh3333####OOOOooOOooXXXX.....hhhhhooXX$35555553$######++++XXhhhhhhhhhhhhhhhhhhhhhhhhhhhhhhhh",
"hhhhhhhhhhhhhhhhhhhhhhhhhhhhhhhhhhhhhh3333####OOOOooOOooXXXX....hhhhh+oo$35555555553$#####++++XXhhhhhhhhhhhhhhhhhhhhhhhhhhhhhhhh",
"hhhhhhhhhhhhhhhhhhhhhhhhhhhhhhhhhhhhhhhhhhhhhhhhhhhhhhhhhhhhhhhhhhhh++$3555333$##OooooooooooooOO...hhhhhhhhhhhhhhhhhhhhhhhhhhhhh",
"hhhhhhhhhhhhhhhhhhhhhhhhhhhhhhhhhhhhhhhhhhhhhhhhhhhhhhhhhhhhhhhhhhh++$355333$##OooooooooooooooOO....hhhhhhhhhhhhhhhhhhhhhhhhhhhh",
"hhhhhhhhhhhhhhhhhhhhhhhhhhhhhhhhhhhhhhhhhhhhhhhhhhhhhhhhhhhhhhhhhh++$35335556666663333####++OOooOO..hhhhhhhhhhhhhhhhhhhhhhhhhhhh",
"hhhhhhhhhhhhhhhhhhhhhhhhhhhhhhhhhhhhhhhhhhhhhhhhhhhhhhhhhhhhhhhhhh++$33355666666663333####++OOooOO..hhhhhhhhhhhhhhhhhhhhhhhhhhhh",
"hhhhhhhhhhhhhhhhhhhhhhhhhhhhhhhhhhhhhhhhhhhhhhhhhhhhhhhhhhhhhhhhhh++$33356664433######ooooooooOOOO..hhhhhhhhhhhhhhhhhhhhhhhhhhhh",
"hhhhhhhhhhhhhhhhhhhhhhhhhhhhhhhhhhhhhhhhhhhhhhhhhhhhhhhhhhhhhhhhhh++$33566643333######ooooooooOOOO..hhhhhhhhhhhhhhhhhhhhhhhhhhhh",
"hhhhhhhhhhhhhhhhhhhhhhhhhhhhhhhhhhhhhhhhhhhhhhhhhhhhhhhhhhhhhhhhhh++$335666333##33333333$$$$##ooOO..hhhhhhhhhhhhhhhhhhhhhhhhhhhh",
"hhhhhhhhhhhhhhhhhhhhhhhhhhhhhhhhhhhhhhhhhhhhhhhhhhhhhhhhhhhhhhhhhh++$335664333##33333333$$$$##ooOO..hhhhhhhhhhhhhhhhhhhhhhhhhhhh",
"hhhhhhhhhhhhhhhhhhhhhhhhhhhhhhhhhhhhhhhhhhhhhhhhhhhhhhhhhhhhhhhhhhhhhhhhhhhhhhhhhhhhhhhhhhhhhhhhhhhhhhhhhhhhhhhhhhhhhhhhhhhhhhhh",
"hhhhhhhhhhhhhhhhhhhhhhhhhhhhhhhhhhhhhhhhhhhhhhhhhhhhhhhhhhhhhhhhhhhhhhhhhhhhhhhhhhhhhhhhhhhhhhhhhhhhhhhhhhhhhhhhhhhhhhhhhhhhhhhh",
"hhhhhhhhhhhhhhhhhhhhhhhhhhhhhhhhhhhhhhhhhhhhhhhhhhhhhhhhhhhhhhhhhhhhhhhhhhhhhhhhhhhhhhhhhhhhhhhhhhhhhhhhhhhhhhhhhhhhhhhhhhhhhhhh",
"hhhhhhhhhhhhhhhhhhhhhhhhhhhhhhhhhhhhhhhhhhhhhhhhhhhhhhhhhhhhhhhhhhhhhhhhhhhhhhhhhhhhhhhhhhhhhhhhhhhhhhhhhhhhhhhhhhhhhhhhhhhhhhhh",
"hhhhhhhhhhhhhhhhhhhhhhhhhhhhhhhhhhhhhhhhhhhhhhhhhhhhhhhhhhhhhhhhhhhhhhhhhhhhhhhhhhhhhhhhhhhhhhhhhhhhhhhhhhhhhhhhhhhhhhhhhhhhhhhh",
"hhhhhhhhhhhhhhhhhhhhhhhhhhhhhhhhhhhhhhhhhhhhhhhhhhhhhhhhhhhhhhhhhhhhhhhhhhhhhhhhhhhhhhhhhhhhhhhhhhhhhhhhhhhhhhhhhhhhhhhhhhhhhhhh",
"hhhhhhhhhhhhhhhhhhhhhhhhhhhhhhhhhhhhhhhhhhhhhhhhhhhhhhhhhhhhhhhhhhhhhhhhhhhhhhhhhhhhhhhhhhhhhhhhhhhhhhhhhhhhhhhhhhhhhhhhhhhhhhhh"
};
