/* XPM */
static char *e3[] = {
/* columns rows colors chars-per-pixel */
"128 133 91 1 ",
"  c black",
". c #070000",
"X c #0F0000",
"o c #1B0700",
"O c #230B00",
"+ c #2B1700",
"@ c #2B230F",
"# c #372300",
"$ c #3F3300",
"% c #3B2F17",
"& c #232323",
"* c #2F2F2F",
"= c gray20",
"- c #373737",
"; c gray23",
": c #43331B",
"> c #4B3B1B",
", c #573F1F",
"< c #3F7300",
"1 c #377B00",
"2 c #434300",
"3 c #4B4300",
"4 c #4F5F00",
"5 c #535300",
"6 c #476700",
"7 c #5F4323",
"8 c #6F4B27",
"9 c #774F2B",
"0 c #004343",
"q c #005B5B",
"w c #006F6F",
"e c #007373",
"r c #007777",
"t c #007B7B",
"y c #007F7F",
"u c #434343",
"i c #4B4B4B",
"p c gray34",
"a c #5B5B5B",
"s c #676767",
"d c gray45",
"f c #7B7B7B",
"g c gray50",
"h c #880015",
"j c #83532F",
"k c #875333",
"l c #8B5B33",
"z c #935F37",
"x c #9F633B",
"c c #A3673F",
"v c #AB6B43",
"b c #B77347",
"n c #BF7B4B",
"m c #CB7F4F",
"M c #178F00",
"N c #079B00",
"B c #278700",
"V c #D38353",
"C c #DF8B57",
"Z c #EB8F5B",
"A c #F3975F",
"S c #FFAB5F",
"D c #FF9F63",
"F c #FFA773",
"G c #0000BF",
"H c #4343FF",
"J c #008787",
"K c #008F8F",
"L c #009B9B",
"P c #009F9F",
"I c #00A7A7",
"U c #00B7B7",
"Y c #23B3B3",
"T c #008FE7",
"R c #00CFCF",
"E c gray56",
"W c #9B9B9B",
"Q c gray67",
"! c #B7B7B7",
"~ c #FFB383",
"^ c #FFBB93",
"/ c #FFBF9F",
"( c #FFC7A7",
") c #FFCFB3",
"_ c #FFD7BF",
"` c #C3C3C3",
"' c LightGray",
"] c #DFDFDF",
"[ c #FFEBDF",
"{ c #EFEFEF",
"} c white",
/* pixels */
"hhhhhhhhhhhhhhhhhhhhhhhhhhhhhhhhhhhhhhhhhhhhhhhhhhhhhhhhhhhhhhhhhhhhhhhhhhhhhhhhhhhhhhhhhhhhhhhhhhhhhhhhhhhhhhhhhhhhhhhhhhhhhhhh",
"hhhhhhhhhhhhhhhhhhhhhhhhhhhhhhhhhhhhhhhhhhhhhhhhhhhhhhhhhhhhhhhhhhhhhhhhhhhhhhhhhhhhhhhhhhhhhhhhhhhhhhhhhhhhhhhhhhhhhhhhhhhhhhhh",
"hhhhhhhhhhhhhhhhhhhhhhhhhhhhhhhhhhhhhhhhhhhhhhhhhhhhhhhhhhhhhhhhhhhhhhhhhhhhhhhhhhhhhhhhhhhhhhhhhhhhhhhhhhhhhhhhhhhhhhhhhhhhhhhh",
"hhhhhhhhhhhhhhhhhhhhhhhhhhhhhhhhhhhhhhhhhhhhhhhhhhhhhhhhhhhhhhhhhhhhhhhhhhhhhhhhhhhhhhhhhhhhhhhhhhhhhhhhhhhhhhhhhhhhhhhhhhhhhhhh",
"hhhhhhhhhhhhhhhhhhhhhhhhhhhhhhhhhhhhhhhhhhhhhhhhhhhhhhhhhhhhhhhhhhhhhhhhhhhhhhhhhhhhhhhhhhhhhhhhhhhhhhhhhhhhhhhhhhhhhhhhhhhhhhhh",
"hhhhhhhhhhhhhhhhhhhhhhhhhhhhhhhhhhhhhhhhhhhhhhhhh8kkkkkkkkkkkkkkkkkkkkkk8hhhhhhhhhhhhhhhhhhhhhhhhhhhhhhhhhhhhhhhhhhhhhhhhhhhhhhh",
"hhhhhhhhhhhhhhhhhhhhhhhhhhhhhhhhhhhhhhhhhhhhhhhh,88kzxxxxxxxxxxxxxxxxzk88,hhhhhhhhhhhhhhhhhhhhhhhhhhhhhhhhhhhhhhhhhhhhhhhhhhhhhh",
"hhhhhhhhhhhhhhhhhhhhhhhhhhhhhhhhhhhhhhhhhhhhhhh:,8kzzxxxxxxxxxxxxxxxxzzk8,:hhhhhhhhhhhhhhhhhhhhhhhhhhhhhhhhhhhhhhhhhhhhhhhhhhhhh",
"hhhhhhhhhhhhhhhhhhhhhhhhhhhhhhhhhhhhhhhhhhhhhh::,8kzzxxxxxxxxxxxxxxxxzzk8,::hhhhhhhhhhhhhhhhhhhhhhhhhhhhhhhhhhhhhhhhhhhhhhhhhhhh",
"hhhhhhhhhhhhhhhhhhhhhhhhhhhhhhhhhhhhhhhhhhhhhh::,88888jjxxxxxxxxxxjj88888,::hhhhhhhhhhhhhhhhhhhhhhhhhhhhhhhhhhhhhhhhhhhhhhhhhhhh",
"hhhhhhhhhhhhhhhhhhhhhhhhhhhhhhhhhhhhhhhhhhhhhh::,>>>77778kxxxxxxz87777>>>,::hhhhhhhhhhhhhhhhhhhhhhhhhhhhhhhhhhhhhhhhhhhhhhhhhhhh",
"hhhhhhhhhhhhhhhhhhhhhhhhhhhhhhhhhhhhhhhhhhhhhh::>>lll777779jzzj977777lll>>::hhhhhhhhhhhhhhhhhhhhhhhhhhhhhhhhhhhhhhhhhhhhhhhhhhhh",
"hhhhhhhhhhhhhhhhhhhhhhhhhhhhhhhhhhhhhhhhhhhhhh::>lmmmnvv87>>%%>>78vvnmmml>::hhhhhhhhhhhhhhhhhhhhhhhhhhhhhhhhhhhhhhhhhhhhhhhhhhhh",
"hhhhhhhhhhhhhhhhhhhhhhhhhhhhhhhhhhhhhhhhhhhhhh::lmZFFFAAmv9>%%>9vmAAFFFZml::hhhhhhhhhhhhhhhhhhhhhhhhhhhhhhhhhhhhhhhhhhhhhhhhhhhh",
"hhhhhhhhhhhhhhhhhhhhhhhhhhhhhhhhhhhhhhhhhhhhhh::bmZ~~~~~FAmmmmmmAF~~~~~Zmb9:hhhhhhhhhhhhhhhhhhhhhhhhhhhhhhhhhhhhhhhhhhhhhhhhhhhh",
"hhhhhhhhhhhhhhhhhhhhhhhhhhhhhhhhhhhhhQhhhhhhhh:9bmZ^^~FFDF~^^^^~~DFF~^^Zmb9:hhhhhhhhhhhhhhhhhhhhhhhhhhhhhhhhhhhhhhhhhhhhhhhhhhhh",
"hhhhhhhhhhhhhhhhhhhhhhhhhhhhhhhhhhhhhQhhhhhhhh:9bmZ^^~FFDF~^^^^~~DFF~^^Zmb9:hhhhhhhhhhhhhhhhhhhhhhhhhhhhhhhhhhhhhhhhhhhhhhhhhhhh",
"hhhhhhhhhhhhhhhhhhhhhhhhhhhhhhhhhhhhsQshhhhhhh:9mmZ^/FFFDF~A^^A~^DFFF/^Zmm9:hhhhhhhhEhEhhhhhhhhhhhhhhhhhhhhhhhhhhhhhhhhhhhhhhhhh",
"hhhhhhhhhhhhhhhhhhhhhhhhhhhhhhhhhhhhgQghhhhhhh:9mmZVD)/~AAVcAAxVAA~/)DVZmm9:hhhhhhhh!h!hhhhhhhhhhhhhhhhhhhhhhhhhhhhhhhhhhhhhhhhh",
"hhhhhhhhhhhhhhhhhhhhhhhhhhhhhhhhhhhhEQEhhhhhhV:9mmb>xnD^FAAb^^mA^F^Dnx>bmm9:Vhhhhhhh`h`hhhhhhhhhhhhhhhhhhhhhhhhhhhhhhhhhhhhhhhhh",
"hhhhhhhhhhhhhhhhhhhhhhhhhhhhhhhhhhhhEQEhhhhhhF:cVmz8:%cD^~VcAAcV(^Dc%:8zmVx:Fhhhhhhh'h'hhhhhhhhhhhhhhhhhhhhhhhhhhhhhhhhhhhhhhhhh",
"hhhhhhhhhhhhhhhhhhhhhhhhhhhhhhhhhhhsEWEshhhhhm:cmczWp@@xxxj>vv>jxxx@@pWzcmc:mhhhhhhE'{'Ehhhhhhhhhhhhhhhhhhhhhhhhhhhhhhhhhhhhhhhh",
"hhhhhhhhhhhhhhhhhhhhhhhhhhhhhhhhhhhsWWWshhhhhclcCnvsHTGp ,,>zz>,% pGTHsvnCc:chhhhhhE]{]Ehhhhhhhhhhhhhhhhhhhhhhhhhhhhhhhhhhhhhhhh",
"hhhhhhhhhhhhhhhhhhhhhhhhh'!hhhhhhhhdWWWdhhhhhc9cAAVC^bx9> @9nV9@ >9xb^CVAAc9chhhhhhW]]]Whhhhhhhhhhhhhhhhhhhhhhhhhhhhhhhhhhhhhhhh",
"hhhhhhhhhhhhhhhhhhhhhhhhh`!hhhhhhhhsEWEshhhhhVjcF(___/DVVj9n/_njjVVD/___(FcjVhhhhhhE`]`Ehhhhhhhhhhhhhhhh!hhhhhhhhhhhhhhhhhhhhhhh",
"hhhhhhhhhhhhhhhhhhhhhhhhhW'!hhhhhhidEEEdihhhh9jcD(__[_~v:VvC/_CnV:v~_[__(Dcj9hhhhhsW`'`Wshhhhhhhhhhhhhh!Qhhhhhhhhhhhhhhhhhhhhhhh",
"hhhhhhhhhhhhhhhhhhhhhhhhhW`!hhhhhhidgEgdihhhhh9cZS/)_~vj7lnA)}Acl7jv~_)/SZchhhhhhhsW!'!Wshhhhhhhhhhhhh!]Qhhhhhhhhhhhhhhhhhhhhhhh",
"hhhhhhhhhhhhhhhhhhhhhhhhhEW'!hhhhhidgEgdihhhhhhjmZS~~ZvjccxmAAmxccjvZ~~SZmjhhhhhhhsW!`!Wshhhhhhhhhhhh!]`Qhhhhhhhhhhhhhhhhhhhhhhh",
"hhhhhhhhhhhhhhhhhhhhhhhhhgW`!hhhhhadgggdahhhhhhjjbZF~ZvjVAmzjjlm/VjvZ~FZbjjhhhhhhhfW!!!Wfhhhhhhhhhhh!]'!Whhhhhhhhhhhhhhhhhhhhhhh",
"hhhhhhhhhhhhhhhhhhhhhhhhhdEW'!hhhiadgggdaihhh&&jzjvA~ZvzmA~Zllm/_mzvZ~Avjzj&&hhhhsgWQ!QWgshhhhhhhhh!]'!WEhhhhhhhhhhhhhhhhhhhhhhh",
"hhhhhhhhhhhhhhhhhhhhhhhhhsgW`!hhhiadgggdaihh&&&jvzvC^ZvlzzzzzzzzzzlvZ^Cvzvj&;&hhhsgWQ!QWgshhhhhhhh!]'!Wgghhhhhhhhhhhhhhhhhhhhhhh",
"hhhhhhhhhhhhhhhhhhhhhWhhhsdEW'!hhiadgggdaih&&&&jvvvV^Zv,%;E']]'E;%,vZ^Vvvvj g;&hhsgWQ!QWgsshhhhhh!''!!Wgdhhhhhhhhhhhhhhhhhhhhhhh",
"hhhhhhhhhhhhhhhhhhhhhWWhhsdgW`!hhiadgggdai&&&&&jvbvV^Zm: isWQQWsi :mZ^Vvbvj `p*&$sgWQ!QWgsEhhhhh!''!!Wgdshhhhhhhhhhhhhhhhhhhhhhh",
"hhhhhhhhhhhhhhhhhhhhhXXXXXXXXoooOpadgggdap&&&&&jvVbVF~ZZVZD^^^^DZVZZ~FVbVvj;Wd;*$dgWQ!QWgsE$$$$$$$$$$$dsshhhhhhhWhhhhhhhhhhhhhhh",
"hhhhhhhhhhhhhhhhhhhXXXXXXXXXXoooOpadgggdap&&&&&jvZVmAFFFCCAD~~DACCFFFAmVZvjpspi;odgWQ!QWgs$33333333$$$$$$hhhhhhWEhhhhhhhhhhhhhhh",
"hhhhhhhhhhhhhhhhhXXXXXXooXXXXXXXo2adgggda2&&&&&:xZAVVF^^^~ZnxxnZ~^((FVVAZx:spii*+$gWQ!QWg$$33333333333$$$$$hhhWEghhhhhhhhhhhhhhh",
"hhhhhhhhhhhhhhhhXXXXXXXooXXXXXXXoO2sgggs2%&&&&&&:bVACC^^^~~CmmC~~_[^CCAVb:piii;*##$EQ!QE$$335555555333333$$$$WEgdhhhhhhhhhhhhhhh",
"hhhhhhhhhhhhhhXXXooOOOOOOOOooooooooooooooo&&&&&&&:xnZCA~()(^FF^_[[_ACZnx:ii;;;*&$3$$$$$$3335544444455553333$$$$dshhhhhhhhhhhhhhh",
"hhhhhhhhhhhhhX.XXoOOOOOOOOOOOOOOooooooooooo&&&&&&O 7xvmA~(/FCCF/(~Amvx7%O;;;;*&333333333333555554444444553333$$$shhhhhhhhhhhhhhh",
"hhhhhhhhhhhhXXXooOOOOOOO+++++++++OOOOOOooooo&&&&&&O >jvbnCZmzzmZCnbvj>%O&;;**&3333333333333333355444446<11<6533$$hhhhhhhhhhhhhhh",
"hhhhhhhhhhhX.XXoOOOOOO+++++++++++++++++oooooo&&&&&&O O>>>>>>>>>>>>>>>$O&&**&&$$$$$$$$$$$$$$33333554446<BMNM16533$hhhhhhhhhhhhhhh",
"hhhhhhhhhhXXXooOOOOO++++++++++++++++++++Ooooooo&&&&&O                O&&&&&###############$$$33335544461BM1<6455333hhhhhhhhhhhhh",
"hhhhhhhhhhXXXooOOOO+++++++++++++++++{Wi++++OOOOOOXX&&&&&&&&&&&&&&&&&&&&&&O+{Wi+++++++++++###$$$3335555566666455544455hhhhhhhhhhh",
"hhhhhhhhh+++#$333$###+++++++++++++++!`gsi#++++++++++++&&&&&&&&&&&&&&&&oOO++!`gsi#++++++++++##$$$33355555566<1111111645hhhhhhhhhh",
"hhhhhhhhO+$$3333333$$$#+++++++++++++WWgspi$++++++++++##$#+XXX...oooooooOOO+WWgspi$++++++++++##$$$3333333355554461MM16455hhhhhhhh",
"hhhhhhhOOOOoooooo...+#$#+++++++OOOOOggdspi;++++++++++#$$+XX....oooOOOOOOOOOggdspi;+++++++++++##$$333333333333333333333355hhhhhhh",
"hhhhhhoOOXXoooooo.....+$#++++++OOXXOsssspi;++++++++++#$$+XX....ooOOOOOOOOXXsssspi;+++++++++++#$$33$$$##OOOOOOOOOOOO##$$35hhhhhhh",
"hhhhhh..................##O++OOooXXX;ppii;O+++++++++##$$+XX...ooOOOOOooXXXX;ppii;O++++++++++#$33$#+....o+#$$$3546<145$+$$hhhhhhh",
"hhhhh....................##OOOOooXXXX;;;;OO+++++++++#$$#+XX...ooOOOOOooXXXXX;;;;OOOOOOOOOO+#33$#OOO...+#$$$$$3546<114553$hhhhhhh",
"hhhhh....................X#OOOOOOoooooOOOOOOOOOOOO++#$$+OXX..ooOOOOOOOOooXXXXOOOOOOOOOOOO+$3$oooX....O#$$$##XXXXXXX#$33333$hhhhh",
"hhhhO....................XX#OOOOOooXXooOOOOOOOOOOO+##$$+XXX..ooOOOOOOOOOOOOOOOOOOOOOOOOO$3#ooXXXX...+#$$+XXXXXXXXXXXXOO#$33$hhhh",
"hhhOO#X....          ......XOOOOOOOOOOOOOOOOOOOOOO+#$$#+XXX..ooOOOOOOOOOOOOOOOOOOOOOOO+$$oXXX......+#$#+XXX++##$3333$$#ooO$3hhhh",
"hhhOO#O....          ++....XXoOOOOOOOOOOOOOOOOOOOO+#$$+OXXX..ooOOOOOOOOOOOOOOOOOOOOOO+$+oXXXX......+#+.XX+++##$$3355445$oOO$3hhh",
"hhhOO+#OX...........+++......oooOOOOOOOOOOOOOOOOOO+$3$+OXXX..ooOOOOOOOOOOOOOOOOOOOOO+#+oXXX....  ..#+XX++OO+##$$33554645$OO#3hhh",
"hhhOO++##O.........+#++........ooOOOOOOOOOOOOOOOO+#33#+XXXX..ooOOOOOOOOOOOOOOOOOOOO++OoXXXX....  ..+.X#+OOO+##$$335546153$OO3hhh",
"hhh..O++++##$3333$####+..oo.....ooOOOOOOOOOOOOO++#$43#+XXXX..XXOOOOOOOOOOOOOOOOOOO++OX.XX....    XX..#+OOOO+##$$33554<143$#O$hhh",
"hhh..OO++++##$$$$###++o..oo......ooO++++++++##$$3545#+OXXXX..XXOOOO+++++++###$$$##+O..XXX....    XX.#$#OOOO+##$$33554<B43$#O#hhh",
"hhh..XXXX..XXXXXXXXoooo+Ooo.........................................OOOOOOOOOOOOOO.........      ...$$+OOOO+##$$335541B43$#OOhhh",
"hhh..XXXX..XXXXXXXXoo+++Ooo................................................................      ...#$+OOOO+##$$335541B43$#OOhhh",
"hhhh...ooXXO++OOO+++++#+Ooo....  ......................    ..............................        ...+$#OOOO+##$$335541B43$#OOhhh",
"hhhh...ooXXO+++OOO++###+Ooo....  ......................    ..............................        ...O$#OOOO+##$$33554<B43$#OOhhh",
"hhhh...XXOOXO+++OOO++##+Ooo....     &&&&&&&&&&&&&&&&&&&&&&&&&&&&&&&&&&&&&&&&&&&&&&&&&&&&&        ....#$+OOO+##$$33554<143$#hhhhh",
"hhhhh..XXOOXXO+++OOO++#OOoo....     &&&&&&&&&&&&&&&&&&&&&&&&&&&&&&&&&&&&&&&&&&&&&&&&&&&&&        ....#$+OOO+##$$335546<43$#hhhhh",
"hhhhh..XXoo..OO+++OOO++OOOO....     &&;;;;;;;;;;;;;;;ii&&&&&&iiiiiiiiiiiiiiiiiiii****&&&&        ....+$#OOO+##$$335546<43$#hhhhh",
"hhhhh..XXoo..OOOO++OOO+OOOO....     &&****************i&&&&&&******;;;;ipsdspi;;i****&&&&        ....+$#OOO+##$$335544443$#hhhhh",
"hhhhhh...XXoo..ooooOOOOOOoo..       &&&***************-&&&&&&******;;;;ipsdspi;;i****&&&&        ....X##OOO+#######$$3333$#hhhhh",
"hhhhhh...XXoo..ooooOOOOOOoo..       &&&***************-&&&&&&******;;;;ipsdspi;;i****&&&&        ....X+#OOO+++oooooooX#$3$#hhhhh",
"hhhhhh.....XX....oooooo........    &&&&&&&&&&&&&&&&&&&&&&&&&&&&&&&&&&&&&&&&&&&&&&&&&&&&      }}qqeeKLIILKKeqoooooooooooO#$#hhhhh",
"hhhhhhh....XX....oooooo........    &&&&&&&&&&&&&&&&&&&&&&&&&&&&&&&*;;;ipsdgdspi;*&&&&&&      }}qqeeLIUUILLKeqq+++#$$##o.O##hhhhh",
"hhhhhhh........................    &&&&&&&&&&&&&&&&&&&&&&&&&&&&&&&*;;;ipsdgdspi;*&&&&&&&&&&&&0qeeqqqyyIIILKeeqq+#3553$o..OOohhhh",
"hhhhhhh........................   &&&&&&&&&&&&&&&&&&&&&&&&&&&&&&&&*;;;ipsdgdspi;*&&&&&&&&&&&0qqeeqqqyyIURUKeeqqq+$33$#++.OOoohhh",
"hhhhhhh.wwwwwwwwwq.....XXXX....  &&********--------------------;iiiiiipssddsppiii****&&&&&&00qtqqqqqyyIRRRKeeqqq++#$$$##o..XXhhh",
"hhhhhhqwwwwwwwwwwqqq...XXXX....  &&&&&&********************----;;;;uuuuiiiiuu;;;;****&&&&&&0qqtqqqqyyIURRYKeeqqqq+$$4<63#..XXhhh",
"hhhhhqqwwrrrrKKwwqqqqXXOOXX....            ********************************&&&&&&&&&&&&&&&&0qeeqqqqyyIRRUIKeeqqqqO$5<B163#X..hhh",
"hhhhq0qwwrrrrKKwwqqqqqXOOXX....                  &&&&**********************&&&&&&&&&&&&&&&0qqeqqqqyyyURRILyeeqqqqO$41MB63#X..hhh",
"hhhqq0qqqqqwwwwwwqqqq00XX..  ..XXOOOOO+#$$$3443$#+o..&&*****************&&&&&..          o0qqeqqqqyyIRRULLyeeqqqqO$41163#XXXXhhh",
"hhhq00qqqqqwwwwwwqqqq00XX..  ..XOOOOO+#$$$354453$$#++  &&&&***********&&   ....          0qqqeqqqqyyIRRLLyyeqqqqq#$5<53#+XXXXhhh",
"hhh0000qqqqqqqqqqqqqq00......XXOOOX....XXXXXX+++####++O..&&&&&&&&&&&&& ....XXXXXXXXXXoooo0qqeqqqqyyIURUPyyeeqqqq0$5453#+oXXXXhhh",
"hhh00000qqqqqqqqqqqq000......XXOOXX....XXXXXXooooooo++OOO   &&&&&&&    ....XXXXXXXXXXoooo0qqeqqqqyyIRRIPyyeeqqqq05453#+ooXXXXhhh",
"hhh**00000qqqqqqqqq0000....XX....XXooO++$$3333$#+OoXX.OOOOO..    ......XXXX.............0qqeqqqqyyIURUIyyeeqqqqq0453#+oXXXXXhhhh",
"hhh**00000000qqqq000000....XX....XXoo++#$354453$#++OXXX.OOOO.    ......XXXX.............0qqeqqqqyyIRRIIyyeeqqqqq053#+ooXXXXXhhhh",
"hhh**0000000000000000--**......XXooOO++#$354453$#++OOoo..XOOO..  XX..........ooXXoooooo0qqeeqqqqyIURUPJyyeeqqqqq03#+XXXXXXXhhhhh",
"hhh***000000000000000--**......XXooOO++#$354453$#++OOoo..XXOO..  XX..........ooXXoooooo0qqeeqqqyyIRRIPyyeeqqqqq0+#+XXXXXXXXhhhhh",
"hhh &**00000000000000==**......XXooOO++#$354453$#++OOooXX..................XXooXXooooo0qqeeqqqqyIURUIyyyeeqqqqq0+XXXXXXXXXhhhhhh",
"hhh &***0000000000000==**......XXooOO++#$354453$#++OOooXX..................XXooXXooooo0qqeeqqqyyIRRIIyyeeeqqqqq0OXXXXXXXXhhhhhhh",
"hhh &&***00000000qq--****......XXooOO++#$354453$#++OOooXXXX..&&............XXooXXoooo00qq**********yyyeeeqqqqq0xxOOXXXXXhhhhhhhh",
"hhh &&&****000000qq--****......XXooOO++#$354453$#++OOooXXXX..&&............XXooXXoooo00q***************eeqqqqq0xxOOXXXXhhhhhhhhh",
"hhhh &&&***------00==**ss......XXooOO++#$354453$#++OOooXXXX..gg............XXooXXoooo00***0eeJJeq0*******qqqq00nnjjXXXhhhhhhhhhh",
"hhhh &&&***------00==**ss......XXooOO++#$354453$#++OOooXXXX..gg............XXooXXoooo0***0eJJPPPJe0*******qqq00nnjjXXhhhhhhhhhhh",
"hhhhh &&&****--------**ii......XXooOO++#$354453$#++OOooXXXX..&&&&..........XXooXXoooo***0qJPURRUPeq000*****qq00nnnnhhhhhhhhhhhhh",
"hhhhh &&&****--------**ii......XXooOO++#$354453$#++OOooXXXX..&&&&..........XXooXXoooo***0qJPURRUPeq00q00****q00nnnnhhhhhhhhhhhhh",
"hhhhhh &&&***----------**......XXooOO++#$354453$#++OOooXXXX..&&&&..........XXooXXoooo**0qJPURRUPJqq00eeq0****00xx88hhhhhhhhhhhhh",
"hhhhhh &&&***----------**......XXooOO++#$354453$#++OOooXXXX..&&&&..........XXooXXoooo**0qJPURRUPeqq00eeeq****00xx88hhhhhhhhhhhhh",
"hhhhhhh &&&&&****----****......XXooOO++#$354453$#++OOooXXXX..&&............XXooXXoooo****************qqee0***,,,,hhhhhhhhhhhhhhh",
"hhhhhhh  &&&&****----****......XXooOO++#$354453$#++OOooXXXX..&&............XXooXXooo&******************qeq***,,,,hhhhhhhhhhhhhhh",
"hhhhhhhh     &&&&&&**00ss......XXooOO++#$354453$#++OOooXXXX..gg............XXooXXoo*&&&&&&&&&&&&&&&&&***qq***hhhhhhhhhhhhhhhhhhh",
"hhhhhhhhh    &&&&&&**00ss......XXooOO++#$354453$#++OOooXXXX..gg............XXooXXoo&&&&&&&&&&&&&&&&&&****q***hhhhhhhhhhhhhhhhhhh",
"hhhhhhhhhhh  &&&&**0000ii......XX......XXooooooooXXOOooXXXX..ss............XXooXXoo&&000qJJPUUJq000**&&****hhhhhhhhhhhhhhhhhhhhh",
"hhhhhhhhhhh**&&&&**0000ii......XX......XXooooooooXXXXooXXXX..ss............XXooXXoo&000qJPPRRUJq000q*&&****hhhhhhhhhhhhhhhhhhhhh",
"hhhhhhhhhhhhh&&&&&&**00..........oo++++#$355553$#+Ooo........&&............XXooXXo*000qqJPURRPe000qqeq*&&**hhhhhhhhhhhhhhhhhhhhh",
"hhhhhhhhhhhhh&&&&&&**00..........ooOOOO+#$35533$$$#++........&&............XXooXX**000qqJPURRJe00qqeeeq&&**hhhhhhhhhhhhhhhhhhhhh",
"hhhhhhhhhhhhh&&**&&**00......XXooooOOOO++O#$$######$$#+OXXX..&&............XXooXX****************qeeeeq&&**hhhhhhhhhhhhhhhhhhhhh",
"hhhhhhhhhhhhh&&**&&**00......XXooooOOOO++O#$$#+OOOOOO+##OOX..&&............XXooX********************eeq&&**hhhhhhhhhhhhhhhhhhhhh",
"hhhhhhhhhhhhh&&&&&&&&**......XXooooOOOO++O#$$#+OOOOooXXX+OO..  &&..........XXoXX***&&&&&&&&&&&&&*****eq00hhhhhhhhhhhhhhhhhhhhhhh",
"hhhhhhhhhhhhh&&&&&&&&**......XXooooOOOO++O#$$#+OOOOooXXXXXOO.  &&..........XXoX**&&&&&&&&&&&&&&&&*****q00hhhhhhhhhhhhhhhhhhhhhhh",
"hhhhhhhhhhhhhhh  &&&&&&......XXooooOOOO++O#$$#+OOOOooXXXXXX..................XX**&&&&00qqJJ&&&&&&&&&&**00hhhhhhhhhhhhhhhhhhhhhhh",
"hhhhhhhhhhhhhhh  &&&&&&......XXooooOOOO++O#$$#+OOOOooXXXXXX..................X**&&&&&00qqJJ&&&&&&&&&&&**0hhhhhhhhhhhhhhhhhhhhhhh",
"hhhhhhhhhhhhhhhhh      ......................................hh..............o*&&&&&&0000qq&&qqeeJJ&&&&**hhhhhhhhhhhhhhhhhhhhhhh",
"hhhhhhhhhhhhhhhhh      ......................................hh..............**&&&&&&0000qq&&qqeeJJ&&&&&*hhhhhhhhhhhhhhhhhhhhhhh",
"hhhhhhhhhhhhhhhhhhhhh      ..XXooOO++++++$$3333$$$#++OOooooohh...............**&&000000&&&&&&0000ee00&&&&hhhhhhhhhhhhhhhhhhhhhhh",
"hhhhhhhhhhhhhhhhhhhhh      ..XXooOO++++++$$3333$$$#++OOooooohh...............**&&000000&&&&&&0000ee00&&&&hhhhhhhhhhhhhhhhhhhhhhh",
"hhhhhhhhhhhhhhhhhhhhhhhhhhh......................XXXXXXXXXXhh.................*&&00000000&&&&&&000000&&&&hhhhhhhhhhhhhhhhhhhhhhh",
"hhhhhhhhhhhhhhhhhhhhhhhhhhh......................XXXXXXXXXXhh..................&&00000000&&&&&&000000&&&&hhhhhhhhhhhhhhhhhhhhhhh",
"hhhhhhhhhhhhhhhhhhhhhhhhhhhh...XXXXXXooOO#$3333$$$#++OOoo.hhh...................&&&&&0000&&000000&&&&&&&hhhhhhhhhhhhhhhhhhhhhhhh",
"hhhhhhhhhhhhhhhhhhhhhhhhhhhh...XXXXXXooOO#$3333$$$#++OOoo.hhh....................&&&&0000&&000000&&&&&&hhhhhhhhhhhhhhhhhhhhhhhhh",
"hhhhhhhhhhhhhhhhhhhhhhhhhhhhhXXXXXXXXooOO#$3333$$$#++OOOOohhh..................oooo&&&&&&&&000000&&&&hhhhhhhhhhhhhhhhhhhhhhhhhhh",
"hhhhhhhhhhhhhhhhhhhhhhhhhhhhhXXXXXXXXooOO#$3333$$$#++OOOOhhhh..................oooooo&&&&&&000000&&hhhhhhhhhhhhhhhhhhhhhhhhhhhhh",
"hhhhhhhhhhhhhhhhhhhhhhhhhhhhhh.......XXXXXXXXXXXXXXXXOOoohhhh..........XXooOOoooooooo++33hhhhhhhhhhhhhhhhhhhhhhhhhhhhhhhhhhhhhhh",
"hhhhhhhhhhhhhhhhhhhhhhhhhhhhhhh......XXXXXXXXXXXXXXXXOOoohhhh..........XXooOOoooooooo++33hhhhhhhhhhhhhhhhhhhhhhhhhhhhhhhhhhhhhhh",
"hhhhhhhhhhhhhhhhhhhhhhhhhhhhhhhXX++++######$35555553$XXoohhhhh.....XXXXooOOooOOOO####3333hhhhhhhhhhhhhhhhhhhhhhhhhhhhhhhhhhhhhhh",
"hhhhhhhhhhhhhhhhhhhhhhhhhhhhhhhXX++++#####$35555555553$oo+hhhhh....XXXXooOOooOOOO####3333hhhhhhhhhhhhhhhhhhhhhhhhhhhhhhhhhhhhhhh",
"hhhhhhhhhhhhhhhhhhhhhhhhhhhh...OOooooooooooooO##$3335553$++hhhhhhhhhhhhhhhhhhhhhhhhhhhhhhhhhhhhhhhhhhhhhhhhhhhhhhhhhhhhhhhhhhhhh",
"hhhhhhhhhhhhhhhhhhhhhhhhhhh....OOooooooooooooooO##$333553$++hhhhhhhhhhhhhhhhhhhhhhhhhhhhhhhhhhhhhhhhhhhhhhhhhhhhhhhhhhhhhhhhhhhh",
"hhhhhhhhhhhhhhhhhhhhhhhhhhh..OOooOO++####33336666665553353$++hhhhhhhhhhhhhhhhhhhhhhhhhhhhhhhhhhhhhhhhhhhhhhhhhhhhhhhhhhhhhhhhhhh",
"hhhhhhhhhhhhhhhhhhhhhhhhhhh..OOooOO++####33336666666655333$++hhhhhhhhhhhhhhhhhhhhhhhhhhhhhhhhhhhhhhhhhhhhhhhhhhhhhhhhhhhhhhhhhhh",
"hhhhhhhhhhhhhhhhhhhhhhhhhhh..OOOOoooooooo######33446665333$++hhhhhhhhhhhhhhhhhhhhhhhhhhhhhhhhhhhhhhhhhhhhhhhhhhhhhhhhhhhhhhhhhhh",
"hhhhhhhhhhhhhhhhhhhhhhhhhhh..OOOOoooooooo######33334666533$++hhhhhhhhhhhhhhhhhhhhhhhhhhhhhhhhhhhhhhhhhhhhhhhhhhhhhhhhhhhhhhhhhhh",
"hhhhhhhhhhhhhhhhhhhhhhhhhhh..OOoo##$$$$33333333##333666533$++hhhhhhhhhhhhhhhhhhhhhhhhhhhhhhhhhhhhhhhhhhhhhhhhhhhhhhhhhhhhhhhhhhh",
"hhhhhhhhhhhhhhhhhhhhhhhhhhh..OOoo##$$$$33333333##333466533$++hhhhhhhhhhhhhhhhhhhhhhhhhhhhhhhhhhhhhhhhhhhhhhhhhhhhhhhhhhhhhhhhhhh",
"hhhhhhhhhhhhhhhhhhhhhhhhhhhhhhhhhhhhhhhhhhhhhhhhhhhhhhhhhhhhhhhhhhhhhhhhhhhhhhhhhhhhhhhhhhhhhhhhhhhhhhhhhhhhhhhhhhhhhhhhhhhhhhhh",
"hhhhhhhhhhhhhhhhhhhhhhhhhhhhhhhhhhhhhhhhhhhhhhhhhhhhhhhhhhhhhhhhhhhhhhhhhhhhhhhhhhhhhhhhhhhhhhhhhhhhhhhhhhhhhhhhhhhhhhhhhhhhhhhh",
"hhhhhhhhhhhhhhhhhhhhhhhhhhhhhhhhhhhhhhhhhhhhhhhhhhhhhhhhhhhhhhhhhhhhhhhhhhhhhhhhhhhhhhhhhhhhhhhhhhhhhhhhhhhhhhhhhhhhhhhhhhhhhhhh",
"hhhhhhhhhhhhhhhhhhhhhhhhhhhhhhhhhhhhhhhhhhhhhhhhhhhhhhhhhhhhhhhhhhhhhhhhhhhhhhhhhhhhhhhhhhhhhhhhhhhhhhhhhhhhhhhhhhhhhhhhhhhhhhhh"
};
