/* XPM */
static char *e5[] = {
/* columns rows colors chars-per-pixel */
"128 130 83 1 ",
"  c black",
". c #070000",
"X c #0F0000",
"o c #1B0700",
"O c gray12",
"+ c #230B00",
"@ c #2B1700",
"# c #2B230F",
"$ c #372300",
"% c #3F3300",
"& c #3B2F17",
"* c #232323",
"= c #2F2F2F",
"- c gray20",
"; c #373737",
": c gray23",
"> c #43331B",
", c #4B3B1B",
"< c #573F1F",
"1 c #3F7300",
"2 c #377B00",
"3 c #4B4300",
"4 c #4F5F00",
"5 c #535300",
"6 c #476700",
"7 c #5F4323",
"8 c #6F4B27",
"9 c #774F2B",
"0 c #004343",
"q c #005B5B",
"w c #006F6F",
"e c #007373",
"r c #434343",
"t c #4B4B4B",
"y c gray34",
"u c #676767",
"i c gray45",
"p c #7B7B7B",
"a c gray50",
"s c #880015",
"d c #83532F",
"f c #875333",
"g c #8B5B33",
"h c #935F37",
"j c #9F633B",
"k c #A3673F",
"l c #AB6B43",
"z c #B77347",
"x c #BF7B4B",
"c c #CB7F4F",
"v c #178F00",
"b c #079B00",
"n c #278700",
"m c #07B700",
"M c #D38353",
"N c #DF8B57",
"B c #EB8F5B",
"V c #F3975F",
"C c #FFAB5F",
"Z c #FF9F63",
"A c #FFA773",
"S c #0000BF",
"D c #4343FF",
"F c #008787",
"G c #009F9F",
"H c #00B7B7",
"J c #008FE7",
"K c gray56",
"L c #9B9B9B",
"P c gray67",
"I c #B7B7B7",
"U c #FFB383",
"Y c #FFBB93",
"T c #FFBF9F",
"R c #FFC7A7",
"E c #FFCFB3",
"W c #FFD7BF",
"Q c #C3C3C3",
"! c LightGray",
"~ c #DFDFDF",
"^ c #FFEBDF",
"/ c #EFEFEF",
"( c white",
/* pixels */
"ssssssssssssssssssssssssssssssssssssssssssssssssssssssssssssssssssssssssssssssssssssssssssssssssssssssssssssssssssssssssssssssss",
"ssssssssssssssssssssssssssssssssssssssssssssssssssssssssssssssssssssssssssssssssssssssssssssssssssssssssssssssssssssssssssssssss",
"ssssssssssssssssssssssssssssssssssssssssssssssssssssssssssssssssssssssssssssssssssssssssssssssssssssssssssssssssssssssssssssssss",
"ssssssssssssssssssssssssssssssssssssssssssssssssssssssssssssssssssssssssssssssssssssssssssssssssssssssssssssssssssssssssssssssss",
"sssssssssssssssssssssssssssssssssssssssssssssssssssss8ffffffffffffffffffffff8sssssssssssssssssssssssssssssssssssssssssssssssssss",
"ssssssssssssssssssssssssssssssssssssssssssssssssssss<88fhjjjjjjjjjjjjjjjjhf88<ssssssssssssssssssssssssssssssssssssssssssssssssss",
"sssssssssssssssssssssssssssssssssssssssssssssssssss><88888ddjjjjjjjjjjdd88888<>sssssssssssssssssssssssssssssssssssssssssssssssss",
"ssssssssssssssssssssssssssssssssssssssssssssssssss>><,,,77778hjjjjjjf87777,,,<>>ssssssssssssssssssssssssssssssssssssssssssssssss",
"ssssssssssssssssssssssssssssssssssssssssssssssssss>>,,ggg777779dhhd977777ggg,,>>ssssssssssssssssssssssssssssssssssssssssssssssss",
"ssssssssssssssssssssssssssssssssssssssssssssssssss>>,gcccxll87,,&&,,78llxcccg,>>ssssssssssssssssssssssssssssssssssssssssssssssss",
"ssssssssssssssssssssssssssssssssssssssssssssssssss>>gcBAAAVVcl9,&&,9lcVVAAABcg>>ssssssssssssssssssssssssssssssssssssssssssssssss",
"ssssssssssssssssssssssssssssssssssssssssssssssssss>9zcBUUUUUAVccccccVAUUUUUBcz>>ssssssssssssssssssssssssssssssssssssssssssssssss",
"ssssssssssssssssssssssssssssssssssssssssssssssssss>9zcBYYUAAZUUYYYYUAZAAUYYBcz9>ssssssssssssssssssssssssssssssssssssssssssssssss",
"ssssssssssssssssssssssssssssssssssssssssssssssssss>9zcBYYUAAZUUYYYYUAZAAUYYBcz9>ssssssssssssssssssssssssssssssssssssssssssssssss",
"ssssssssssssssssssssssssssssssssssssssssssssssssss>9ccBYTAAAZYUVYYVUAZAAATYBcc9>ssssssssssssssssssssssssssssssssssssssssssssssss",
"ssssssssssssssssssssssssssssssssssssssssssssssssss>9ccBMZETUVVMjVVkMVVUTEZMBcc9>ssssssssssssssssssssssssssssssssssssssssssssssss",
"ssssssssssssssssssssssssssssssssssssssssssssssssss>9ccz,jxZYAYVcYYzVVAYZxj,zcc9>ssssssssssssssssssssssssssssssssssssssssssssssss",
"sssssssssssssssssssssssssssssssssssssKsKssssssssss>jMch8>&kZYRMkVVkMUYZk&>8hcMk>ssssssssssssssssssssssssssssssssssssssssssssssss",
"sssssssssssssssssssssssssssssssssssssIsIsssssssssM>kckhLy###jjd,ll,djj###yLhkck>MssssssssKsKssssssssssssssssssssssssssssssssssss",
"sssssssssssssssssssssssssssssssssssssQsQsssssssssA>kNxluDJSy ##,hh,## ySJDulxNk>AssssssssIsIssssssssssssssssssssssssssssssssssss",
"sssssssssssssssssssssssssssssssssssss!s!sssssssssc9kVVMNYzj9, #9Mx9# ,9jzYNMVVkgcssssssssQsQssssssssssssssssssssssssssssssssssss",
"ssssssssssssssssssssssssssssssssssssK!/!KsssssssskdkARWWWTZMlddxWTx9dlMZTWWWRAk9kssssssss!s!ssssssssssssssssssssssssssssssssssss",
"ssssssssssssssssssssssssssssssssssssK~/~KsssssssskdkZRWW^WcddMxNWTNlMddcW^WWRZkdksssssssK!/!Ksssssssssssssssssssssssssssssssssss",
"ssssssssssssssssssssssssssssssssssssL~~~LssssssssMdkBCTEWUl8lgkV(EVxgl8lUWETCBkdMsssssssK~/~Ksssssssssssssssssssssssssssssssssss",
"ssssssssssssssssssssssssssssssssssssKQ~QKssssssss9ddcBCUUBl8zkjcVVcjkz8lBUUCBcd99sssssssL~~~Lsssssssssssssssssssssssssssssssssss",
"sssssssssssssssssssssssssssssssssssuLQ!QLussssssssdddzBAUBl8MTcgddhcVM8lBUABzdd9ssssssssKQ~QKsssssssssssssssssssssssssssssssssss",
"sssssssssssssssssssssssssssssssssssuLI!ILusssssssssdgdlVUBl8cWTcggBUVc8lBUVldhd9sssssssuLQ!QLusssssssssssssussssssssssssssssssss",
"ssssssssssssssssssssssussssssssssssuLIQILusssssssssdhgdNYBl8hhhhhhhhhh8lBYNdghdssssssssuLI!ILussssssssssssaussssssssssssssssssss",
"ssssssssssssssssssssssuassssssssssspLIIILpsssssssssdlhdMYBl< :K!~~!K: <lBYMdhldssssssssuLIQILusssssssssssKaussssssssssssssssssss",
"ssssssssssssssssssssssuaKsssssssssuaLPIPLausssssss dllgMYBl<          <lBYMdlld*ssssssspLIIILpssssssssssKLiussssssssssssssssssss",
"ssssssssssssssssssssssaiLKssssssssuaLPIPLaussssss* dllgMYBl<          <lBYMglld**sssssuaLPIPLaussssssssLILuussssssssssssssssssss",
"ssssssssssssssssssssssLaLILsssssssuaLPIPLausssss*: dlzlMYBlj          jlBYMgzld***ssssuaLPIPLausssssssLIILuussssssssssssssssssss",
"ssssssssssssssssssssssIKLIILssssssuaLPIPLaussss*:a:dlMzMABcxgtuLPPLutgxcBAMzMld****sssuaLPIPLaussssssLIIIKyussssssssssssssssssss",
"ssssssssssssssssssssssIKKIIILssss%iaLPIPLai%ss*=yQydlBMcVUBBMBZYYYYZBMBBUVcMBld*****ssuaLPIPLausssssuLIIPayusssssiPsssssssssssss",
"sssssssssssssssPisssssLaaPIILu%$o%iaLPIPLaio++=:iLu>jBVMMAAANNVZUUZVNNAAAMMVBj>*****%%iaLPIPLai%%%%3uLIPLiyusssiaPisssssssssssss",
"sssssssssssssssiPaisssLiiLPILu%$@%6aLPIPLa6@@@:tyuty>zMVNARRYUBxjjxBUYYYANVMz>******$%iaLPIPLai%$$%33uLLiiu$$$$uLassssssssssssss",
"ssssssssssssssssaLu5464iiiLLu3%$$$%4KPIPK4$$$$:tty:tt>jxBNY^WUUNccNUUYYYNBxj>*******$36aLPIPLa63$@$$333333$$++++$ussssssssssssss",
"ssssssssssssssss561111111644455333333%%%%%%%%%::tt:::+&7jNVW^^WYAAYRERUVNj7 +*******$%34KPIPK43@@@$$$$%%%%%%$@++++ssssssssssssss",
"ssssssssssssss5612nn22166445555555333333333333*:::=::*+&,lcVURTANNATRUVcl, +*******$$%%%34443@@@$$$$%%%%%%%%%$$@@+++ssssssssssss",
"sssssssssssss512nvvn21644455555333333333333%%%%*=:*==**++,lzxNBchhcBNxzl, +********$$%%%%%%$$$$$$%%%%%%%%%%%%%$$$@+++sssssssssss",
"ssssssssssss512nvvn21664455555333333%%%%%%%ai%%%*=******++++++++++++++++++********$$iI%%%%%%%%%%%%%%%%%%%%%%%%%$$$@@++ssssssssss",
"ssssssssss566666666666644555533333%%%%%%%%a~L%%%%********+             + ********$$%L~L%%%%%%%%%%%%%%%%%%%3333333333%%%sssssssss",
"ssssssss5662vbmbv2111111664453333%%%%%%%%aI~Ly%%%%%*****+           +   +*******%%$yL~Ia%%%%%%%%%%%%%%%3335554444555333%%sssssss",
"sssssss664462bbv2166666666664553%%%%%%%%aI!~Ly%%%%%%%%***+              +***$%%%%%$yL~Lay%%%%%%%%%%%%%3555444444445553333%%sssss",
"ssssss6433%%@@@@@@@@@@@@@%3335553%%$$$$:aII~Ly%%%%%%%%%%%%%$@X..XX+@@@$$$$%%%%%%%%$yLIKiy:$%%%%%%%%%%3533%$$....oooo@@@$353%ssss",
"sssss643%@++oooooo........o$%%353%$$$$$:aLIQuyXX+$$$$$$$$$$$$@..XX+@3553%%%%%%%%%%$yaPiuy:X+$$$$$$$$33%$........oooooo++@$53ssss",
"sssss63%....................X$%%3%$$@@@@yaLQyyXXo+@@@@@@@@@@$$+.XX+@53$@@@@@@@@@@@@yuayyyXXo+@@@FFeeq:....................$3ssss",
"ssss643.....................XX@$%%%$@@@@@:yu:XXXX++@@@@@@@@@@$+.XX+@5$@@@@@@@@@@@@@@uuy:XXXX++:FFFeeeq:...%33335533%$..... $ssss",
"ssss55...$%%%%$$%%$$$$$:::eeFFe0XX@@@@@@@@XXooooo++@@@@@@@@@@$+.XX+@3@@@@@@@@@@@@@@@@@oooo::::FF****qq00qqq0%%%3333353%$    ssss",
"ssss55.$%%%%%%$$%%$$:::::eeFGHGeq*@@@@@@@@@@@@@@@@@@@@@@@@@@@$+.XX+@%@@@@@@@@@@@@@@@@@ooo:::::FF****qq0000eeqq0=%%%%3353$   ssss",
"ssssss@@$$$$$+++++::::::eeF0   0qq:*@@@@@@@@@@@@@@@@@@@@@@@@@$+.XX+@%@@@@@@@@@@@@@@@@@@@::::::ee**::qq00****:qwwyoo$$%35%@ssssss",
"sssss$@@$$oo+++++:::::::eeG     qq::*@@@@@@@@@@@@@@@@@@@@@@@@$+.XX+@%@@@@@@@@@@@@@@@@@@:::::::ee**::qq00****::qwq=oooo$$%$@sssss",
"ssss++++ooo%3%$$::::****eeG     00****@@@@@@@@@@@@@@@@@@@@@@@$+.XX+@$@@@@@@@@@@@@@@@@@::eeeeq**eqqqq000*0Fee00*qq0=0++..$$@sssss",
"ssss++++oo%55%$:::::****eeF0   00*****@@@@@@@@@@@@@@@@@@@@@@@$+.XX+@$@@@@@@@@@@@@@@@@@:qFFeeeq**qqqq00*qFFeeq00*qq0=++.....sssss",
"ssss++..$$%55%:::::eFFee0eeeqq000*:qeFe0@@@@@@@@@@@@@@@@@@@@@$+.XX+@$@@@@@@@@@@@@@@@@@eF****qq00******0F****qq00qq00=+++oo.sssss",
"ssss++..$$%55%:::eeeFFeeq0eeqq0**:qeFFeeq@@@@@@@@@@@@@@@@@@@@@+.XX+@$@@@@@@@@@@@@@@@@:FF****qq00******FF****qq00qqq0==++oo..ssss",
"ssss..++$$%53:::eeFF    qq******:qeF    q0+++++++++++++++++++++.....@@@@@@@@@@@@@@@@::ee**::qq00qqqq0*ee**::qq00*qq00==+ooXXssss",
"ssss..++$$%5%:::eeFF    qq******:qFF    eq...........................+++++++++++++++::ee**::q000qqqqq*0e**::qq00*qq00==+ooXXssss",
"ssssXX++$$%5::::eeee    00**qqqqqqee    e0 .........................................:=*qqqqq00qq   0qq*qqqqqq00***q000==ooXXssss",
"ssssXX++$$%5::::eeee    00*FFqqqqqee    e0 .........................................:=**qq0000qq    qq**0qqq00****q000==ooXXssss",
"ssssXX++$$%5::**00qqqq00**qq    qqqqeeee0**                  ........               :=********qq    qq************q000==....Xsss",
"ssssXX++$$%%::**00qqqq00**qq    qqqqqq00***                                         :=********qq   0qq************q000==....Xsss",
"sss+XXoo++++=:************qq    qq********=*==========================================**eeee00*0qqqqq***FFee00****q000==..ooXsss",
"sss+XXoo+++ =:************qq    qq********=*::yaKLLLLLKaiuuyyy-=====tyyyyyyyyyyyyyyyy=*eFFee000*qqqq***FFFee000***00====..ooXsss",
"sss+++@@@@@ =:****0qFFee****qqqq**qqFFee**=*::tyuiaaaiuyttt:::-=====t::::::::::::::::*eF****qq00******FFF***qq00**======XXXXXXss",
"sss+++@@@@@@=:**00qFFFee****qqqq**qqFFee0*=*::tyuiaaaiuyttt:==*=====t================*FF****qq00******FF****qq00**=====XXXXXXXss",
"ss++@@@@oooo=:**qqFF    qq******qqFF    qq=*::tyuiaaaiuyttt:==*=====:================ ee**::qq00FFee00ee**::qq00*====== ......ss",
"ss++@@@@oooo=:**qqFF    qq******qqFF    qq=*:******************=====OOOOOOOOOOOOOOOOO ee**::qq00FFee00ee**::qq00*=====  ......ss",
"ss@@@@oo33%%X***qqee    00qeFFeeqqee    00r*::tyuiaaaiuyttt:==========****************:qqqqq00FF****qq0eqqqq000**====.........ss",
"ss@@@@o3453%X***qqee    00eFFFee0qee    00r*::tyuiaaaiuyttt:===================*******::qqqq00FF****qq00qqqq00**====..........ss",
"ss@@oo%55643%***00qqqq00qqFF    0qqqqq000*==::tyuiaaaiuyttt:===================*******==******ee**::qq00********===...........ss",
"ss@@oo%%35643%**00qqqq00qqFF    00qqqq00**==;tyuiaKLLLLLLKaaaaaaiuuyyyyyyyyyyyyyyyyyt:==******ee**::qq00*******===............ss",
"ss@@oo@%%35643@*********qqee    00****    **;;;;;;:rrtyuiaaaaaaiuyyytttttttrrrr:::rr;;**********qqqq000*******===.............ss",
"ss@@oo@@@%%333@@********qqee    00****    *********==;tyyuuuuuuyyttttttttrrrr::--===**    ******qqqq00******=== ..............ss",
"ss@@oo@@@@@@@@@@887*****00qqqq000***++++++oo*********;;rtyyyyyyytttttttttrrrr::--***X         ********>>>>>>>.   .............ss",
"ss@@oo@@@@@@@@@ 9899*****0q00000****++++++ooooXXXX.***;;;;;;;;;;;;;;;;;;;;;;;==               **,,,,,,&&>>>>>................sss",
"sssooo@%%%%%@@@@jj9877********..++++XXXXXX........XXX*=:::::::::::::::::::=*                  jj999988<<<<<<>................sss",
"sssooo@@@@@@@@@@jjx987********..++++XXXXXX........XXXXX*=================*                    jj999988<<<<<<>...............ssss",
"ssssoooo@@@@@@@@jjxx988777777777XXXX++++ooooXXXXXX......***************** ..ooooooooooooooooXXXj999988<<<<<<>.............ssssss",
"ssssoooo@@@@@@@@jjxxxd998888887@XXXX%$++ooooXXXXXX......XX..              ..ooooooooooooooooXXXX999988<<<<<>............ssssssss",
"sssssoooooooooooojxxxxxggddddd7@$353%$++ooooXXXXXX..XX....XX..        ..oooo..................X.........ssssssssssssssssssssssss",
"ssssssooooooooooooxxxxggddddd7@@$353%$++ooooXXXXXX..XX....XX..        ..oooo.............................sssssssssssssssssssssss",
"ssssssssssssssssssssssssssoo++@@3453$+ooooooXXXX..XXXX......................XXooooooooooooXXXX....XXXX...sssssssssssssssssssssss",
"sssssssssssssssssssssssss+oo++@%545%$+ooooooXXXX..XXXX......................XXooooooooooooXXXX....XXXX....ssssssssssssssssssssss",
"ssssssssssssssssssssssssoo++@@$3453$++ooooXXXXXX..XX........................XXXXooooooooooXXXXXX..XXXX....ssssssssssssssssssssss",
"ssssssssssssssssssssssssoo++@$$545%$++ooooXXXXXX..XX......XyL ..............XXXXooooooooooXXXXXX..XXXX.....sssssssssssssssssssss",
"sssssssssssssssssssssss+oo++@$%453%@++ooooXXXX..XXXX......i~~L..ssss........XXXXooooooooooXXXXXX....XX.....sssssssssssssssssssss",
"sssssssssssssssssssssss+oo++@%3453$@++ooooXXXX..XXXX......iyiL..ssss........XXXXooooooooooXXXXXX....XX......ssssssssssssssssssss",
"ssssssssssssssssssssssoo+++@@3545%$@++ooooXXXX..XX........XyLX..ssss........XXXXXoooooooooXX..XX............ssssssssssssssssssss",
"ssssssssssssssssssssssoo++@@$3453%@@++ooooXXXX..XX.............sssss........XXXXXoooooooooXX..XX.............sssssssssssssssssss",
"sssssssssssssssssssss+oo++@$%5453$@+++ooXXXX..XXXX.............ssssss.......XXXXXooooooooXXXXXXX......XX.....sssssssssssssssssss",
"sssssssssssssssssssss+oo++@%3545%$@+++ooXXXX..XXXX.............ssssss.......XXXXXXoooooooXXXXXXX......XX......ssssssssssssssssss",
"sssssssssssssssssssso+++@@$%5453%$++ooooXXXX..XX......XyL .....ssssss.........XXXXoXoooooXXX..XX..............ssssssssssssssssss",
"ssssssssssssssssssssoo++@@%35453%@++ooooXXXX..XX......i~~L....sssssss.........XXXXXooooooXXX..XX...............sssssssssssssssss",
"ssssssssssssssssssssoo++@%35453%$@++ooooXX....XX......iyiL....ssssssss..........XXXXXXoooXXX...................sssssssssssssssss",
"sssssssssssssssssss+oo++@%35453%$@++ooooXX....XX......XyLX...sssssssss..........XXXXXXooXXXX...................sssssssssssssssss",
"sssssssssssssssssss+....XXo+ooXX.............................ssssssssss...........XXXXXXXX....XX...............sssssssssssssssss",
"sssssssssssssssssss+....XXooooXX............................sssssssssss...........XXXXXXXX....XX................ssssssssssssssss",
"ssssssssssssssssss..++@$%%5555%%$oooXX......................ssssssssssss........................................ssssssssssssssss",
"ssssssssssssssssso..++@@$%%%%%%$ooooXX......................ssssssssssss........................................ssssssssssssssss",
"ssssssssssssssssoo++@@@@@@++++ooooooXXXX..XX...............ssssssssssssss.......................................ssssssssssssssss",
"ssssssssssssssssoo++@@@@@@++++ooooooXXXX..XX..............sssssssssssssss.......................................ssssssssssssssss",
"ssssssssssssssssoo++@@@@@@++++ooooooXXXX..XX........ssssssssssssssssssssss......................................ssssssssssssssss",
"ssssssssssssssssoo++@@@@@@++++ooooooXXXX..XX.........ssssssssssssssssssssss.....................................ssssssssssssssss",
"ssssssssssssssssoo++@@@@@@++++ooooooXXXX..XX..........ssssssssssssssssssssss++@@@...............................ssssssssssssssss",
"ssssssssssssssssso++@@@@@@++++ooooooXXXX..XX..........sssssssssssssssssssssss+o@@@@.............................ssssssssssssssss",
"ssssssssssssssssss...................................sssssssssssssssssssssssssooo@@@@@.........................sssssssssssssssss",
"ssssssssssssssssss..................................sssssssssssssssssssssssssssooo.@@@.........................sssssssssssssssss",
"ssssssssssssssss@@@@$%35553%%$++++ooooXXXXXX.......ssssssssssssssssssssssssssssssoooXXooXXXXXX................ssssssssssssssssss",
"ssssssssssssssss@@@@$%35553%%$++++ooooXXXXXX......sssssssssssssssssssssssssssssssssoXXooXXXXXX...............sssssssssssssssssss",
"ssssssssssssssssXXXXXXXXXXXXXXXXXXXX.............sssssssssssssssssssssssssssssssssssoo......................ssssssssssssssssssss",
"sssssssssssssssssXXXXXXXXXXXXXXXXXXX.............sssssssssssssssssssssssssssssssssssso......................ssssssssssssssssssss",
"ssssssssssssssssso@@@@@@++@@ooooooooXX..XX......sssssssssssssssssssssssssssssssssssssooo....................ssssssssssssssssssss",
"ssssssssssssssssso@@@@@@++@@ooooooooXX..XX......ssssssssssssssssssssssssssssssssssssssoo....................ssssssssssssssssssss",
"ssssssssssssssssso@@@@@@++@@ooooooooXX..XX....ssssssssssssssssssssssssssssssssssssssssoo....................ssssssssssssssssssss",
"ssssssssssssssssss@@@@@@++@@ooooooooXX..XXyL .ssssssssssssssssssssssssssssssssssssssssoo....................ssssssssssssssssssss",
"ssssssssssssssssssoo@@@@++@@ooooooXXXX...i~~L.ssssssssssssssssssssssssssssssssssssssss.......................sssssssssssssssssss",
"ssssssssssssssssssoo@@@@++@@ooooooXXXX...iyiLsssssssssssssssssssssssssssssssssssssssss........................ssssssssssssssssss",
"ssssssssssssssssssXXXXXXXXXXXXXXXXXX.....XyLXssssssssssssssssssssssssssssssssssssssss$$$oooooo..oo............ssssssssssssssssss",
"ssssssssssssssssssXXXXXXXXXXXXXXXXXX........ssssssssssssssssssssssssssssssssssssssss$$$$oooooo..oo.............sssssssssssssssss",
"sssssssssssssssssXX@@$$%3%$$$$$$$$$$@XXXXXssssssssssssssssssssssssssssssssssssssssssoooo.......................sssssssssssssssss",
"ssssssssssssssssX@@@@$%333%$$$$$$$$$$$@XX+ssssssssssssssssssssssssssssssssssssssssssoooo.......................sssssssssssssssss",
"sssssssssssssssoo..oooooooooooooooo+@$$$@++sssssssssssssssssssssssssssssssssssssssss...........................sssssssssssssssss",
"sssssssssssssssoo..oooooooooooooooooo@$$$@++ssssssssssssssssssssssssssssssssssssssss...........................sssssssssssssssss",
"ssssssssssssssX.@$%3355553333%%%$$$$$$@@$$@+sssssssssssssssssssssssssssssssssssssssss.........................ssssssssssssssssss",
"ssssssssssssssX@$%3333553333%%%$$$$$$$$$@$@+ssssssssssssssssssssssssssssssssssssssssssssssssssssssssssssssssssssssssssssssssssss",
"ssssssssssssss.$$@@oooooooo++++++@@@$$$$$$++ssssssssssssssssssssssssssssssssssssssssssssssssssssssssssssssssssssssssssssssssssss",
"ssssssssssssss.$@@.oooooooo++++++++@@$$$$$@+ssssssssssssssssssssssssssssssssssssssssssssssssssssssssssssssssssssssssssssssssssss",
"ssssssssssssss.@@$%33355333333%$$%%$$+@$$$ssssssssssssssssssssssssssssssssssssssssssssssssssssssssssssssssssssssssssssssssssssss",
"ssssssssssssss.@@$%33333333333%$$%%$$+@$$$ssssssssssssssssssssssssssssssssssssssssssssssssssssssssssssssssssssssssssssssssssssss"
};
