/* XPM */
static char *e9[] = {
/* columns rows colors chars-per-pixel */
"130 128 67 1 ",
"  c black",
". c #070000",
"X c #0B0000",
"o c #0F0000",
"O c #130000",
"+ c #1F0000",
"@ c #1B0700",
"# c #2B0000",
"$ c #230B00",
"% c #370000",
"& c #2B1700",
"* c #372300",
"= c #3F3300",
"- c #232323",
"; c #2F2F2F",
": c #373737",
"> c gray23",
", c #4B0000",
"< c #630000",
"1 c #6F0000",
"2 c #770000",
"3 c #3F7300",
"4 c #377B00",
"5 c #4B4300",
"6 c #4F5F00",
"7 c #535300",
"8 c #476700",
"9 c #774F2B",
"0 c #004343",
"q c #005B5B",
"w c #006F6F",
"e c #007373",
"r c #007F7F",
"t c #434343",
"y c #4B4B4B",
"u c gray34",
"i c #830000",
"p c #8F0000",
"a c #9B0000",
"s c #880015",
"d c #A70000",
"f c #B30000",
"g c #BF0000",
"h c #CB0000",
"j c #D70000",
"k c #E30000",
"l c #EF0000",
"z c #83532F",
"x c #935F37",
"c c #9F633B",
"v c #A3673F",
"b c #AB6B43",
"n c #B77347",
"m c #CB7F4F",
"M c #178F00",
"N c #079B00",
"B c #00C300",
"V c #DF8B57",
"C c #FFA773",
"Z c #008787",
"A c #009B9B",
"S c #009F9F",
"D c #23B7B7",
"F c #FFBB93",
"G c #FFBF9F",
"H c #FFC7A7",
"J c white",
/* pixels */
"ssssssssssssssssssssssssssssssssssssssssssssssssssssssssssssssssssssssssssssssssssssssssssssssssssssssssssssssssssssssssssssssssss",
"ssssssssssssssssssssssssssssssssssssssssssssssssssssssssssssssssssssssssssssssssssssssssssssssssssssssssssssssssssssssssssssssssss",
"ssssssssssssssssssssssssssssssssssssssssssssssssssssssssssssssssssssssssssssssssssssssssssssssssssssssssssssssssssssssssssssssssss",
"ssssssssssssssssssssssssssssssssssssssssssssssssssssssssssssssssssssssssssssssssssssssssssssssssssssssssssssssssssssssssssssssssss",
"ssssssssssssssssssssssssssssssssssssssssssssssssssssssssssssssssssssssssssssssssssssssssssssssssssssssssssssssssssssssssssssssssss",
"ssssssssssssssssssssssssssssssssssssssssssssssssssssssssssssssssssssssssssssssssssssssssssssssssssssssssssssssssssssssssssssssssss",
"ssssssssssssssssssssssssssssssssssssssssssssssssssssssssssssssssssssssssssssssssssssssssssssssssssssssssssssssssssssssssssssssssss",
"ssssssssssssssssssssssssssssssssssssssssssssssssssssssssssssssssssssssssssssssssssssssssssssssssssssssssssssssssssssssssssssssssss",
"ssssssssssssssssssssssssssssssssssssssssssssssssssssssssssssssssssssssssssssssssssssssssssssssssssssssssssssssssssssssssssssssssss",
"ssssssssssssssssssssssssssssssssssssssssssssssssssssssssssssssssssssssssssssssssssssssssssssssssssssssssssssssssssssssssssssssssss",
"ssssssssssssssssssssssssssssssssssssssssssssssssssssssssssssssssssssssssssssssssssssssssssssssssssssssssssssssssssssssssssssssssss",
"ssssssssssssssssssssssssssssssssssssssssssssssssssssssssssssssssssssssssssssssssssssssssssssssssssssssssssssssssssssssssssssssssss",
"ssssssssssssssssssssssssssssssssssssssssssssssssssssssssssssssssssssssssssssssssssssssssssssssssssssssssssssssssssssssssssssssssss",
"ssssssssssssssssssssssssssssssssssssssssssssssssssssssssssssssssssssssssssssssssssssssssssssssssssssssssssssssssssssssssssssssssss",
"ssssssssssssssssssssssssssssssssssssssssssssssssssssssssssssssssssssssssssssssssssssssssssssssssssssssssssssssssssssssssssssssssss",
"ssssssssssssssssssssssssssssssssssssssssssssssssssssssssssssssssssssssssssssssssssssssssssssssssssssssssssssssssssssssssssssssssss",
"ssssssssssssssssssssssssssssssssssssssssssssssssssssssssssssssssssssssssssssssssssssssssssssssssssssssssssssssssssssssssssssssssss",
"ssssssssssssssssssssssssssssssssssssssssssssssssssssssssssssssssssssssssssssssssssssssssssssssssssssssssssssssssssssssssssssssssss",
"ssssssssssssssssssssssssssssssssssssssssssssssssssssssssssssssssssssssssssssssssssssssssssssssssssssssssssssssssssssssssssssssssss",
"ssssssssssssssssssssssssssssssssssssssssssssssssssssssssssssssssssssssssssssssssssssssssssssssssssssssssssssssssssssssssssssssssss",
"ssssssssssssssssssssssssssssssssssssssssssssssssssssssssssssssssssssssssssssssssssssssssssssssssssssssssssssssssssssssssssssssssss",
"ssssssssssssssssssssssssssssssssssssssssssssssssssssssssssssssssssssssssssssssssssssssssssssssssssssssssssssssssssssssssssssssssss",
"ssssssssssssssssssssssssssssssssssssssssssssssssssssssssssssssssssssssssssssssssssssssssssssssssssssssssssssssssssssssssssssssssss",
"ssssssssssssssssssssssssssssssssssssssssssssssssssssssssssssssssssssssssssssssssssssssssssssssssssssssssssssssssssssssssssssssssss",
"ssssssssssssssssssssssssssssssssssssssssssssssssssssssssssssssssssssssssssssssssssssssssssssssssssssssssssssssssssssssssssssssssss",
"ssssssssssssssssssssssssssssssssssssssssssssssssssssssssssssssssssssssssssssssssssssssssssssssssssssssssssssssssssssssssssssssssss",
"ssssssssssssssssssssssssssssssssssssssssssssssssssssssssssssssssssssssssssssssssssssssssssssssssssssssssssssssssssssssssssssssssss",
"ssssssssssssssssssssssssssssssssssssssssssssssssssssssssssssssssssssssssssssssssssssssssssssssssssssssssssssssssssssssssssssssssss",
"ssssssssssssssssssssssssssssssssssssssssssssssssssssssssssssssssssssssssssssssssssssssssssssssssssssssssssssssssssssssssssssssssss",
"ssssssssssssssssssssssssssssssssssssssssssssssssssssssssssssssssssssssssssssssssssssssssssssssssssssssssssssssssssssssssssssssssss",
"ssssssssssssssssssssssssssssssssssssssssssssssssssssssssssssssssssssssssssssssssssssssssssssssssssssssssssssssssssssssssssssssssss",
"ssssssssssssssssssssssssssssssssssssssssssssssssssssssssssssssssssssssssssssssssssssssssssssssssssssssssssssssssssssssssssssssssss",
"ssssssssssssssssssssssssssssssssssssssssssssssssssssssssssssssssssssssssssssssssssssssssssssssssssssssssssssssssssssssssssssssssss",
"ssssssssssssssssssssssssssssssssssssssssssssssssssssssssssssssssssssssssssssssssssssssssssssssssssssssssssssssssssssssssssssssssss",
"ssssssssssssssssssssssssssssssssssssssssssssssssssssssssssssssssssssssssssssssssssssssssssssssssssssssssssssssssssssssssssssssssss",
"ssssssssssssssssssssssssssssssssssssssssssssssssssssssssssssssssssssssssssssssssssssssssssssssssssssssssssssssssssssssssssssssssss",
"ssssssssssssssssssssssssssssssssssssssssssssssssssssssssssssssssssssssssssssssssssssssssssssssssssssssssssssssssssssssssssssssssss",
"ssssssssssssssssssssssssssssssssssssssssssssssssssssssssssssssssssssssssssssssssssssssssssssssssssssssssssssssssssssssssssssssssss",
"ssssssssssssssssssssssssssssssssssssssssssssssssssssssssssssssssssssssssssssssssssssssssssssssssssssssssssssssssssssssssssssssssss",
"ssssssssssssssssssssssssssssssssssssssssssssssssssssssssssssssssssssssssssssssssssssssssssssssssssssssssssssssssssssssssssssssssss",
"sssssssssssssssssssssssssssssssssssssssskkssssssssssssssssssssssssssssssssssssssssssssssssssssssssssssssssssssssssssssssssssssssss",
"sssssssssssssssssssssssssssssssssssssssskdsssssssssssssssssssssssssssssjssssssssssssssssssssssssssssssssssssssssssssssssssssssssss",
"sssssssssssssssssssssssssssssssssssssssssgdsssssssssssssssssssssssssssssssssssssssssssssssssssssssssssssssssssssssssssssssssssssss",
"ssssssssssssssssssssssssssssssssssasssfsssgdssssssssssssssssssssjsssssssssssssssssssssssssssssssssssssssssssssssssssssssssssssssss",
"ssssssssssssssssssssssssssssssssssssssssssssssssssssssssssssssssssssssssssssssjsssssssssssssssssssssssssssssssssssssssssssssssssss",
"ssssssssssssssssssssssssssssssssssssssssssssssssassssssss,ssssssssssskssssssssssssssssssssssssssssssssssssssssssssssssssssssssssss",
"sssssssssssssssssssssssssssssssssssssssssssssssssssssssssssssssssssssgssssssssssssssssssssssssssssssssssssssssssssssssssssssssssss",
"sssssssssssssssssssssssssssssssssssssassssssssssssssbbbb,bfbbbbbbbb999ssssssssssssasssssssssssssssssssssssssssssssssssssssssssssss",
"ssssssssssssssssssssssssssssksssssssssssssssssssssbbbbbb,bbbbbbbbbj99999sssjssssssssssssssssssssssssssssssssssssssssssssssssssssss",
"ssssssssssssssssssssssssssssgsssssssssasssssggsssbbmmmmmmHHCCVVmmpmmmbb99sssssssssasssjsssssssssssssssssssssssssssssssssssssssssss",
"sssssssssssssssssssssssssssssssssssssssspfsspgssbbammfmmmHH,CVVmmmmmmbb999sfss,sssssssssssssssssssssssssssssssssssssssssssssssssss",
"ssssssssssssssssssssssssssssssssspsssssssssssssbbVVHHHpHHHHHHCCCCCCCCfGbj99J,sssssssssssssssssssssssssssssssssssssssssssssssssssss",
"sssssssssssssssssssssssssssssssssssssssssssssjsbbVVHfHH,HH,HfCfCCCCCCGpbb99fssssssssspsassssssssssssssssssssssssssssssssssssssssss",
"ssssssssssssssssssssssssssssfsgsssfss,ssssfssspfbpFHpCfHH#xxxmmmmmmCfCCVV99p#ssssfpfhfpsssssssssssssssssssssssssssssssssssssssssss",
"sssssssssssssssssssssssssssssssssss,sssssssppsspbFpfpf,H,xxxxmmmmmpCCCpVpppigaisppssssssssssssssssssssssssssssssssssssssssssssssss",
"ssssssssssssssssssssssssssssspspsffsssssgspJfpppf 522p2,  +oo..p.++f pffp p *766ifssssssssssssssssssssssssssssssssssssssssssssssss",
"sssssssssssssssssssssssssssssafp22g#ssssfpfaff5p22j22g # 55op....fhpff hfffp*55766666sssssssssssssssssssssssssssssssssssssssssssss",
"sssssssssssssssssssssssssssssfss1jig555fg5g**55522i#ag#ii55oo.p.f.ffp55f5p*@@==555766666666sssssssssssssssssssssssssssssssssssssss",
"sssssssssssssssssssssssssssssssfg55555555f5g*5i5i1ijiiigii5io.ip.p.555p55**@@**=555555555766666sssssssssssssssssssssssssssssssssss",
"sssssssssssss3333333377ssssssss5f5f555555gggf*****igij%i..i..p..pfpfii..i.......&&**=55555555766666666555663333775ssssssssssssssss",
"sssssssssss883333333377==Osss555555ff555***gf***igi**ig.i.i++++i2ff.i.i..............&&**555557777775556333333377555ssssssssssssss",
"sssssssss88888855........====&&&&$ff.$$$$$$$$..%%.gg.ig...O+p+++iig...i.p................@@@@&&555555633365....@@@555sssssssssssss",
"ssssssss888885&@@........====&&&&$$f.$$$$$$$$..%%ii.ig1giOi++2ii+2Oiiii..................@@@@&&&&&556336=......@@@@55sssssssssssss",
"sssssss88885@................oooo++OOoo......+++++++i1<11gg1g12111g1i+i++++++XX................@@@53365............@@$ssssssssssss",
"ssssss8888=@@................oooo++OOoo......+++++11,<,%,1gl22%%2lgff11i++i++XX................@@@5335............@@@@$sssssssssss",
"sssss88885$5675==*&@@............O.OOOOOO  ++++.....,,%<<%%ii%<1%.....ggi.i..++++XX........OO......55................@$.ssssssssss",
"sssss8885*66675===*&@.............OOOOOO   ++++.......ii<<<<%%..........iii..++    ........OO........................@@.ssssssssss",
"ssss8885*66=ooooooooo@@............OOOOOOO+++-.ttuuuuuu yii::......::ttuui+uutt;;--      .............*=55775===*&&....@@sssssssss",
"ssss885*66=oooooooooo@@............OOOOOOOO+--tttuuuuuuyy++::......::ttuu++uutt;;--      ...........*=====55==*&&&&&...@@sssssssss",
"sss888*55=o*=55=**&oooo@@..........OO  --++..tt>>;;----------OOOOOO----..@5766666675=*&$$$$.........===*$.........&&&..oo.ssssssss",
"sss885*55o*577755=*0qwrADDArq0..++OOO  --++.-tt>>;;----------OOOOOO----.576666666675=*&$$$$$.......*==*$$..........&&&.oo.ssssssss",
"sss85*==.@577777=0qwwwrADDArwwq0O.OOOO --..&&&&oooooo..  ++          $$=5776675==**......$$$$......==*.==66&&&@@@@&.&&.....sssssss",
"sss85==&.*5777770wwwwwrADDArwwwe0OOOOO --&&&&&&oooooo..  ++          $=======$$$$$$........$$$.....==..==66&&&&&&&&.........ssssss",
"sss55**@@*=5==*0weq0----------0qw0OOO..&&&&oooo........oo..        $$*==$=577666677555=*&oo.$$$....&&&&====&&==3NNBM=*&@@..  sssss",
"sss5=**@@***..0q0-00000----0000-0qOOO..&&&&&&&&&&&.....oo..        $$**$=5577666677555=*&&oo.$$....&&&&====&&=3NNNBM5=*@@..  sssss",
"sss5=*&@@..**0q--0ZSSZe0-00ZSSZ0--0OO..@@*======**&oo......oo++XX..$$$$*55=*$$$$$$$@@@@oo.ooo........@@&&..VV3NNNNBM65=*&@@@@.ssss",
"sss5**.@@.*==0--0eZSSZw0-0wZSSZ00--OO.&**55=====**&oo......oo++XX..$$$$*=*$$***********oo..oo........@@&&.VVVNNNNNBM675=*&@@@.ssss",
"sss5*&o..*=77---0wqqqqq0-0qqqqew0---.&&5577====**&.oo....  ..++XX$$$$&&*=57668866775555=*&&$$........@@..VVVx======M6675=*&@@..sss",
"sss=&oo..*577-0-0-------------qq0-w-O&=5577===*&@..oo....  ..++XX$$$$&&5777668866775555=*&&$$@.......@@..VVxx=======M6675=*@@..sss",
"sss=&oo..=55-00--0qqq-----0qqq--0-w0O*55777==*&....oo......  XX  oo$$&5755=*ooooooo.........$@@........oonnx.VVnncc==M6675=@@..sss",
"sss=@oo..===-w0-0qeZZq---0qeZZq---0wO-55775==&&....oo......  XX  oo$$&75*oooooooooo...........@........oonn..VVnncxx==36675=@..sss",
"sssoooo..oo@qw--0qDDZee--0qDDZee---wO-55775=*&&....oo........XX  oo$$&=oo$*=788665=&&**$$@@..............&&..VVnnnncc==3667==..sss",
"sssoooo..oo@q>--Dq   ee--qD   ee---00-57775=*&&....oo.........X  oo$$&&o***=788665=&&**$$@@..............&&..VVnnnnccx==366==..sss",
"ssssooo..oo@>;--q     Z--q     Z----w-57775=*&&..oo...........X  ..&&@*55**=788665=&&=*$$@@oo..................VVvvnncc==77==..sss",
"sssssoo..oo@>---q>   >Z--q>   >Z----0557775=*&&..oo...........X  ..&&*555**=788665=&&=*$$@@oo..................VVvvnnccx==7==..sss",
"sssssso....o;---0Z>>>De--0Z>>>De-----577775=&@@..oo...........   ..oo*55*$*=788665=&&=*$$@@oo....ss............zzvvnncccc==$$..sss",
"sssssss....o---0-0ZDD-00e-0ZDD-0qqq--577775=&@@..oo...........   ..oo*5*.$*=788665=&&=*$$@@oo....ss............zzvvnncccc==$$..sss",
"sssssssso...--0qqqqq>-0qeZZq>-0qeZZq-57777755=o................  ..oo**$$o*=788665=&&=**$@@oo....ssss............zzcccczz..sssssss",
"ssssssssss..--0qeZZeq-0qeZZee-0qeZZeq76686775=o................  ..oo..$$o*=788665=&&=**$@@oo....ssss............zzcccczz..sssssss",
"ssssssssssss--qq   ee-qq   ee-qq   ee775=*ooo..................    ....$$**=766665=&&***$oo......sssssssssssssssssszzzzsssssssssss",
"ssssssssssss--q     Z-q     Z-q     Z=&$$oooo..................    ....$$**=ooooooooooooooo......sssssssssssssssssszzzzsssssssssss",
"ssssssssssss--0>   >Z-q>   >Z-q>   >Z$*====**&&@@..............   s....@@@*oooooooooooooo........sssssssssssssssssssssssssssssssss",
"ssssssssssss--0Z>>>De-0Z>>>ee-0Z>>>eq====**&&&&@@..............  ss....@@@@55555555555==*........sssssssssssssssssssssssssssssssss",
"ssssssssssss---0ZDD----0ZZZ-0>-0ZZq--==*&&&&&&@@@........... .. sss....@@778333444388875=*ooo...ssssssssssssssssssssssssssssssssss",
"sssssssssssss-----0qqq>---0qqq>>----=**&&&&&&@@@@........... ..ssss....@57888888877777775=*oo..sssssssssssssssssssssssssssssssssss",
"sssssssssssss----0qeZZq>-0qeZZq>----*&&&&&&&@..............     sssOO..55788887555=****&&$$oo.ssssssssssssssssssssssssssssssssssss",
"sssssssssssss---0qqeZZeq-0qeZZeq---&&&&&&&&@@..............      ssOO.55557777555=*****&&$$oo.ssssssssssssssssssssssssssssssssssss",
"ssssssssssssss--0qq   ee-qq   ee---&&&&&&&@oo..............  ..  OOOO==55=@..............@@....sssssssssssssssssssssssssssssssssss",
"sssssssssssssss-0q     Z-q     Z--&&&&&@@@@oo..............  ..  OOOO==5=@@..............@@....sssssssssssssssssssssssssssssssssss",
"ssssssssssssssss0q>   >Z-q>   >Z&&&&&oooooo..................  ..  OO===@..              ......sssssssssssssssssssssssssssssssssss",
"sssssssssssssssss0Z>>>qe-0Z>>>eq$$$@@oooooo..................  ..  OO===@..              ......sssssssssssssssssssssssssssssssssss",
"ssssssssssssssssss0ZZqesss0ZZqq@@@@oooo......................  ..  OO....                  ....sssssssssssssssssssssssssssssssssss",
"sssssssssssssssssssssssssssssoo@@@@oooo......................  ..  OO....                  ....sssssssssssssssssssssssssssssssssss",
"ssssssssssssssssssssssssssssss.oooo............................    OOss..                    .ssssssssssssssssssssssssssssssssssss",
"sssssssssssssssssssssssssssssssoooo............................    OOss...                   sssssssssssssssssssssssssssssssssssss",
"ssssssssssssssssssssssssssssssss.................................  ssssss..              ..sssssssssssssssssssssssssssssssssssssss",
"sssssssssssssssssssssssssssssssss................................  .sssssss              sssssssssssssssssssssssssssssssssssssssss",
"ssssssssssssssssssssssssssssssssss...............................    sssssssssssssssssssssssssssssssssssssssssssssssssssssssssssss",
"sssssssssssssssssssssssssssssssssss..............................    .ssssssssssssssssssssssssssssssssssssssssssssssssssssssssssss",
"sssssssssssssssssssssssssssssssssssss............................  ....sssssssssssssssssssssssssssssssssssssssssssssssssssssssssss",
"sssssssssssssssssssssssssssssssssssssss..........................  ....sssssssssssssssssssssssssssssssssssssssssssssssssssssssssss",
"ssssssssssssssssssssssssssssssssssssssssss.....................  ......sssssssssssssssssssssssssssssssssssssssssssssssssssssssssss",
"sssssssssssssssssssssssssssssssssssssssssssss..................  ......sssssssssssssssssssssssssssssssssssssssssssssssssssssssssss",
"sssssssssssssssssssssssssssssssssssssssssssssssss......................sssssssssssssssssssssssssssssssssssssssssssssssssssssssssss",
"sssssssssssssssssssssssssssssssssssssssssssssssss......................sssssssssssssssssssssssssssssssssssssssssssssssssssssssssss",
"sssssssssssssssssssssssssssssssssssssssssssssssss5&....@@@@............sssssssssssssssssssssssssssssssssssssssssssssssssssssssssss",
"sssssssssssssssssssssssssssssssssssssssssssssssss55&...@@@@............sssssssssssssssssssssssssssssssssssssssssssssssssssssssssss",
"ssssssssssssssssssssssssssssssssssssssssssssssss5555&@@................sssssssssssssssssssssssssssssssssssssssssssssssssssssssssss",
"ssssssssssssssssssssssssssssssssssssssssssssssss5555&@@................sssssssssssssssssssssssssssssssssssssssssssssssssssssssssss",
"sssssssssssssssssssssssssssssssssssssssssssssss5555&...@@@@............sssssssssssssssssssssssssssssssssssssssssssssssssssssssssss",
"sssssssssssssssssssssssssssssssssssssssssssssss555&....@@@@............sssssssssssssssssssssssssssssssssssssssssssssssssssssssssss",
"sssssssssssssssssssssssssssssssssssssssssssssss55&.@@@@@@.............ssssssssssssssssssssssssssssssssssssssssssssssssssssssssssss",
"sssssssssssssssssssssssssssssssssssssssssssssss55&.@@@@@@............sssssssssssssssssssssssssssssssssssssssssssssssssssssssssssss",
"sssssssssssssssssssssssssssssssssssssssssssssss5555**...............ssssssssssssssssssssssssssssssssssssssssssssssssssssssssssssss",
"sssssssssssssssssssssssssssssssssssssssssssssss5555**............sssssssssssssssssssssssssssssssssssssssssssssssssssssssssssssssss",
"ssssssssssssssssssssssssssssssssssssssssssssssssssssssssssssssssssssssssssssssssssssssssssssssssssssssssssssssssssssssssssssssssss",
"ssssssssssssssssssssssssssssssssssssssssssssssssssssssssssssssssssssssssssssssssssssssssssssssssssssssssssssssssssssssssssssssssss",
"ssssssssssssssssssssssssssssssssssssssssssssssssssssssssssssssssssssssssssssssssssssssssssssssssssssssssssssssssssssssssssssssssss"
};
