/* XPM */
static char *key[] = {
/* columns rows colors chars-per-pixel */
"26 54 209 2 ",
"   c #5B5606",
".  c #675A0A",
"X  c #6B5412",
"o  c #6E6508",
"O  c #544E2C",
"+  c #4C4938",
"@  c #7F7B2D",
"#  c #75753E",
"$  c #7F7D38",
"%  c #0F0E47",
"&  c #110E49",
"*  c #1E154F",
"=  c #050457",
"-  c #010059",
";  c #1E1550",
":  c #1A145D",
">  c #261F4C",
",  c #2F2946",
"<  c #26245A",
"1  c #332553",
"2  c #09096C",
"3  c #161667",
"4  c #181762",
"5  c #161669",
"6  c #010075",
"7  c #0E0D71",
"8  c #00007D",
"9  c #1C1375",
"0  c #19147B",
"q  c #251C6E",
"w  c #251A74",
"e  c #261B78",
"r  c #262365",
"t  c #282860",
"y  c #382975",
"u  c #443656",
"i  c #473D61",
"p  c #4E4655",
"a  c #757441",
"s  c #78744F",
"d  c #57576E",
"f  c #817F0A",
"g  c #947E14",
"h  c #AB7B1E",
"j  c #A77527",
"k  c #A8673B",
"l  c #AD783A",
"z  c #C37E3E",
"x  c #916B4E",
"c  c #926F50",
"v  c #AA6A44",
"b  c #BD7745",
"n  c #BC7944",
"m  c #BE7C4C",
"M  c #AC7B51",
"N  c #8E616C",
"B  c #937061",
"V  c #9E6F73",
"C  c #9F7275",
"Z  c #A07167",
"A  c #A07169",
"S  c #A57279",
"D  c #C97C4A",
"F  c #C77E51",
"G  c #848400",
"H  c #87870B",
"J  c #87880B",
"K  c #8B8809",
"L  c #938E05",
"P  c #93880B",
"I  c #9D9D03",
"U  c #96940D",
"Y  c #8B8917",
"T  c #968C15",
"R  c #A29F04",
"E  c #A7970A",
"W  c #AA811B",
"Q  c #A69316",
"!  c #B19613",
"~  c #9DA003",
"^  c #A8A604",
"/  c #B5AD05",
"(  c #B9AE06",
")  c #B5AB0B",
"_  c #BDB303",
"`  c #B7A415",
"'  c #B9A216",
"]  c #BBA31A",
"[  c #8E8C25",
"{  c #968B27",
"}  c #A18925",
"|  c #B9872B",
" . c #A99C26",
".. c #BA9429",
"X. c #B98436",
"o. c #B79936",
"O. c #BAAA2B",
"+. c #B9AB31",
"@. c #B9B031",
"#. c #C4A716",
"$. c #CA8D2E",
"%. c #C78B32",
"&. c #E7AD3E",
"*. c #D9CA1C",
"=. c #DBD212",
"-. c #DED518",
";. c #E6D909",
":. c #E6DB0A",
">. c #E9DC09",
",. c #E8CB1F",
"<. c #E7DC10",
"1. c #E9DE12",
"2. c #F0D01F",
"3. c #DACE33",
"4. c #E5CA21",
"5. c #ECCD21",
"6. c #E3C42A",
"7. c #F3CF21",
"8. c #EED42B",
"9. c #E5C83B",
"0. c #E6D936",
"q. c #E8D837",
"w. c #B39956",
"e. c #AA8066",
"r. c #F59A5F",
"t. c #CAAD4B",
"y. c #EDA647",
"u. c #F5AC44",
"i. c #E8A452",
"p. c #FDA15E",
"a. c #CC9A6B",
"s. c #CF9B72",
"d. c #F49861",
"f. c #D0B761",
"g. c #C8BF72",
"h. c #FEA266",
"j. c #ECA173",
"k. c #CBC24F",
"l. c #D0C855",
"z. c #EAC341",
"x. c #E5CB55",
"c. c #D2C878",
"v. c #EFD97E",
"b. c #03028C",
"n. c #171287",
"m. c #010195",
"M. c #0A0594",
"N. c #00009D",
"B. c #231A86",
"V. c #272682",
"C. c #282586",
"Z. c #282885",
"A. c #282689",
"S. c #28288A",
"D. c #3F3B86",
"F. c #222292",
"G. c #333396",
"H. c #0100A4",
"J. c #0100A8",
"K. c #1415A5",
"L. c #1011AB",
"P. c #403D8B",
"I. c #46459A",
"U. c #7373B0",
"Y. c #746ECE",
"T. c #746DDA",
"R. c #565AEF",
"E. c #5B5DE8",
"W. c #5759F0",
"Q. c #6E6CE2",
"!. c #7477ED",
"~. c #7479EC",
"^. c #89678E",
"/. c #B688AF",
"(. c #CC8B8B",
"). c #C69399",
"_. c #D69591",
"`. c #E0D083",
"'. c #EDD69B",
"]. c #F8DD95",
"[. c #EAE493",
"{. c #F1E992",
"}. c #D7CEB6",
"|. c #EBD7A4",
" X c #FDD7B9",
".X c #EAE7A7",
"XX c #FAF0AC",
"oX c #EAE5B9",
"OX c #F3EBB4",
"+X c #FAF1B0",
"@X c #8A8DE5",
"#X c #C4BDE2",
"$X c #D0CFC1",
"%X c #D1CECB",
"&X c #D3C2D0",
"*X c #D7C7DA",
"=X c #D7CADE",
"-X c #E2CFC2",
";X c #FFDCC6",
":X c #FFE0CD",
">X c #F6EFCD",
",X c #FFEEDE",
"<X c #C8C8E4",
"1X c #D7D4E2",
"2X c #E5CCE4",
"3X c #E5D1EA",
"4X c #FFEEE2",
"5X c #FFF1E4",
"6X c #EAE2F3",
/* pixels */
"~.K.H.H.N.H.N.H.H.H.H.H.H.H.H.H.H.H.H.N.H.H.J.H.m.8 ",
"~.K.H.H.H.H.H.H.H.H.H.J.H.H.H.H.H.H.H.H.H.J.J.H.m.b.",
"~.K.H.H.H.H.N.H.H.J.H.J.H.J.H.H.H.H.H.H.J.J.J.J.m.8 ",
"~.K.H.J.J.H.H.H.H.H.H.H.J.H.H.J.H.H.H.H.H.J.H.H.m.8 ",
"~.K.H.J.J.H.H.J.H.H.J.J.J.H.J.H.H.H.H.H.J.J.H.H.N.8 ",
"~.K.H.J.H.H.N.H.H.N.H.N.H.H.H.H.H.H.N.H.H.H.H.H.m.8 ",
"~.K.H.H.M.n.S.S.V.r < < r e C.A.e 0 5 5 5 7 7 5 7 6 ",
"~.K.H.H.F.#X1X1X$Xg.k.k.c.}.*X*X$Xs a a a + + + u & ",
"~.K.J.H.F.1X5X5X+X0.1.1.q.].;X:X|.{ H P @ .     O % ",
"!.K.N.M.Z.1X5X5XXX0.:.:.8.]. X X'.T f G f       O % ",
"~.G.S.Z.d $XoXOX{.z.4.4.9.v.'.'.`.} g P g . . X O % ",
"@X<X1X1X$Xw.@.@.@.W j W W  . . . .i.i.i.i.l l M B * ",
"@X6X5X5XoX@./ / ` j k k j Q ~ I ! i.d.h.r.D b m A ; ",
"@X6X,X,XOX@.) ) ] j v v j Q ~ ~ ! y.p.p.r.D b m A ; ",
"@X>XXXXX{.+.` ] o.x N N x { U U ! &.u.&.y.z n m A ; ",
"U.c.0.0.9.W j j x 1 9 9 > O .   o 6.7.7.9.X.n m A ; ",
"U.l.:.>.,.j k v N 9 N.N.2 +     o *.>.>.5.| b m A ; ",
"U.l.1.>.,.h k v N 9 H.H.2 +     . *.>.>.5.| b F A ; ",
"U.c.8.0.9.h j j x 1 0 9 , O     o *.>.<.4.| b m A ; ",
"Y.-X].].v.O.` ' o.x N N x { U U I ( _ _ #.j n m A * ",
"T.2X X X'.O./ _ ` j v v j T E I ~ / / / ' | b D Z * ",
"T.2X;X;X].O./ ( ' j k v j E I I I / / ) ] X.b w.A ; ",
"Q.#X=X*X}.t.#.#.#.h j h h E R R R ) ' ] o.M C C ^.: ",
"E.G.C.V.i s.i.y.y.6.4.4.,.( / / ` | | X.M 1 0 9 0 2 ",
"W.K.N.m.w _.h.r.u.7.>.>.>._ / / ' | m m C 9 N.H.b.8 ",
"W.L.H.N.e _.h.h.u.7.>.>.:._ / / ] X.m m S 9 N.H.N.8 ",
"W.L.N.N.B./._._.a.&.5.7.,.( ^ )  .B V S ^.n.H.H.m.8 ",
"W.L.H.H.M.B.e e u w.$.$...P L K [ , w e n.N.H.J.m.8 ",
"W.L.H.H.H.H.H.M.9 S D D l g G H a 3 N.N.H.H.H.H.N.8 ",
"W.L.H.H.H.H.J.H.e S D D %.P G J a 5 H.H.H.H.J.J.N.8 ",
"W.L.H.H.J.H.J.H.9 e.%.%.%.P G J # 5 H.H.H.H.H.H.m.6 ",
"W.L.H.H.H.H.H.H.r f.5.5.*.P G J # 3 N.H.H.H.H.H.b.2 ",
"W.L.H.H.H.H.J.N.< k.1.:.-.L G J # 3 N.H.J.H.J.H.b.- ",
"W.L.N.H.H.H.H.N.< k.<.:.=.L G J # 3 H.H.H.H.H.H.b.- ",
"R.L.H.H.H.H.H.N.r c.q.0.3.U G J a 5 H.H.J.H.H.H.b.- ",
"R.L.H.H.H.J.H.H.V.%X+X+X[.Y G J a 5 N.J.H.H.H.H.b.- ",
"R.L.H.H.J.H.J.H.Z.1X,X,XoX[ f J a 5 H.J.J.H.H.H.b.- ",
"R.K.N.N.N.H.H.N.Z.1X,X,XoX[ G J a 3 N.H.J.H.H.H.b.- ",
"R.n.6 6 6 6 8 6 t 1X>X>X.X[ G J a 5 H.J.J.H.H.H.b.- ",
"E.I.P.P.D.y i y p .X{.{.[.Y G J a 5 M.J.J.H.H.H.b.- ",
"Q.<X=X*X&X).(.(.a.x.0.0.3.L G J a 5 H.J.J.H.H.H.b.- ",
"T.3X:X:X Xj.r.r.y.2.:.:.=.L G J a 5 H.H.J.H.H.H.b.- ",
"T.2X:X:X Xj.d.d.y.2.:.:.=.L G J # 3 H.J.J.J.H.H.b.- ",
"Q.<X=X*X&X).(.(.a.x.0.0.3.P G J # 3 N.H.H.H.J.H.m.- ",
"E.G.V.V.Z.e e w i }.+XXX[.Y G J # 3 H.H.H.J.H.H.b.- ",
"R.L.N.N.N.N.J.N.S.1X4X,XoX[ G H # 5 H.H.H.H.H.H.b.- ",
"R.L.H.N.H.H.H.N.S.1X5X,XoX[ f J a 5 H.J.H.H.H.H.b.- ",
"E.G.A.A.S.e e w i }.+X+X[.Y G J a 5 H.J.H.H.H.H.b.- ",
"Q.#X=X=X&X).(.(.a.x.0.0.3.P G J a 5 H.H.H.J.H.H.b.= ",
"T.3X:X:X Xj.d.d.y.2.:.:.=.L G H a 5 H.J.H.H.H.H.b.- ",
"T.3X:X;X Xj.d.d.y.8.1.>.-.U H Y a 5 H.H.H.H.H.H.b.- ",
"Q.#X=X=X&X).(.(.s.f.k.k.t.$ # a d 0 H.H.H.H.H.H.b.- ",
"E.G.A.A.V.e e e q r < < < 4 5 5 0 M.H.J.J.H.J.H.b.= ",
"R.L.N.H.H.N.N.H.N.H.N.N.N.H.N.N.H.J.J.J.H.J.J.H.b.= "
};
