/* XPM */
static char *doors[] = {
/* columns rows colors chars-per-pixel */
"64 64 207 2 ",
"   c #090805",
".  c #141514",
"X  c #141A1B",
"o  c #191B1B",
"O  c #171817",
"+  c #1B1205",
"@  c #271A09",
"#  c #281A12",
"$  c #21201E",
"%  c #282014",
"&  c #38260B",
"*  c #171E20",
"=  c #191F21",
"-  c #1C2324",
";  c #1E2628",
":  c #1F282A",
">  c #232423",
",  c #232B2C",
"<  c #2C2C2B",
"1  c #262826",
"2  c #302E2B",
"3  c #32312E",
"4  c #3F372F",
"5  c #252F30",
"6  c #292F31",
"7  c #263133",
"8  c #2A3435",
"9  c #2C3738",
"0  c #2D3A3C",
"q  c #353432",
"w  c #3A3936",
"e  c #323C3D",
"r  c #3C3C3A",
"t  c #383734",
"y  c #472D0C",
"u  c #493314",
"i  c #433E38",
"p  c #4E3C27",
"a  c #784C16",
"s  c #73521D",
"d  c #654311",
"f  c #42413D",
"g  c #484335",
"h  c #524527",
"j  c #684F2D",
"k  c #2F3E41",
"l  c #323F40",
"z  c #344244",
"x  c #3B4445",
"c  c #364649",
"v  c #3A4749",
"b  c #37494C",
"n  c #3B4A4C",
"m  c #3D4E51",
"M  c #374D50",
"N  c #3E5154",
"B  c #2F4043",
"V  c #454442",
"C  c #434B4B",
"Z  c #4A4D4D",
"A  c #444747",
"S  c #504D4A",
"D  c #55514E",
"F  c #424F51",
"G  c #425355",
"H  c #4A5253",
"J  c #435659",
"K  c #4A575A",
"L  c #45595D",
"P  c #4B5A5D",
"I  c #535655",
"U  c #525C5D",
"Y  c #5B5B5A",
"T  c #4E504F",
"R  c #596054",
"E  c #636356",
"W  c #465D61",
"Q  c #4B5E61",
"!  c #515F61",
"~  c #4C6265",
"^  c #4D6569",
"/  c #4E696D",
"(  c #466166",
")  c #526365",
"_  c #5A6364",
"`  c #52666A",
"'  c #5A676A",
"]  c #536A6D",
"[  c #5B6A6D",
"{  c #546D72",
"}  c #5A6E71",
"|  c #567175",
" . c #5B7275",
".. c #5B767A",
"X. c #5D797D",
"o. c #567479",
"O. c #4F6E74",
"+. c #636B6B",
"@. c #696967",
"#. c #77786A",
"$. c #656F70",
"%. c #627275",
"&. c #6A7374",
"*. c #62767A",
"=. c #637A7D",
"-. c #6A7B7D",
";. c #6D7778",
":. c #727C7C",
">. c #717575",
",. c #6E706E",
"<. c #835928",
"1. c #9A6A32",
"2. c #9B6625",
"3. c #B3762E",
"4. c #A97519",
"5. c #7A8277",
"6. c #BF9A37",
"7. c #CB8A2D",
"8. c #8B8C78",
"9. c #D1B249",
"0. c #E7C84D",
"q. c #5E7C81",
"w. c #637D82",
"e. c #6A7E81",
"r. c #737F81",
"t. c #658185",
"y. c #6B8285",
"u. c #66858A",
"i. c #6C8589",
"p. c #6C898D",
"a. c #738285",
"s. c #7B8585",
"d. c #72868A",
"f. c #738A8D",
"g. c #7C8B8D",
"h. c #788689",
"j. c #6E8D92",
"k. c #748D91",
"l. c #7A8E91",
"z. c #759195",
"x. c #7C9295",
"c. c #759599",
"v. c #7C9699",
"b. c #7C999D",
"n. c #77989C",
"m. c #6F9196",
"M. c #7E9DA2",
"N. c #868D8C",
"B. c #828F90",
"V. c #849294",
"C. c #899495",
"Z. c #829699",
"A. c #85999C",
"S. c #8A9B9D",
"D. c #889698",
"F. c #919C9E",
"G. c #969796",
"H. c #95988E",
"J. c #839EA1",
"K. c #8A9EA1",
"L. c #929EA1",
"P. c #85A1A5",
"I. c #8DA1A4",
"U. c #87A4A8",
"Y. c #8AA6AA",
"T. c #8DA9AD",
"R. c #92A3A5",
"E. c #99A4A5",
"W. c #94A6A9",
"Q. c #9AA7A9",
"!. c #95A9AC",
"~. c #9BAAAD",
"^. c #92AEB2",
"/. c #9EAEB1",
"(. c #96B2B5",
"). c #9AB2B5",
"_. c #9CB5B9",
"`. c #A1ADAE",
"'. c #A1AFB1",
"]. c #A4B2B4",
"[. c #A9B4B5",
"{. c #A4B6B9",
"}. c #AAB7B8",
"|. c #A4BABD",
" X c #ACBABC",
".X c #B2BCBE",
"XX c #B8BBBA",
"oX c #A6BEC1",
"OX c #ABBEC0",
"+X c #B4BFC0",
"@X c #ABC1C4",
"#X c #AFC7C9",
"$X c #B4C2C4",
"%X c #BAC3C5",
"&X c #B3C6C8",
"*X c #BBC7C8",
"=X c #B5CACC",
"-X c #BCCACB",
";X c #BCCED1",
":X c #BFD0D2",
">X c #C2CCCD",
",X c #C8CDCC",
"<X c #C1CFD0",
"1X c #C4D2D4",
"2X c #C9D6D8",
"3X c #D2DEDF",
"4X c #D2DEE0",
/* pixels */
"E.>X*X%X$X%X.X.X X[.`.`.[.[.`.Q.).Q.~.Q.`.Q.E.E.Q.Q.E.E.E.E.R.F.S.E.L.F.F.F.R.F.R.F.L.F.F.F.R.F.F.F.F.F.E.Q.F.C.E.`.Q.L.R.W.~.$.",
"`.!.J.T.!.|.{.|./.P.T.b.I.T.k.-.p.5.p.k.z.d.t.=.a.i.*.t.f.n.f.*.} i.z.w.t.t.i.*.=.i.c.X.o.f.x.t...X.t.p.p.i.t.| =.f.v.k.l.w.k.P ",
"~.k.t.j.n.T.T.%XG.~ j.n.v.c...F.Y B | | x.i.t.F.@.z o.i.i.u./ D.V M w.^ o.t.( s.@.z o.( ^ w.o.N.I z | X.X.o.^ s.E k w.q.{ N | m ",
" XP.o.X.n.T._.D.Z [ U.J.!.T.z.U < L X.p.c.k.z.) 0 Q t.p.u...] N - L o.] o.| / H < c ^ ( ) t.u.U 1 J =.X.p.w./ G < m u.o./ W { J ",
" XP.( X.n._.$X|.U.M.Y.^.).^.U.v.z.p.X.j.m.m.n.5.=.p...z.i...X.5.| | | | ..| ] ( ( ( / N ] ..p.X.^ u...t.j.u.w.O.^ | X.| { q.q.J ",
"].).j.n.(.v.&.%.` K K G G F n G G z k n z B b z 0 0 0 C b z z c z 9 0 9 9 0 9 7 7 5 8 7 9 z z c l v x c v b v z z 7 -.X.o.o.| M ",
"'.^.Y.z.(.v.n z 8 , , > ; > 1 ; - * X * X . * X X - * * $ - * o X - X X X X O X . X X * * - > $ - - - > - = = = X , S.=.( / { k ",
" XW.XXY b.n.P ) K n x l l 0 e 0 7 5 : : : - - - ; 5 , 7 8 , , , : , : - ; ; - - - - - 8 , 5 9 7 5 , , , , ; - - * 6 R.{ a.+.N c ",
"}.{.[ K _.A.) ' Q Q P G C C x z 9 0 0 9 5 , 5 5 7 8 8 9 8 7 , 6 5 5 7 , , 5 : : : - ; 7 8 7 8 8 9 7 7 , 5 5 , ; ; 7 W.=._ t b N ",
" XoXY.(.=Xz.P %.[ =.d.w.%.[ U G c n n C 8 e v 9 e v z v v l 0 l 0 e l 0 0 0 8 8 7 5 9 B z l 0 B c z 9 0 0 0 8 8 8 8 I.i.L N W n ",
" X#X@X@X#Xn.P %.[ i.A.A.l.d.-.) N J K J B n L b G K G K P G n v z z b F z k 8 0 c z b N m m N G m J c c l z 0 e z z W.J.j.j./ b ",
" XOXOX:X=XP.) }  .y.b.A.z.f.y. .P ` ` ~ b J J m J L ) ` Q _ Q P J G n m G c k B b b J N J W ) ^ L J m K m M m n n c E.U.q.X.X.G ",
".X|.@X-X#Xc.P ~ -.z.j.n.P.A.l.=.] ] ..[ Q P n b J J Q ' ` Q ` ) %.' G b N b b z M J L m L ) ^ ' ( ~ J J Q ) ) P K C !.Y.o.X.u.~ ",
" X#XoX=X;Xf.n P e.A.n.P.P.K.R.t.~ ~  .~ L { N N L Q J ] ` W Q [ } } ~ G N n c N Q W ^ N ^ =.L N ) [ Q L Q _ P K P G `.Y.q.O.u.J ",
"}.=X{.=X2Xc.b ' *.x.P.T.c.b.v.i.L J ] ' L ( n L ~ ] W ^ ! } ` } -.e.] ~ Q b b P L ~ { ^ ] ^ L N (  .] ~ P ` ) K ) P }.Y.O.o.j.L ",
" X@X,XC.#XI.J ~ %.u.!.).U.I.I.w.c N  .] N ~ ` G N J ^ L ` e.=.e.5.w.*. .) ^ W ^ L ~ ^ ] { ^ ( ` ] ] }  .~ Q ) ) _ K `.n.k.%.| N ",
"+X&XN.R #X!.P )  .v.T.).OXOXI./ z b N N ~ }  .Q M W } ] ` d.l.r.e.d.l.d.d.i.| Q W W Q N | w.d.y.=.=.e.=.} ' ` [ ' U '.j.N.D n N ",
"+X:XR.{.3XI.~ %.a.!.T.$X*X_.c.L b b b W { *.} L N W W { W =.l.l.=.d.D.k.l.A.e.^ W ~ w.=.f.x.Z.Z.f.e.e.e. .$. .' ' P }.oX} v w.L ",
"%X1X1X2X3X~.' 5.h.R.P.|.$X|.x.N n n L ` { .. .{ W Q W } w.w.d.l.| d.e.k.A.K.x.l... .y.k.K.A.V.l.x.l.k. .` =.-.%.} U [.OX(.c.p.^ ",
"%X2X1X2X3X].[ y.l.R.).).-X&Xz.{ / W ^ |  .p.5.} ^ } | k.l.f.A.l.| d.f.B.S.A.S.J.x.x.d.x.K.S.A.k.Z.x.d.} e.a.e.&.' G ].&X_.z.m.( ",
"+X<X=X1X3X].[ r.D.].|.{.*X*X!.Z.Z.d.e.w.o.t.X.( W ] | l.x.z.A.l.y.i.k.L.R.K.K.x.k.Z.K.K.K.!.K.Z.D.A.l.y.l.B.h.-.=.P W.|.|.).T.] ",
"+X1X-X;X3X[.$.e.C.[.$X$X&X$X).I.R.K.f.{  .5.| / { | =.Z.K.=.e.J.x.K.K.!.R.K.I.K.v.K.L.W.~.~.W.K.K.K.D.B.l.B.g.a.h.+.[.(.!.).|.a.",
"%X2X}.}.3X[.[ $.V. X*X>X%X_.).!.K.Z.l...=.e...=.e.w.x.'.D.y.k.x.k.x.Z.L.K.R./.!.L.W.!.~.~./.R.K.R.Q.R.S.C.B.B.a.-.+..X{.J.[.&Xg.",
"%X*XXX@.$XE._ =.B. X*X>X&X X{.Z.k.k.Z.x.i.y.i.p.w...l.A.A.I.A.p.i.k.v.!.~././.[.'././.W.~.!.K.~.Q.~.R.D.g.y.=.%.` P [.oX[.N.R.B.",
"+X<X>.I %XF.! h.e.A.+X1X-X%X!.Z.l.d.A.K.f.w.y.Z.k.d.A.x.J.S.l.R.Z.x.x.{././.!.~././.]./.{.!.~./.Q.`.`.S.B.d.%.] ) F Q.!.-.Z s.a.",
"XX2XOX+X2XV.! >.h.L.K.%X>X%XI.v.Z.d.K.W.I.Q./.K.A.K.S./.~./.x.!.K.K.I.}.'.'. X{.}. X+X X X X X+X[.'.`.E.L.S.d.[ Q K `.U.{ w.|.a.",
"+X<X*X<X,XC.H $.:.S.'.+X$X.X/.P.].K.R. X+X%X.X/.l.L.Z.~.+X].Z.K.K.W.W./.'. XB.:.-.;.5.:.;.r.r.>.:.C.`.Q.E.C.a.} P H '._.M.^.J.` ",
" X-X X*X1XB.C &.a.C.'.+X$X`.).W.I.K.K.~.W.].'.R.v.J.f.I.[.A.K.A.K. X/.K.'.!.Z w r r V f V V r w O K E.`.`.R.S.r.` v R.T.t.Y.c.N ",
"[.$X{.$X<Xh.x $.:.B.Q. X].A.W.}.A.J.R./.[.{.l.y.J.l.e.k.'.'.~.!.K./.K.A. XL.C V V $ t t r 2 f $ O Z '.F.a.:.s.-.) G R.b.q.j.p.c ",
" X$X+X-X-Xr.C &.r.h.S./.~.I.~.+XK.Z.R.'.}.].x.f.A.Z.w.l.'.}.Q.W.Z./.}.K. X'.T V 3 $ 3 w t 3 3 O . I H.s s d u l ) H S.c.p.q.{ M ",
"XX<X X%X<Xr.C >.:.h.V.~.).I.v. X~.d.R./././.K.K.W.k.e.'..X}. X}.A.}././.S.W.I w O 1 3 3 3 3 $ 2 . I ,.d 0.2.@ O ) K R.M.q.| X.b ",
"XX-XXX>.[.=.x &.>.}  .D.[.~.W.}.K.J.~.~.{.+X.X/.W.~.~.+X>X+X%X*X~./.Z.W.K.Z.H q $ < 2 2 w r w 1 . Z h.E 0.s   O [ U R.p.d.$.O.W ",
"XX$X,.l R.%.l ! ! ! ) -.R.K.K.R.x.I.~.!.~. X.XS.I. X{. X%X.X X%X[.[.!.[.W.f.Z < > 3 p i i i 3 > O T ~.N.9.u $ o z H E.t.:.V ' ..",
" X$Xh.y.x.! e I U ! } d.J.l.x.K.d.Z.l.l.I.~.R.W. X[.W.].$X].~.]./.{.K.'. XK.Z 1 o p <.<.1.j - q O T L.8.9.y r 7 < x !._.-.Q x.) ",
"[.W.J.J./ z 9 H ! ! } d.J.K.I.J.d.x.i.x.A.!.I.!.%X/.A.~..X~.I.!.!.K.A.R. X'.Z > O p a # 2.j $ i * A L.H.9.y C z 1 x !.(._.@XY.| ",
"F.} k.J.{ k 5 F U ! =.f.Q.].W.A.x.x.R.~.Q.!.].).].).!.W.].I.W.].x.K.J.K.].L.V 2 O p 7.u 7.<.1 q . V L.8.9.u x e ; G ].!.I.|.T. .",
"C.` q.../ n , x K K =.V.R.'.!.{.].I.]..X X~.).~.R.].[.P.x.x.~.].~.!.Z.d.J...l V - j 3.s 3.s < 2 . A W.#.7.u A z 1 C [.#X{.|.T...",
"C. ./ W W c ; e x F ` =.x.K.K.[.$X[. X.X X[.E.~.~.`.!.k.i.A.W.S.K.Z.K.w.d.} V D 9 j 3.1.1.p 6 t O A L.#.4.@ v l - F [.(.(.Y.P.) ",
"g. .J N N l ; 9 x v ` =.k.L.I.R. X{. X+X X{.I.R.[.].!.g.Z.J.k.i.e... .} } ` l V w i i i p 2 < w o l K.E d + A x - b ].#Xc.m.m.] ",
"B. .G.e k l , 8 e m Q =...J.!.R.!.]. X}.{.~.!.~.[.{.].R.A.v.=. .w.` W ] { ] f i t f i l r t t r O C :.p @ + % $ , C ].@XI.;.X.| ",
"C.} T - c z ; 8 l v P =. .k.Z.l.S.~.].].~.~.~. X].`.'.W.A.f.=.y.w.W J ` / ^ l q < r r r t t w r O C R &     +   ; U  X|.E.S ` d.",
"V...N M J 0 ; 7 z n N { =.e.x.k.I.~.!.!.W.`./.~.W.W.~.!.W.f.=.t.e...Q Q ^ ^ w V D 2 t 3 t r Y t O x =.r O .   . < U .X@Xf.) w...",
"B.=.] W N 0 : 8 e c b Q { y.J.K.R.I.W.S.W.!.~.I.A.I.R.K.S.x.z.f.w.e.O.{ | ^ l T V < w t i r D $ O v i.d.r.%.w O 8 ! %XOX(.$X(.| ",
"g.=.( J N 0 ; 8 9 v L ~ { l.l.Z.S.A.I.I.I.S.I.Z.z.A.Z.Z.x.f.f.x.w. .w.w.] Q q $ . $ $ $ $ $ O O . z d.f.Z.A.h.e 8 _ %X>X_.@X=X%.",
"V...^ W N 0 - 5 9 n K ` e.t.f.x.f.Z.I.A.S.A.Z.x.x.Z.x.A.x.d.t.=.w.f.p.o.{ ^ 7 X X X X X X X = - - n f.f.y.d.g.a.%.&.%X1XoX*X:X-.",
"D.w.^ / W k - 5 8 n ) =.f.e.l.g.f.x.A.S.S.Z.A.l.f.f.K.l.x.k.y.f.f.k.f.w.| J Q P Q Q J m ^ M Q =.;.e.f.f.f.f.f.a.y.[ %X-X@X|.@X=.",
"D.i.( / L 0 * 5 e G } e.*. .=.d.f.f.S.R.A.x.Z.Z.l.d.S.x.p.l.=.i.k.i.k.e.w.Q Q q.| o.q.i.q.p.z.J.A.z.i.f.l.a.e.-. .U .X#X|.(._.*.",
"B...B.c W c - 5 l G _ %.} }  .y.i.y.f.g.x.g.d.x.l.f.l.A.y.i.i.{ w.k.w.q.| Q W O.Q ] ..w.{ w.p.e.i.f.w...=.=.%.[  .K .X|.{.f.j.] ",
"V.=.@.> J G , 6 e F L ] %.=.-.=.e.=.e.y.d.f.i.d.d.y.x.l.e.{ i.{ ] d./ Q ^ ^ ] ^ { { ~ J Q ~  ...=.y.w. .[ [  .)  .K ].Y.F.Y P ] ",
"D.i.M J { N 6 8 e n K _  .-.-.=.-. .=...w.a.y.e.y.e.l.l.i.Q ~ q.] | { J W Q ^ ^ { / ~ W W ^ ..=.....y.=. .' ' ) ' K ~.Y.^ z 5.~ ",
"B.X.| X...n , 6 8 z F ~ [ [ =.&.] ^ } ` } *.=.e.e.e.w.y.=.` J { { { O.Q W Q ] Q ] Q J N Q ~ ~ w.=.] ] [ Q Q ~ _ ) n L.f.o.t.u.N ",
"D.i...t.u.m - , 8 0 C K Q Q ] ' L K Q W ]  .[  .*.} =.` ` ] M Q ] Q Q W J Q ! W J J G Q ] W Q  .~ J N N N N K K J z L.t.O.q.t.N ",
"D.k.t.t.w.N - , 6 7 v G m J P K b M P Q Q ] ` ^ ` ` [ K L N c J W J G n m Q G G b z J Q Q ` K P J b n z n n n G b l S.i.q.t.t.M ",
"B.t.p.w.X.N ; ; ; , e n G F G n m m P Q ) ) ) ) P Q ) J n m n n F m N G c J N n l l m m b K M n n v c z c n b v v e C.i.( / ..M ",
"B.i...f.J.Q , ; ; : 9 C F n n b m Q ) ) [ [ Q K K N G N c c b n l J M m c b n b l 9 m m c F F n z c z z z v v l z 8 g.p.( N | b ",
"S.p.E.I z.[ < , : , 0 x G n c c m K _ ! ! ! F n G n m L G n c n l c m F m l l k k 9 n n c n n v z v v x 0 z v x l 8 V.t.y._ N z ",
"S.k._ 8 t.) ; - ; : 0 z v v k z n G Q K F F n c n c n F b k 9 l k 8 l c l k k 9 e l k z l z c l l l l l 0 0 l 0 0 7 V.=.+.r k c ",
"!.I.*.i.n.~ x v C C C C H H H H U ! +.' ' _ ! ! ! U K ! P H H H H F H H H H C F H F C C C x A A x C C A A v A A x x B...n 8 ~ n ",
"~.T.P.!.I.!. X[.].].`. X].].+X$X*X*X*X*X*X$X+X X X X X$X X'.].].}.}.OX'.`.'.!.'.'.'.Q.'.Q.~.'.~.Q.Q./.~.~.Q.~.Q.Q.Q.L.] / ^ | b ",
"Q.Y.T.^.P.b.p.t.q.X.X.i.b.b.b.c.T.T.(.J.M.z.j.u.o.i.w.j.k.w.w.w.i.k.w.q.w.q.w.w...w.w.q.w.....{ ^ ..u.w.=.w.i.X.*...] N W W ~ z ",
"~.Y.M.T.P.m.O.D.&.b o.t.p.z.k.'.@.X.U.n.t.j.j.L.@.M { | w.u.| F.U W ^ ^ { q.o.B.@.m q.{ ..{ M s.I J ..{ { ..X.g.,.b ^ b N W ~ B ",
"~.A.m.U.P.p.t.` q c q.l.i.p.k._ q ] n.P.c.q.u.' t z / w.x.k.{ ! 1 W | ] | w.{ U q b ..] } ^ W C 1 H q.| ..q.t.[ q 0 ( M M W { z ",
"[.(.P.^.T.b.p.X.W { w.n.j.q.t...{ c.n.n.c.u.u./ W { o.m.J.j.q.W P } ..o.w.| { { W / | ~ / { W b m | w.{ | t.u.] N ../ M N N / c ",
":.[ ^ ] [ ^ L ( J c M K J G b L J K K N G M m n m n c K P m n c c b v c n n l m m k z k k z k k k z l k c n n 0 n m B 0 7 9 k 7 "
};
