/* XPM */
static char *miss[] = {
/* columns rows colors chars-per-pixel */
"112 47 89 1 ",
"  c #0D0605",
". c #4C1E3D",
"X c #4D3624",
"o c #4D3823",
"O c #4D3E28",
"+ c #4E2039",
"@ c #713C25",
"# c #724B26",
"$ c #724E28",
"% c #705027",
"& c #4C1E40",
"* c #4D2141",
"= c #6E234E",
"- c #6E284E",
"; c #722740",
": c #6E2354",
"> c #6F2855",
", c #BA1B1F",
"< c #941E25",
"1 c #B71E24",
"2 c #BB1C23",
"3 c #BC1B37",
"4 c #B8173C",
"5 c #B71E39",
"6 c #BB1C39",
"7 c #923D24",
"8 c #8F2039",
"9 c #B72025",
"0 c #BA2024",
"q c #B63423",
"w c #BB3323",
"e c #C11B22",
"r c #E61E25",
"t c #EC1C23",
"y c #ED1D28",
"u c #F11C24",
"i c #F01E2A",
"p c #E72025",
"a c #EA2025",
"s c #EF212B",
"d c #F12126",
"f c #F1232B",
"g c #8F4F24",
"h c #914F26",
"j c #945125",
"k c #BA4E24",
"l c #BB5022",
"z c #EE4226",
"x c #EF4D2C",
"c c #EF6C26",
"v c #EF6B2B",
"b c #F16E26",
"n c #F26F28",
"m c #F3712B",
"M c #931D41",
"N c #8D1E54",
"B c #911E58",
"V c #B61E54",
"C c #B91E56",
"Z c #B91A58",
"A c #932041",
"S c #8F2054",
"D c #8D2855",
"F c #912058",
"G c #B62056",
"H c #EE1E47",
"J c #F01C4D",
"K c #EE204B",
"L c #F02253",
"P c #F31C71",
"I c #EF2674",
"U c #F02275",
"Y c #F28D52",
"T c #F19356",
"R c #F0B171",
"E c #EF4892",
"W c #F04991",
"Q c #F14F99",
"! c #EF688D",
"~ c #EF6DAB",
"^ c #F16DB2",
"/ c #F0C893",
"( c #F3D393",
") c #EE8ECB",
"_ c #F194CE",
"` c #F08FD2",
"' c #F292D0",
"] c #F4F0EE",
"[ c None",
/* pixels */
"[[[[[[[[[[[[[[[[[[[[[[[[[[[[[[[[[[[[[[[[[[[[[[[[[[[[[[[[[[[[[[[[[[[[[[[[[[[[[[[[[[[[[[[[[[[[[[[[[[[[[[[[[[[[[[[[",
"[[[[[[[[[[[[[[[[[[[[[[[[[[[[[[[[[[[[[[w2t23[[[[[[[[[[[[[[[[[[[[[[[[[[[[[[[[[[[[[[[[[[[[[[[[[[[[[[[[[[[[[[[[[[[[[",
"[[[[[[[[[[[[[[[[[[[[[[[w,t2Z[[[[[[[[[,ttttt[[[[[[[[[[[[[w,t,[[[[[[[[[[[[[[72,,tte2M[[[[[[[[[[[[[[[[[7,,2tu,2M[[[",
"[[[[[[[[[[[[[[[[[[[[[[etttt2[[[[[[[[,ttttut[[[[[[[[[[[[kttttD[[[[[[[[[[#q2rtttuuttr6[[[[[[[[[[[[[#q2ttttutttr6[[",
"[[[[[[[[[[[[[[[[[[[[[,tutttt[[[[[[[,ttutty4[[[[[[[[[[[h,tttp>[[[[[[[[[w1tttttuuttttp>[[[[[[[[[[[w1rttttuututtr:[",
"[[[[[[[[[[[[[[[[[[[[wtttttt4[[[[[[wttttttr=[[[[[[[[[[[,tttt5[[[[[[[[72rttr22M[[wtttaC[[[[[[[[[72tttt12M[[wattsG[",
"[[[[[[[[[[[[[[[[[[[ltttttt,=[[[[[ltttttut3[[[[[[[[[[[etttt9.[[[[[[[wttttrV=[[[[[utttZ[[[[[[[[wttttr6=[[[[[tutrG[",
"[[[[[[[[[[[[[[[[[[j,tttuttZ[[[[[j2tutttt2[[[[[[[[[[[ltttt,=[[[[[[#2ttty2@[[[[[[[uuspS[[[[[[#2yttr2;[[[[[[[uutaF[",
"[[[[[[[[[[[[[[[[[#1tttttt2[[[[[#0tttutttC[[[[[[[[[[#,tttrV[[[[[[#1rttt6[[[[[[[[latt0*[[[[[#9ttuy3[[[[[[[[lttt0+[",
"[[[[[[[[[[[[[[[[X9ttttatrB[[[[X1ttttttt2[[[[[[[[[[[,tttt2[[[[[[#1tyuyZ[[[[[[[[#0ttaG[[[[[$2tttrZ[[[[[[[[#0ttpV[[",
"[[[[[[[[[[[[[[[[qttttttt2[[[[[qttuttttrB[[[[[[[[[[ktttt2=[[[[[[2ytttZ[[[[[[[[o,atp9+[[[[[2rttyZ[[[[[[[[o2tap9*[[",
"[[[[[[[[[[[[[[[lttutttttF[[[[ltutttttt2[[[[[[[[[[#2tttrB[[[[[[wrttt6[[[[[[[[o1rta9=[[[[[wtytt3[[[[[[[[o,ttt9=[[[",
"[[[[[[[[[[[[[[j2ttttttt2[[[[h2tttyttty=[[[[[[[[[[2ttur3[[[[[[#atta2[[[[[[[[j1ttt9S[[[[[#rtta2[[[[[[[[h1ttt9F[[[[",
"[[[[[[[[[[[[[[2ttttuttpF[[[[2tttutttr4[[[[[[[[[[ltttt2[[[[[[[wtuurF[[[[[[[72ttr1F[[[[[[wtttrF[[[[[[[71tta9F[[[[[",
"[[[[[[[[[[[[[2tttuutat2[[[[etttttutt2:[[[[[[[[[[,tutrB[[[[[[[ttst0[[[[[[@2rttt0F[[[[[[[tuts0[[[[[[@2tttt9F[[[[[[",
"[[[[[[[[[[[[kttttttttaF[[[ltttuHttttZ[[[[[[[[[[wtttt6[[[[[[[jattrS[[[[72rtttr2=[[[[[[[jttytS[[[[72rtttr2=[[[[[[[",
"[[[[[[[[[[[#2ttutttut2[[[j2ttuKzttt2[[[[[[[[[[gttut,[[[[[[[[lataa:[[w2ttttt24[[[[[[[[[lttta:[[w2ttttt23[[[[[[[[[",
"[[[[[[[[[[[2tttHztttrF[[[2tttd[iuutZ[[[[[[[[[[,ttttN[[[[[[[[watdp*[jrttttr2=[[[[[[[[[[waasp*[hrttttt1=[[[[[[[[[[",
"[[[[[[[[[[kttutyuttt2[[[wttuf)nttt2[[[[[[[[[[ltttt,[[[[[[[[[watap*[%2tt21;[[[[[[[[[[[[wattp*[%2tt21;[[[[[[[[[[[[",
"[[[[[[[[[#2tty~btuuyZ[[lttuiE[tuutZ[[[[[[[[[[ettt2=[[[[[[[[[lttup:[[[[[[[[[[[[[[[[[[[[lattr:[[[[[[[[[[[[[[[[[[[[",
"[[[[[[[[[2ttuU[atuuu[[#0ttuL[vutt2[[[[[[[[[[wtttrZ[[[[[[[[[[jauaaS[[[[[[[[[[[[[[[[[[[[jaudaA[[[[[[[[[[[[[[[[[[[[",
"[[[[[[[[kttuf_YsutuJ[[2tuuf`[uuutZ[[[[[[[[[#rttt2[[[[[[[[[[[[autt0[[[[[[[[[[[[[[[[[[[[[sata0[[[[[[[[[[[[[[[[[[[[",
"[[[[[[[#2tuiE[dutiiQ]muuui^[bdut2[[[[[[[[[[ettttZ[[[[[[[[[[[[watttB[[[[[[[[[[[[[[[[[[[[wtttrF[[[[[[[[[[[[[[[[[[[",
"[[[[[[[2tuti[Rdutus_TduutP[(futtC[[[[[[[[[jrttt2[[[[[[[[[[[[[#0ttt2[[[[[[[[[[[[[[[[[[[[#0ttt2[[[[[[[[[[[[[[[[[[[",
"[[[[[[jttty^[mutuiI/fuut2[[nuuty:[[[[[[[[[etttrB[[[[[[[[[[[[[[latttZ[[[[[[[[[[[[[[[[[[[[lttttZ[[[[[[[[[[[[[[[[[[",
"[[[[[[2ttt3[[ututi!xtut2=[[uiut6[[[[[[[[[jrttt2[[[[[[[[[[[[[[[[0ttt,=[[[[[[[[[[[[[[[[[[[[2ttt2=[[[[[[[[[[[[[[[[[",
"[[[[[wttt2[[$yutttttutrZ[[jtutrB[[[[[[[[[2ttuaB[[[[[[[[[[[[[[[[jtttt2[[[[[[[[[[[[[[[[[[[[jtutt,[[[[[[[[[[[[[[[[[",
"[[[[#rtttZ[[kttuuututt2[[[etut2[[[[[[[[[jtttt0[[[[[[[[[[[[[[[[[[wtttrZ[[[[[[[[[[[[[[[[[[[[wrttrZ[[[[[[[[[[[[[[[[",
"[[[[ettt2[[[wttttyttyr:[[jrutyZ[[[[[[[[[etttrB[[[[[[[[[[[[[[[[[[[2tut2[[[[[[[[[[[[[[[[[[[[[2ttt2[[[[[[[[[[[[[[[[",
"[[[jrtttZ[[Oryitttttt3[[[wttut[[[[[[[[[jrtus2[[[[[[[[[[[[[[[[[[[[jrttr3[[[[[[[[[[[[[[[[[[[[jttyt3[[[[[[[[[[[[[[[",
"[[[2ttt2[[[$yyttuttt2[[[$ptty6[[[[[[[[[wttryS[[[[[[[#22uuu2[[[[[[[qttuy=[[[[[[#12uuu0[[[[[[[wtttr:[[[[[[[[[[[[[[",
"[[jttttB[[[$rtttttitB[[[lsttrB[[[[[[[[$rttt9*[[[[[[j1ttuur6[[[[[[[#yutr6[[[[[h1ttuur6[[[[[[[#ytut6[[[[[[[[[[[[[[",
"[[2ttt2[[[[hrittttt6[[[[ettte[[[[[[[[[ktttsG[[[[[[#1tttt2M[[[[[[[[[uutuy[[[[#1ryut2M[[[[[[[[[uttut[[[[[[[[[[[[[[",
"[ktttrB[[[[htttttt2[[[[jrttyC[[[[[[[[[0yttp:[[[[[[wrtuy3[[[[[[[[[[[uuuuu[[[[wtttt4[[[[[[[[[[[uuuuu[[[[[[[[[[[[[[",
"[2ttt1&[[[[$ytttt2[[[[[wtttr>[[[[[[[[hruts6[[[[[[[utttt[[[[[[[[[[[[uutuu[[[[uuutu[[[[[[[[[[[[uuuuu[[[[[[[[[[[[[[",
"jttttC[[[[[[7122M[[[[[[tuiut[[[[[[[[ qtttrS[[[[[[[uuuiJ[[[[[[[[[[[#atuuu[[[[uuuiJ[[[[[[[[[[[#rutut[[[[[[[[[[[[[[",
"2ttt2[[[[[[[[[[[[[[[[[[uttt3[[[[[[[[oprttr&[[[[[[[uuuiJ[[[[[[[[[[[wtttr6[[[[uuuuJ[[[[[[[[[[[wtttr6[[[[[[[[[[[[[[",
",tttC[[[[[[[[[[[[[[[[[lutuu[[[[[[[[[gtutt5[[[[[[[[uuutu[[[[[[[[[[waaua0=[[[[uutiu[[[[[[[[[[wttaa9=[[[[[[[[[[[[[[",
",ttt>[[[[[[[[[[[[[[[[[wuuuu[[[[[[[[[ltttrN[[[[[[[[wrtty3[[[[[[[@0atta9F[[[[[wrutt3[[[[[[[#0ttta1F[[[[[[[[[[[[[[[",
",tt4[[[[[[[[[[[[[[[[[[uuuuu[[[[[[[[[etttr.[[[[[[[[$0tttt2M[[[<2rttta9F[[[[[[$0tttt2M[[[<0pttta9F[[[[[[[[[[[[[[[[",
",trB[[[[[[[[[[[[[[[[[[uuuuu[[[[[[[[[tttt,[[[[[[[[[[j1trttrtuutatara0=[[[[[[[[h1ytttttutatataa0=[[[[[[[[[[[[[[[[[",
",t2[[[[[[[[[[[[[[[[[[[uuuuu[[[[[[[[[,tttV[[[[[[[[[[[#2etttttttaa20A[[[[[[[[[[[$22yrtttttta0,A[[[[[[[[[[[[[[[[[[[",
",rN[[[[[[[[[[[[[[[[[[[uuuuu[[[[[[[[[j022[[[[[[[[[[[[[[[<222222<8+[[[[[[[[[[[[[[[[<222222<8+[[[[[[[[[[[[[[[[[[[[[",
",,.[[[[[[[[[[[[[[[[[[[euut2[[[[[[[[[[[[[[[[[[[[[[[[[[[[[[[[[[[[[[[[[[[[[[[[[[[[[[[[[[[[[[[[[[[[[[[[[[[[[[[[[[[[[",
"2Z[[[[[[[[[[[[[[[[[[[[@222[[[[[[[[[[[[[[[[[[[[[[[[[[[[[[[[[[[[[[[[[[[[[[[[[[[[[[[[[[[[[[[[[[[[[[[[[[[[[[[[[[[[[[",
"4[[[[[[[[[[[[[[[[[[[[[[[[[[[[[[[[[[[[[[[[[[[[[[[[[[[[[[[[[[[[[[[[[[[[[[[[[[[[[[[[[[[[[[[[[[[[[[[[[[[[[[[[[[[[[[[",
"[[[[[[[[[[[[[[[[[[[[[[[[[[[[[[[[[[[[[[[[[[[[[[[[[[[[[[[[[[[[[[[[[[[[[[[[[[[[[[[[[[[[[[[[[[[[[[[[[[[[[[[[[[[[[[[["
};
