/* XPM */
static char *gun2[] = {
/* columns rows colors chars-per-pixel */
"80 99 37 1 ",
"  c black",
". c #202020",
"X c #2C2C2C",
"o c #543C1C",
"O c #744C28",
"+ c #484848",
"@ c gray33",
"# c #646464",
"$ c gray44",
"% c #7C7C7C",
"& c #980000",
"* c #880015",
"= c #EC0000",
"- c #FC0000",
"; c #80502C",
": c #A0643C",
"> c #A86840",
", c #B47044",
"< c #FC5454",
"1 c #FC5C5C",
"2 c #C87C4C",
"3 c #DC8854",
"4 c #E88C58",
"5 c #F0945C",
"6 c #FC9C60",
"7 c #FCA470",
"8 c #FCFC54",
"9 c gray55",
"0 c #989898",
"q c gray66",
"w c #B4B4B4",
"e c #FC9C9C",
"r c #FCB080",
"t c #FCB890",
"y c #FCC4A4",
"u c #D0D0D0",
"i c #FCD8C4",
/* pixels */
"********************************************************************************",
"********************************************************************************",
"********************************************************************************",
"************************************&&&*****************************************",
"************************************&&&*****************************************",
"************************************&&&*****************************************",
"*********************************&&&---&&&**************************************",
"*********************************&&&---&&&**************************************",
"*********************************&&&---&&&**************************************",
"************************---******===eee===******---*****************************",
"************************---******===eee===******---*****************************",
"************************---******===eee===******---*****************************",
"***************************<<<111111eee111111<<<********************************",
"***************************<<<111111eee111111<<<********************************",
"***************************<<<111111eee111111<<<********************************",
"***************************===eeeeee888eee<<<===********************************",
"***************************===eeeeee888eee<<<===********************************",
"***************************===eeeeee888eee<<<===********************************",
"************************&&&<<<eee+++++++++eee<<<===*****************************",
"************************&&&<<<eee+++++++++eee<<<===*****************************",
"************************&&&<<<eee+++++++++eee<<<===*****************************",
"*********************&&&111eee+++@@@%%%@@@+++eee111&&&**************************",
"*********************&&&111eee+++@@@%%%@@@+++eee111&&&**************************",
"*********************&&&111eee+++@@@%%%@@@+++eee111&&&**************************",
"************************&&&===+++%%%   %%%+++===&&&*****************************",
"************************&&&===+++%%%   %%%+++===&&&*****************************",
"************************&&&===+++%%%   %%%+++===&&&*****************************",
"******************************+++@@@$$$@@@+++***********************************",
"******************************+++@@@$$$@@@+++***********************************",
"******************************+++@@@$$$@@@+++***********************************",
"******************************+++%%%qqq%%%+++***********************************",
"******************************+++%%%qqq%%%+++***********************************",
"******************************+++%%%qqq%%%+++***********************************",
"******************************%%%wwwuuuwww%%%***********************************",
"******************************%%%wwwuuuwww%%%***********************************",
"******************************%%%wwwuuuwww%%%***********************************",
"******************************+++wwwuuuwww+++***********************************",
"******************************+++wwwuuuwww+++***********************************",
"******************************+++wwwuuuwww+++***********************************",
"***************************%%%%%%+++%%%+++%%%%%%********************************",
"***************************%%%%%%+++%%%+++%%%%%%********************************",
"***************************%%%%%%+++%%%+++%%%%%%********************************",
"************************XXX%%%000XXXXXXXXX###%%%@@@*****************************",
"************************XXX%%%000XXXXXXXXX###%%%@@@*****************************",
"************************XXX%%%000XXXXXXXXX###%%%@@@*****************************",
"************************XXX%%%qqq$$$%%%$$$###%%%+++*****************************",
"************************XXX%%%qqq$$$%%%$$$###%%%+++*****************************",
"************************XXX%%%qqq$$$%%%$$$###%%%+++*****************************",
"************************XXX%%%qqq000000000###%%%XXX*****************************",
"************************XXX%%%qqq000000000###%%%XXX*****************************",
"************************XXX%%%qqq000000000###%%%XXX*****************************",
"************************XXX+++000qqqqqqqqq++++++   *****************************",
"************************XXX+++000qqqqqqqqq++++++   *****************************",
"************************XXX+++000qqqqqqqqq++++++   *****************************",
"************************XXX...%%%+++++++++   ...   >>>**************************",
"************************XXX...%%%+++++++++   ...   >>>**************************",
"************************XXX...%%%+++++++++   ...   >>>**************************",
"*********************555XXX...###XXXXXXXXX   ...   >>>,,,***********************",
"*********************555XXX...###XXXXXXXXX   ...   >>>,,,***********************",
"*********************555XXX...###XXXXXXXXX   ...   >>>,,,***********************",
"******************555rrrrrr...###XXXXXXXXX   ...ooo>>>,,,***********************",
"******************555rrrrrr...###XXXXXXXXX   ...ooo>>>,,,***********************",
"******************555rrrrrr...###XXXXXXXXX   ...ooo>>>,,,***********************",
"******************777yyyiii222            ......OOO,,,,,,,,,********************",
"******************777yyyiii222            ......OOO,,,,,,,,,********************",
"******************777yyyiii222            ......OOO,,,,,,,,,********************",
"******************777rrriiiiii222;;;;;;;;;,,,444444333222,,,********************",
"******************777rrriiiiii222;;;;;;;;;,,,444444333222,,,********************",
"******************777rrriiiiii222;;;;;;;;;,,,444444333222,,,********************",
"***************777rrrrrriiiiiiiiiiiiyyytttrrr777444444333,,,********************",
"***************777rrrrrriiiiiiiiiiiiyyytttrrr777444444333,,,********************",
"***************777rrrrrriiiiiiiiiiiiyyytttrrr777444444333,,,********************",
"***************777rrr444rrriiiiiiiiiyyytttrrr777666444333222********************",
"***************777rrr444rrriiiiiiiiiyyytttrrr777666444333222********************",
"***************777rrr444rrriiiiiiiiiyyytttrrr777666444333222********************",
"***************777rrr777444rrrrrrrrrrrrrrr777666666444333222********************",
"***************777rrr777444rrrrrrrrrrrrrrr777666666444333222********************",
"***************777rrr777444rrrrrrrrrrrrrrr777666666444333222********************",
"***************555rrrrrr666666rrrrrrrrr777777666666444333222********************",
"***************555rrrrrr666666rrrrrrrrr777777666666444333222********************",
"***************555rrrrrr666666rrrrrrrrr777777666666444333222********************",
"***************000000000qqqqqq222555555555555555000000000%%%%%%*****************",
"***************000000000qqqqqq222555555555555555000000000%%%%%%*****************",
"***************000000000qqqqqq222555555555555555000000000%%%%%%*****************",
"************000qqqqqq000999$$$###>>>>>>:::###000qqqqqq000000%%%###**************",
"************000qqqqqq000999$$$###>>>>>>:::###000qqqqqq000000%%%###**************",
"************000qqqqqq000999$$$###>>>>>>:::###000qqqqqq000000%%%###**************",
"*********000qqqqqq000000%%%$$$###@@@+++###%%%999qqqqqq000000000%%%###***********",
"*********000qqqqqq000000%%%$$$###@@@+++###%%%999qqqqqq000000000%%%###***********",
"*********000qqqqqq000000%%%$$$###@@@+++###%%%999qqqqqq000000000%%%###***********",
"******000qqqqqq000000%%%%%%$$$###@@@@@@###%%%999000999999999000000###@@@********",
"******000qqqqqq000000%%%%%%$$$###@@@@@@###%%%999000999999999000000###@@@********",
"******000qqqqqq000000%%%%%%$$$###@@@@@@###%%%999000999999999000000###@@@********",
"******%%%%%%000000%%%$$$#########@@@@@@###%%%###%%%000qqqqqq000000%%%###+++*****",
"******%%%%%%000000%%%$$$#########@@@@@@###%%%###%%%000qqqqqq000000%%%###+++*****",
"******%%%%%%000000%%%$$$#########@@@@@@###%%%###%%%000qqqqqq000000%%%###+++*****",
"***www000qqqqqq000000%%%%%%$$$###@@@@@@#########000000000qqqqqq000%%%###++++++**",
"***www000qqqqqq000000%%%%%%$$$###@@@@@@#########000000000qqqqqq000%%%###++++++**",
"***www000qqqqqq000000%%%%%%$$$###@@@@@@#########000000000qqqqqq000%%%###++++++**"
};
