/* XPM */
static char *gun3[] = {
/* columns rows colors chars-per-pixel */
"82 104 29 1 ",
"  c black",
". c #202020",
"X c #2C2C2C",
"o c gray22",
"O c #484848",
"+ c gray33",
"@ c #646464",
"# c gray44",
"$ c #7C7C7C",
"% c #880015",
"& c #80502C",
"* c #B47044",
"= c #BC7848",
"- c #C87C4C",
"; c #D08050",
": c #DC8854",
"> c #E88C58",
", c #F0945C",
"< c #FC9C60",
"1 c #FCA470",
"2 c gray55",
"3 c #989898",
"4 c gray66",
"5 c #B4B4B4",
"6 c #FCB080",
"7 c #FCB890",
"8 c #FCBC9C",
"9 c #FCC4A4",
"0 c #FCD8C4",
/* pixels */
"%%%%%%%%%%%%%%%%%%%%%%%%%%%%%%%%%%%%%%%%%%%%%%%%%%%%%%%%%%%%%%%%%%%%%%%%%%%%%%%%%%",
"%%%%%%%%%%%%%%%%%%%%%%%%%%%%%%%%%%%%%%%%%%%%%%%%%%%%%%%%%%%%%%%%%%%%%%%%%%%%%%%%%%",
"%%%%%%%%%%%%%%%%%%%%%%%%%%%%%%%%%%%%%%%%OOOOOOOOO%%%%%%%%%%%%%%%%%%%%%%%%%%%%%%%%%",
"%%%%%%%%%%%%%%%%%%%%%%%%%%%%%%%%%%%%%%%%OOOOOOOOO%%%%%%%%%%%%%%%%%%%%%%%%%%%%%%%%%",
"%%%%%%%%%%%%%%%%%%%%%%%%%%%%%%%%%%%%%%%%OOOOOOOOO%%%%%%%%%%%%%%%%%%%%%%%%%%%%%%%%%",
"%%%%%%%%%%%%%%%%%%%%%%%%%%%%%%%%%%%%%OOO+++++++++OOO%%%%%%%%%%%%%%%%%%%%%%%%%%%%%%",
"%%%%%%%%%%%%%%%%%%%%%%%%%%%%%%%%%%%%%OOO+++++++++OOO%%%%%%%%%%%%%%%%%%%%%%%%%%%%%%",
"%%%%%%%%%%%%%%%%%%%%%%%%%%%%%%%%%%%%%OOO+++++++++OOO%%%%%%%%%%%%%%%%%%%%%%%%%%%%%%",
"%%%%%%%%%%%%%%%%%%%%%%%%%%%%%%%%%%%%%OOO+++$$$+++OOO%%%%%%%%%%%%%%%%%%%%%%%%%%%%%%",
"%%%%%%%%%%%%%%%%%%%%%%%%%%%%%%%%%%%%%OOO+++$$$+++OOO%%%%%%%%%%%%%%%%%%%%%%%%%%%%%%",
"%%%%%%%%%%%%%%%%%%%%%%%%%%%%%%%%%%%%%OOO+++$$$+++OOO%%%%%%%%%%%%%%%%%%%%%%%%%%%%%%",
"%%%%%%%%%%%%%%%%%%%%%%%%%%%%%%%%%%%%%OOO+++$$$+++OOO%%%%%%%%%%%%%%%%%%%%%%%%%%%%%%",
"%%%%%%%%%%%%%%%%%%%%%%%%%%%%%%%%%%%%%OOO+++$$$+++OOO%%%%%%%%%%%%%%%%%%%%%%%%%%%%%%",
"%%%%%%%%%%%%%%%%%%%%%%%%%%%%%%%%%%%%%OOO+++$$$+++OOO%%%%%%%%%%%%%%%%%%%%%%%%%%%%%%",
"%%%%%%%%%%%%%%%%%%%%%%%%%%%%%%%%%%%%%OOO+++$$$+++OOO%%%%%%%%%%%%%%%%%%%%%%%%%%%%%%",
"%%%%%%%%%%%%%%%%%%%%%%%%%%%%%%%%%%%%%OOO+++$$$+++OOO%%%%%%%%%%%%%%%%%%%%%%%%%%%%%%",
"%%%%%%%%%%%%%%%%%%%%%%%%%%%%%%%%%%%%%OOO+++$$$+++OOO%%%%%%%%%%%%%%%%%%%%%%%%%%%%%%",
"%%%%%%%%%%%%%%%%%%%%%%%%%%%%%%%%%%%%%OOO+++$$$+++OOO%%%%%%%%%%%%%%%%%%%%%%%%%%%%%%",
"%%%%%%%%%%%%%%%%%%%%%%%%%%%%%%%%%%%%%OOO+++$$$+++OOO%%%%%%%%%%%%%%%%%%%%%%%%%%%%%%",
"%%%%%%%%%%%%%%%%%%%%%%%%%%%%%%%%%%%%%OOO+++$$$+++OOO%%%%%%%%%%%%%%%%%%%%%%%%%%%%%%",
"%%%%%%%%%%%%%%%%%%%%%%%%%%%%%%%%%%%%%OOOOOO444OOOOOO%%%%%%%%%%%%%%%%%%%%%%%%%%%%%%",
"%%%%%%%%%%%%%%%%%%%%%%%%%%%%%%%%%%%%%OOOOOO444OOOOOO%%%%%%%%%%%%%%%%%%%%%%%%%%%%%%",
"%%%%%%%%%%%%%%%%%%%%%%%%%%%%%%%%%%%%%OOOOOO444OOOOOO%%%%%%%%%%%%%%%%%%%%%%%%%%%%%%",
"%%%%%%%%%%%%%%%%%%%%%%%%%%%%%%%%%%%%%OOO$$$444$$$OOO%%%%%%%%%%%%%%%%%%%%%%%%%%%%%%",
"%%%%%%%%%%%%%%%%%%%%%%%%%%%%%%%%%%%%%OOO$$$444$$$OOO%%%%%%%%%%%%%%%%%%%%%%%%%%%%%%",
"%%%%%%%%%%%%%%%%%%%%%%%%%%%%%%%%%%%%%OOO$$$444$$$OOO%%%%%%%%%%%%%%%%%%%%%%%%%%%%%%",
"%%%%%%%%%%%%%%%%%%%%%%%%%%%%%%%%%%%%%OOO$$$444$$$OOO%%%%%%%%%%%%%%%%%%%%%%%%%%%%%%",
"%%%%%%%%%%%%%%%%%%%%%%%%%%%%%%%%%%%%%OOO$$$444$$$OOO%%%%%%%%%%%%%%%%%%%%%%%%%%%%%%",
"%%%%%%%%%%%%%%%%%%%%%%%%%%%%%%%%%%%%%OOO$$$444$$$OOO%%%%%%%%%%%%%%%%%%%%%%%%%%%%%%",
"%%%%%%%%%%%%%%%%%%%%%%%%%%%%%%%%%%%%%OOO$$$444$$$OOO%%%%%%%%%%%%%%%%%%%%%%%%%%%%%%",
"%%%%%%%%%%%%%%%%%%%%%%%%%%%%%%%%%%%%%OOO$$$444$$$OOO%%%%%%%%%%%%%%%%%%%%%%%%%%%%%%",
"%%%%%%%%%%%%%%%%%%%%%%%%%%%%%%%%%%%%%OOO$$$444$$$OOO%%%%%%%%%%%%%%%%%%%%%%%%%%%%%%",
"%%%%%%%%%%%%%%%%%%%%%%%%%%%%%%%%%%$$$$$$@@@222@@@$$$$$$%%%%%%%%%%%%%%%%%%%%%%%%%%%",
"%%%%%%%%%%%%%%%%%%%%%%%%%%%%%%%%%%$$$$$$@@@222@@@$$$$$$%%%%%%%%%%%%%%%%%%%%%%%%%%%",
"%%%%%%%%%%%%%%%%%%%%%%%%%%%%%%%%%%$$$$$$@@@222@@@$$$$$$%%%%%%%%%%%%%%%%%%%%%%%%%%%",
"%%%%%%%%%%%%%%%%%%%%%%%%%%%%%%%@@@$$$$$$@@@222@@@$$$$$$@@@%%%%%%%%%%%%%%%%%%%%%%%%",
"%%%%%%%%%%%%%%%%%%%%%%%%%%%%%%%@@@$$$$$$@@@222@@@$$$$$$@@@%%%%%%%%%%%%%%%%%%%%%%%%",
"%%%%%%%%%%%%%%%%%%%%%%%%%%%%%%%@@@$$$$$$@@@222@@@$$$$$$@@@%%%%%%%%%%%%%%%%%%%%%%%%",
"%%%%%%%%%%%%%%%%%%%%%%%%%%%%%%%+++$$$444oooOOOooo@@@$$$+++%%%%%%%%%%%%%%%%%%%%%%%%",
"%%%%%%%%%%%%%%%%%%%%%%%%%%%%%%%+++$$$444oooOOOooo@@@$$$+++%%%%%%%%%%%%%%%%%%%%%%%%",
"%%%%%%%%%%%%%%%%%%%%%%%%%%%%%%%+++$$$444oooOOOooo@@@$$$+++%%%%%%%%%%%%%%%%%%%%%%%%",
"%%%%%%%%%%%%%%%%%%%%%%%%%%%%%%%+++333333XXXXXXXXX@@@$$$OOO%%%%%%%%%%%%%%%%%%%%%%%%",
"%%%%%%%%%%%%%%%%%%%%%%%%%%%%%%%+++333333XXXXXXXXX@@@$$$OOO%%%%%%%%%%%%%%%%%%%%%%%%",
"%%%%%%%%%%%%%%%%%%%%%%%%%%%%%%%+++333333XXXXXXXXX@@@$$$OOO%%%%%%%%%%%%%%%%%%%%%%%%",
"%%%%%%%%%%%%%%%%%%%%%%%%%%%%%%%+++444555###$$$###@@@$$$ooo%%%%%%%%%%%%%%%%%%%%%%%%",
"%%%%%%%%%%%%%%%%%%%%%%%%%%%%%%%+++444555###$$$###@@@$$$ooo%%%%%%%%%%%%%%%%%%%%%%%%",
"%%%%%%%%%%%%%%%%%%%%%%%%%%%%%%%+++444555###$$$###@@@$$$ooo%%%%%%%%%%%%%%%%%%%%%%%%",
"%%%%%%%%%%%%%%%%%%%%%%%%%%%%%%%+++444555555555555@@@OOOXXX***%%%%%%%%%%%%%%%%%%%%%",
"%%%%%%%%%%%%%%%%%%%%%%%%%%%%%%%+++444555555555555@@@OOOXXX***%%%%%%%%%%%%%%%%%%%%%",
"%%%%%%%%%%%%%%%%%%%%%%%%%%%%%%%+++444555555555555@@@OOOXXX***%%%%%%%%%%%%%%%%%%%%%",
"%%%%%%%%%%%%%%%%%%%%%%%%%%%%111+++222555222222222OOOOOO   ******%%%%%%%%%%%%%%%%%%",
"%%%%%%%%%%%%%%%%%%%%%%%%%%%%111+++222555222222222OOOOOO   ******%%%%%%%%%%%%%%%%%%",
"%%%%%%%%%%%%%%%%%%%%%%%%%%%%111+++222555222222222OOOOOO   ******%%%%%%%%%%%%%%%%%%",
"%%%%%%%%%%%%%%%%%%%%%%%%%111888++++++$$$OOOOOOOOOXXX...   ******%%%%%%%%%%%%%%%%%%",
"%%%%%%%%%%%%%%%%%%%%%%%%%111888++++++$$$OOOOOOOOOXXX...   ******%%%%%%%%%%%%%%%%%%",
"%%%%%%%%%%%%%%%%%%%%%%%%%111888++++++$$$OOOOOOOOOXXX...   ******%%%%%%%%%%%%%%%%%%",
"%%%%%%%%%%%%%%%%%%%%%%%%%111888@@@+++@@@XXXXXXXXX   ...   ===******%%%%%%%%%%%%%%%",
"%%%%%%%%%%%%%%%%%%%%%%%%%111888@@@+++@@@XXXXXXXXX   ...   ===******%%%%%%%%%%%%%%%",
"%%%%%%%%%%%%%%%%%%%%%%%%%111888@@@+++@@@XXXXXXXXX   ...   ===******%%%%%%%%%%%%%%%",
"%%%%%%%%%%%%%%%%%%%%%%%%%111888$$$+++@@@XXXXXXXXX      +++---===***%%%%%%%%%%%%%%%",
"%%%%%%%%%%%%%%%%%%%%%%%%%111888$$$+++@@@XXXXXXXXX      +++---===***%%%%%%%%%%%%%%%",
"%%%%%%%%%%%%%%%%%%%%%%%%%111888$$$+++@@@XXXXXXXXX      +++---===***%%%%%%%%%%%%%%%",
"%%%%%%%%%%%%%%%%%%%%%%111111666666$$$+++         ...+++***---===***%%%%%%%%%%%%%%%",
"%%%%%%%%%%%%%%%%%%%%%%111111666666$$$+++         ...+++***---===***%%%%%%%%%%%%%%%",
"%%%%%%%%%%%%%%%%%%%%%%111111666666$$$+++         ...+++***---===***%%%%%%%%%%%%%%%",
"%%%%%%%%%%%%%%%%%%%%%%111111666000777---&&&&&&&&&***>>>>>>:::---***%%%%%%%%%%%%%%%",
"%%%%%%%%%%%%%%%%%%%%%%111111666000777---&&&&&&&&&***>>>>>>:::---***%%%%%%%%%%%%%%%",
"%%%%%%%%%%%%%%%%%%%%%%111111666000777---&&&&&&&&&***>>>>>>:::---***%%%%%%%%%%%%%%%",
"%%%%%%%%%%%%%%%%%%%%%%111666666000999999999999777666111>>>>>>:::***%%%%%%%%%%%%%%%",
"%%%%%%%%%%%%%%%%%%%%%%111666666000999999999999777666111>>>>>>:::***%%%%%%%%%%%%%%%",
"%%%%%%%%%%%%%%%%%%%%%%111666666000999999999999777666111>>>>>>:::***%%%%%%%%%%%%%%%",
"%%%%%%%%%%%%%%%%%%%%%%111666>>>666999999999999777666111<<<>>>:::---%%%%%%%%%%%%%%%",
"%%%%%%%%%%%%%%%%%%%%%%111666>>>666999999999999777666111<<<>>>:::---%%%%%%%%%%%%%%%",
"%%%%%%%%%%%%%%%%%%%%%%111666>>>666999999999999777666111<<<>>>:::---%%%%%%%%%%%%%%%",
"%%%%%%%%%%%%%%%%%%%%%%111666111>>>111111111111111111<<<<<<>>>:::---%%%%%%%%%%%%%%%",
"%%%%%%%%%%%%%%%%%%%%%%111666111>>>111111111111111111<<<<<<>>>:::---%%%%%%%%%%%%%%%",
"%%%%%%%%%%%%%%%%%%%%%%111666111>>>111111111111111111<<<<<<>>>:::---%%%%%%%%%%%%%%%",
"%%%%%%%%%%%%%%%%%%%%%%,,,666666>>>>>><<<<<<<<<<<<<<<<<<>>>>>>;;;---%%%%%%%%%%%%%%%",
"%%%%%%%%%%%%%%%%%%%%%%,,,666666>>>>>><<<<<<<<<<<<<<<<<<>>>>>>;;;---%%%%%%%%%%%%%%%",
"%%%%%%%%%%%%%%%%%%%%%%,,,666666>>>>>><<<<<<<<<<<<<<<<<<>>>>>>;;;---%%%%%%%%%%%%%%%",
"%%%%%%%%%%%%%%%%%%%%%%:::666666666:::;;;;;;;;;;;;;;;;;;;;;;;;;;;---%%%%%%%%%%%%%%%",
"%%%%%%%%%%%%%%%%%%%%%%:::666666666:::;;;;;;;;;;;;;;;;;;;;;;;;;;;---%%%%%%%%%%%%%%%",
"%%%%%%%%%%%%%%%%%%%%%%:::666666666:::;;;;;;;;;;;;;;;;;;;;;;;;;;;---%%%%%%%%%%%%%%%",
"%%%%%%%%%%%%%%%%%%%333333333333$$$===============$$$$$$$$$$$$$$$$$$@@@%%%%%%%%%%%%",
"%%%%%%%%%%%%%%%%%%%333333333333$$$===============$$$$$$$$$$$$$$$$$$@@@%%%%%%%%%%%%",
"%%%%%%%%%%%%%%%%%%%333333333333$$$===============$$$$$$$$$$$$$$$$$$@@@%%%%%%%%%%%%",
"%%%%%%%%%%%%%%%%333444444444333$$$######---===+++$$$333333333$$$$$$$$$@@@%%%%%%%%%",
"%%%%%%%%%%%%%%%%333444444444333$$$######---===+++$$$333333333$$$$$$$$$@@@%%%%%%%%%",
"%%%%%%%%%%%%%%%%333444444444333$$$######---===+++$$$333333333$$$$$$$$$@@@%%%%%%%%%",
"%%%%%%%%%%%%%%%%333444444444333$$$$$$###++++++$$$$$$333333$$$$$$$$$$$$@@@%%%%%%%%%",
"%%%%%%%%%%%%%%%%333444444444333$$$$$$###++++++$$$$$$333333$$$$$$$$$$$$@@@%%%%%%%%%",
"%%%%%%%%%%%%%%%%333444444444333$$$$$$###++++++$$$$$$333333$$$$$$$$$$$$@@@%%%%%%%%%",
"%%%%%%%%%%%%%333333444333222###$$$$$$@@@++++++$$$$$$$$$#########@@@@@@@@@@@@%%%%%%",
"%%%%%%%%%%%%%333333444333222###$$$$$$@@@++++++$$$$$$$$$#########@@@@@@@@@@@@%%%%%%",
"%%%%%%%%%%%%%333333444333222###$$$$$$@@@++++++$$$$$$$$$#########@@@@@@@@@@@@%%%%%%",
"%%%%%%%%%%333444444444444333333###@@@@@@@@@OOO+++$$$###$$$222$$$$$$$$$@@@@@@@@@%%%",
"%%%%%%%%%%333444444444444333333###@@@@@@@@@OOO+++$$$###$$$222$$$$$$$$$@@@@@@@@@%%%",
"%%%%%%%%%%333444444444444333333###@@@@@@@@@OOO+++$$$###$$$222$$$$$$$$$@@@@@@@@@%%%",
"%%%%%%%%%%444444444444333333$$$$$$$$$@@@+++OOO+++###$$$222222222$$$$$$$$$@@@@@@%%%",
"%%%%%%%%%%444444444444333333$$$$$$$$$@@@+++OOO+++###$$$222222222$$$$$$$$$@@@@@@%%%",
"%%%%%%%%%%444444444444333333$$$$$$$$$@@@+++OOO+++###$$$222222222$$$$$$$$$@@@@@@%%%",
"%%%%%%%333444444444333333$$$$$$$$$@@@@@@+++OOO+++###$$$222222222$$$$$$$$$$$$@@@@@@",
"%%%%%%%333444444444333333$$$$$$$$$@@@@@@+++OOO+++###$$$222222222$$$$$$$$$$$$@@@@@@",
"%%%%%%%333444444444333333$$$$$$$$$@@@@@@+++OOO+++###$$$222222222$$$$$$$$$$$$@@@@@@"
};
